0
SECTION
2
HEADER
9
$INSUNITS
70
4
9
$ACADVER
1
AC1014
9
$HANDSEED
5
FFFF
0
ENDSEC
0
SECTION
2
TABLES
0
TABLE
2
VPORT
5
8
100
AcDbSymbolTable
0
ENDTAB
0
TABLE
2
LTYPE
5
5
100
AcDbSymbolTable
0
LTYPE
5
14
100
AcDbSymbolTableRecord
100
AcDbLinetypeTableRecord
2
BYBLOCK
70
0
0
LTYPE
5
15
100
AcDbSymbolTableRecord
100
AcDbLinetypeTableRecord
2
BYLAYER
70
0
0
ENDTAB
0
TABLE
2
LAYER
5
2
100
AcDbSymbolTable
70
2
0
LAYER
5
50
100
AcDbSymbolTableRecord
100
AcDbLayerTableRecord
2
0
70
0
6
CONTINUOUS
0
ENDTAB
0
TABLE
2
STYLE
5
3
100
AcDbSymbolTable
70
1
0
STYLE
5
11
100
AcDbSymbolTableRecord
100
AcDbTextStyleTableRecord
2
STANDARD
70
0
0
ENDTAB
0
TABLE
2
VIEW
5
6
100
AcDbSymbolTable
70
0
0
ENDTAB
0
TABLE
2
UCS
5
7
100
AcDbSymbolTable
70
0
0
ENDTAB
0
TABLE
2
APPID
5
9
100
AcDbSymbolTable
70
2
0
APPID
5
12
100
AcDbSymbolTableRecord
100
AcDbRegAppTableRecord
2
ACAD
70
0
0
ENDTAB
0
TABLE
2
DIMSTYLE
5
A
100
AcDbSymbolTable
70
1
0
ENDTAB
0
TABLE
2
BLOCK_RECORD
5
1
100
AcDbSymbolTable
70
1
0
BLOCK_RECORD
5
1F
100
AcDbSymbolTableRecord
100
AcDbBlockTableRecord
2
*MODEL_SPACE
0
BLOCK_RECORD
5
1B
100
AcDbSymbolTableRecord
100
AcDbBlockTableRecord
2
*PAPER_SPACE
0
ENDTAB
0
ENDSEC
0
SECTION
2
BLOCKS
0
BLOCK
5
20
100
AcDbEntity
100
AcDbBlockBegin
2
*MODEL_SPACE
0
ENDBLK
5
21
100
AcDbEntity
100
AcDbBlockEnd
0
BLOCK
5
1C
100
AcDbEntity
100
AcDbBlockBegin
2
*PAPER_SPACE
0
ENDBLK
5
1D
100
AcDbEntity
100
AcDbBlockEnd
0
ENDSEC
0
SECTION
2
ENTITIES
0
CIRCLE
5
100
100
AcDbEntity
8
0
100
AcDbCircle
10
183.96000000000021
20
-67.730000000000572
30
0
40
2.5
0
CIRCLE
5
101
100
AcDbEntity
8
0
100
AcDbCircle
10
75
20
27.73000000000053
30
0
40
2.5
0
CIRCLE
5
102
100
AcDbEntity
8
0
100
AcDbCircle
10
-74.999999999999986
20
27.73000000000053
30
0
40
2.5
0
CIRCLE
5
103
100
AcDbEntity
8
0
100
AcDbCircle
10
-183.96000000000009
20
-67.730000000000544
30
0
40
2.5
0
CIRCLE
5
104
100
AcDbEntity
8
0
100
AcDbCircle
10
-183.96000000000009
20
67.73000000000053
30
0
40
2.5
0
CIRCLE
5
105
100
AcDbEntity
8
0
100
AcDbCircle
10
-74.999999999999986
20
67.73000000000053
30
0
40
2.5
0
CIRCLE
5
106
100
AcDbEntity
8
0
100
AcDbCircle
10
75
20
67.73000000000053
30
0
40
2.5
0
CIRCLE
5
107
100
AcDbEntity
8
0
100
AcDbCircle
10
183.96000000000021
20
67.73000000000053
30
0
40
2.5
0
LWPOLYLINE
5
108
100
AcDbEntity
8
0
100
AcDbPolyline
90
68
70
1
43
0.0
10
191.50000000000006
20
64.729999999999009
10
188.96000000000009
20
64.729999999999023
10
188.96000000000009
20
42.189999999999316
10
191.50000000000006
20
42.189999999999316
10
191.5
20
24.729999999999013
10
188.96000000000001
20
24.729999999999031
10
188.96000000000001
20
-0.35000000000080966
10
191.5
20
-0.35000000000081855
10
191.5
20
-22.270000000001016
10
188.96000000000001
20
-22.270000000001016
10
188.95999999999992
20
-46.192000000000689
10
191.49999999999991
20
-46.192000000000689
10
191.50000000000006
20
-57.810000000000521
10
188.96000000000001
20
-57.810000000000521
10
188.96000000000001
20
-72.810000000000514
10
191.50000000000006
20
-72.810000000000514
10
191.50000000000009
20
-77.810000000000514
10
-191.50000000000009
20
-77.8100000000005
10
-191.50000000000006
20
-72.810000000000514
10
-188.96000000000009
20
-72.810000000000514
10
-188.96000000000009
20
-57.810000000000521
10
-191.50000000000006
20
-57.810000000000521
10
-191.50000000000006
20
-46.192000000000498
10
-188.96000000000009
20
-46.192000000000498
10
-188.96000000000009
20
-22.270000000000813
10
-191.50000000000006
20
-22.270000000000813
10
-191.50000000000006
20
-0.35000000000062315
10
-188.96000000000009
20
-0.35000000000062315
10
-188.96000000000009
20
24.729999999999208
10
-191.50000000000006
20
24.729999999999208
10
-191.50000000000006
20
42.189999999999515
10
-188.96000000000009
20
42.189999999999515
10
-188.96000000000009
20
64.729999999999208
10
-191.50000000000006
20
64.729999999999208
10
-191.50000000000009
20
77.810000000000514
10
-174.72385166358873
20
77.810000000000514
10
-174.72385166358873
20
72.73000000000053
10
-158.05718499692205
20
72.73000000000053
10
-158.05718499692205
20
77.810000000000514
10
-141.39051833025539
20
77.810000000000514
10
-141.39051833025539
20
72.73000000000053
10
-124.72385166358873
20
72.73000000000053
10
-124.72385166358873
20
77.810000000000514
10
-92.211218505859577
20
77.810000000000514
10
-92.211218505859591
20
72.73000000000053
10
-72.211218505859591
20
72.73000000000053
10
-72.211218505859591
20
77.810000000000514
10
-36.78921850585958
20
77.810000000000514
10
-36.78921850585958
20
72.73000000000053
10
-16.78921850585958
20
72.73000000000053
10
-16.78921850585958
20
77.810000000000514
10
16.78921850585958
20
77.810000000000514
10
16.78921850585958
20
72.730000000000516
10
36.78921850585958
20
72.730000000000501
10
36.78921850585958
20
77.810000000000485
10
72.211218505859591
20
77.810000000000457
10
72.211218505859591
20
72.730000000000459
10
92.211218505859591
20
72.730000000000445
10
92.211218505859563
20
77.810000000000429
10
124.72385166358873
20
77.8100000000004
10
124.72385166358873
20
72.730000000000402
10
141.39051833025536
20
72.730000000000388
10
141.39051833025536
20
77.810000000000372
10
158.05718499692205
20
77.810000000000358
10
158.05718499692205
20
72.730000000000373
10
174.72385166358873
20
72.730000000000359
10
174.72385166358873
20
77.810000000000343
10
191.50000000000003
20
77.810000000000514
0
LWPOLYLINE
5
109
100
AcDbEntity
8
0
100
AcDbPolyline
90
4
70
1
43
0.0
10
174.72385166358873
20
62.189999999999316
10
174.72385166358873
20
64.729999999999023
10
158.05718499692208
20
64.729999999999052
10
158.05718499692208
20
62.189999999999337
0
LWPOLYLINE
5
110
100
AcDbEntity
8
0
100
AcDbPolyline
90
4
70
1
43
0.0
10
124.72385166358873
20
64.72999999999908
10
124.72385166358873
20
62.189999999999372
10
141.39051833025536
20
62.189999999999358
10
141.39051833025536
20
64.729999999999066
0
LWPOLYLINE
5
111
100
AcDbEntity
8
0
100
AcDbPolyline
90
4
70
1
43
0.0
10
158.05718499692202
20
-24.810000000000656
10
174.72385166358868
20
-24.810000000000674
10
174.72385166358868
20
-22.27000000000098
10
158.05718499692202
20
-22.270000000000962
0
LWPOLYLINE
5
112
100
AcDbEntity
8
0
100
AcDbPolyline
90
4
70
1
43
0.0
10
124.72385166358865
20
-24.810000000000638
10
141.3905183302553
20
-24.810000000000656
10
141.3905183302553
20
-22.270000000000945
10
124.72385166358865
20
-22.270000000000927
0
LWPOLYLINE
5
113
100
AcDbEntity
8
0
100
AcDbPolyline
90
4
70
1
43
0.0
10
112.1922185058591
20
-32.001000000000772
10
112.1922185058591
20
-12.001000000000772
10
109.65221850585908
20
-12.001000000000772
10
109.65221850585908
20
-32.001000000000765
0
LWPOLYLINE
5
114
100
AcDbEntity
8
0
100
AcDbPolyline
90
4
70
1
43
0.0
10
124.72385166358865
20
-43.652000000001095
10
124.72385166358865
20
-46.192000000000618
10
141.3905183302553
20
-46.192000000000633
10
141.3905183302553
20
-43.652000000001117
0
LWPOLYLINE
5
115
100
AcDbEntity
8
0
100
AcDbPolyline
90
4
70
1
43
0.0
10
158.05718499692202
20
-43.652000000001138
10
158.05718499692202
20
-46.192000000000647
10
174.72385166358862
20
-46.192000000000668
10
174.72385166358862
20
-43.652000000001152
0
LWPOLYLINE
5
116
100
AcDbEntity
8
0
100
AcDbPolyline
90
4
70
1
43
0.0
10
-174.72385166358876
20
-43.652000000000982
10
-174.72385166358876
20
-46.192000000000498
10
-158.0571849969221
20
-46.192000000000498
10
-158.0571849969221
20
-43.652000000000982
0
LWPOLYLINE
5
117
100
AcDbEntity
8
0
100
AcDbPolyline
90
4
70
1
43
0.0
10
-124.72385166358876
20
-46.192000000000498
10
-124.72385166358876
20
-43.652000000000974
10
-141.39051833025542
20
-43.652000000000974
10
-141.39051833025542
20
-46.192000000000498
0
LWPOLYLINE
5
118
100
AcDbEntity
8
0
100
AcDbPolyline
90
4
70
1
43
0.0
10
-111.19221850585959
20
-72.810000000000514
10
-108.65221850585959
20
-72.810000000000514
10
-108.65221850585959
20
-57.810000000000521
10
-111.19221850585959
20
-57.810000000000521
0
LWPOLYLINE
5
119
100
AcDbEntity
8
0
100
AcDbPolyline
90
4
70
1
43
0.0
10
-111.19221850585959
20
-32.001000000000765
10
-108.65221850585959
20
-32.001000000000765
10
-108.65221850585959
20
-12.001000000000781
10
-111.19221850585959
20
-12.001000000000772
0
LWPOLYLINE
5
120
100
AcDbEntity
8
0
100
AcDbPolyline
90
4
70
1
43
0.0
10
56.770218505859127
20
-12.001000000000772
10
54.230218505859078
20
-12.001000000000772
10
54.230218505859078
20
-32.001000000000765
10
56.770218505859127
20
-32.001000000000765
0
LWPOLYLINE
5
121
100
AcDbEntity
8
0
100
AcDbPolyline
90
4
70
1
43
0.0
10
-55.770218505859575
20
-32.001000000000765
10
-53.230218505859582
20
-32.001000000000765
10
-53.230218505859582
20
-12.001000000000772
10
-55.770218505859575
20
-12.001000000000772
0
LWPOLYLINE
5
122
100
AcDbEntity
8
0
100
AcDbPolyline
90
4
70
1
43
0.0
10
92.211218505859478
20
-46.192000000000711
10
92.211218505859478
20
-43.652000000001017
10
72.211218505859478
20
-43.652000000000996
10
72.211218505859904
20
-46.192000000000739
0
LWPOLYLINE
5
123
100
AcDbEntity
8
0
100
AcDbPolyline
90
4
70
1
43
0.0
10
36.789218505859438
20
-46.192000000000661
10
36.789218505859473
20
-43.652000000000967
10
16.789218505859473
20
-43.652000000000932
10
16.7892185058599
20
-46.192000000000675
0
LWPOLYLINE
5
124
100
AcDbEntity
8
0
100
AcDbPolyline
90
4
70
1
43
0.0
10
-16.789218505860024
20
-46.192000000000661
10
-16.78921850585958
20
-43.652000000000925
10
-36.78921850585958
20
-43.652000000000925
10
-36.789218505859566
20
-46.192000000000633
0
LWPOLYLINE
5
125
100
AcDbEntity
8
0
100
AcDbPolyline
90
4
70
1
43
0.0
10
-72.211218505860032
20
-46.192000000000661
10
-72.211218505859591
20
-43.652000000000925
10
-92.211218505859591
20
-43.652000000000925
10
-92.211218505859577
20
-46.192000000000625
0
LWPOLYLINE
5
126
100
AcDbEntity
8
0
100
AcDbPolyline
90
4
70
1
43
0.0
10
109.65221850585908
20
-72.810000000000514
10
112.1922185058591
20
-72.810000000000514
10
112.1922185058591
20
-57.810000000000521
10
109.65221850585908
20
-57.810000000000521
0
LWPOLYLINE
5
127
100
AcDbEntity
8
0
100
AcDbPolyline
90
4
70
1
43
0.0
10
-158.0571849969221
20
-24.810000000000496
10
-158.0571849969221
20
-22.270000000000802
10
-174.72385166358876
20
-22.270000000000802
10
-174.72385166358876
20
-24.810000000000496
0
LWPOLYLINE
5
128
100
AcDbEntity
8
0
100
AcDbPolyline
90
4
70
1
43
0.0
10
-124.72385166358876
20
-24.810000000000514
10
-124.72385166358876
20
-22.270000000000802
10
-141.39051833025542
20
-22.270000000000802
10
-141.39051833025542
20
-24.810000000000514
0
LWPOLYLINE
5
129
100
AcDbEntity
8
0
100
AcDbPolyline
90
4
70
1
43
0.0
10
-0.77021850585957452
20
-32.001000000000765
10
1.7697814941404388
20
-32.001000000000765
10
1.7697814941404388
20
-12.001000000000772
10
-0.77021850585957452
20
-12.001000000000772
0
LWPOLYLINE
5
130
100
AcDbEntity
8
0
100
AcDbPolyline
90
4
70
1
43
0.0
10
-0.77021850585957452
20
-72.810000000000514
10
1.7697814941404033
20
-72.810000000000514
10
1.7697814941404033
20
-57.810000000000521
10
-0.77021850585957452
20
-57.810000000000521
0
LWPOLYLINE
5
131
100
AcDbEntity
8
0
100
AcDbPolyline
90
4
70
1
43
0.0
10
174.72385166358873
20
42.189999999999337
10
174.72385166358873
20
44.729999999999031
10
158.05718499692205
20
44.729999999999052
10
158.05718499692205
20
42.189999999999358
0
LWPOLYLINE
5
132
100
AcDbEntity
8
0
100
AcDbPolyline
90
4
70
1
43
0.0
10
124.72385166358873
20
44.72999999999908
10
124.72385166358873
20
42.189999999999387
10
141.39051833025536
20
42.189999999999372
10
141.39051833025536
20
44.729999999999066
0
LWPOLYLINE
5
133
100
AcDbEntity
8
0
100
AcDbPolyline
90
4
70
1
43
0.0
10
-174.72385166358873
20
44.729999999999208
10
-174.72385166358873
20
42.189999999999515
10
-158.05718499692208
20
42.189999999999515
10
-158.05718499692208
20
44.729999999999208
0
LWPOLYLINE
5
134
100
AcDbEntity
8
0
100
AcDbPolyline
90
4
70
1
43
0.0
10
-141.39051833025542
20
44.729999999999208
10
-141.39051833025542
20
42.189999999999515
10
-124.72385166358875
20
42.189999999999515
10
-124.72385166358875
20
44.729999999999208
0
LWPOLYLINE
5
135
100
AcDbEntity
8
0
100
AcDbPolyline
90
4
70
1
43
0.0
10
-158.05718499692208
20
62.1899999999995
10
-158.05718499692208
20
64.729999999999208
10
-174.72385166358873
20
64.729999999999208
10
-174.72385166358873
20
62.1899999999995
0
LWPOLYLINE
5
136
100
AcDbEntity
8
0
100
AcDbPolyline
90
4
70
1
43
0.0
10
-124.72385166358873
20
62.1899999999995
10
-124.72385166358873
20
64.729999999999208
10
-141.39051833025539
20
64.729999999999208
10
-141.39051833025539
20
62.1899999999995
0
LWPOLYLINE
5
137
100
AcDbEntity
8
0
100
AcDbPolyline
90
4
70
1
43
0.0
10
-141.39051833025542
20
24.729999999999208
10
-141.39051833025542
20
22.189999999999515
10
-124.72385166358875
20
22.189999999999515
10
-124.72385166358875
20
24.729999999999208
0
LWPOLYLINE
5
138
100
AcDbEntity
8
0
100
AcDbPolyline
90
4
70
1
43
0.0
10
-174.72385166358873
20
24.729999999999208
10
-174.72385166358873
20
22.189999999999515
10
-158.05718499692208
20
22.189999999999515
10
-158.05718499692208
20
24.729999999999208
0
LWPOLYLINE
5
139
100
AcDbEntity
8
0
100
AcDbPolyline
90
4
70
1
43
0.0
10
124.72385166358873
20
24.729999999999084
10
124.72385166358873
20
22.18999999999939
10
141.39051833025536
20
22.189999999999372
10
141.39051833025536
20
24.729999999999066
0
LWPOLYLINE
5
140
100
AcDbEntity
8
0
100
AcDbPolyline
90
4
70
1
43
0.0
10
174.72385166358865
20
22.189999999999337
10
174.72385166358865
20
24.729999999999031
10
158.05718499692205
20
24.729999999999048
10
158.05718499692205
20
22.189999999999355
0
LWPOLYLINE
5
141
100
AcDbEntity
8
0
100
AcDbPolyline
90
4
70
1
43
0.0
10
-174.72385166358876
20
-0.35000000000062315
10
-158.05718499692208
20
-0.35000000000062315
10
-158.05718499692208
20
2.1899999999993724
10
-174.72385166358876
20
2.1899999999993724
0
LWPOLYLINE
5
142
100
AcDbEntity
8
0
100
AcDbPolyline
90
4
70
1
43
0.0
10
-141.39051833025542
20
-0.35000000000062315
10
-124.72385166358876
20
-0.35000000000062315
10
-124.72385166358876
20
2.1899999999993724
10
-141.39051833025542
20
2.1899999999993724
0
LWPOLYLINE
5
143
100
AcDbEntity
8
0
100
AcDbPolyline
90
4
70
1
43
0.0
10
-92.211218505859591
20
-0.35000000000062315
10
-72.211218505859591
20
-0.35000000000062315
10
-72.211218505859591
20
2.1899999999993724
10
-92.211218505859591
20
2.1899999999993636
0
LWPOLYLINE
5
144
100
AcDbEntity
8
0
100
AcDbPolyline
90
4
70
1
43
0.0
10
-36.78921850585958
20
-0.35000000000062315
10
-16.78921850585958
20
-0.35000000000062315
10
-16.78921850585958
20
2.1899999999993724
10
-36.78921850585958
20
2.1899999999993636
0
LWPOLYLINE
5
145
100
AcDbEntity
8
0
100
AcDbPolyline
90
4
70
1
43
0.0
10
16.789218505859509
20
-0.35000000000064091
10
36.789218505859509
20
-0.35000000000065867
10
36.789218505859509
20
2.189999999999328
10
16.789218505859509
20
2.1899999999993547
0
LWPOLYLINE
5
146
100
AcDbEntity
8
0
100
AcDbPolyline
90
4
70
1
43
0.0
10
72.21121850585952
20
-0.3500000000006942
10
92.21121850585952
20
-0.35000000000072085
10
92.21121850585952
20
2.1899999999992836
10
72.21121850585952
20
2.1899999999993014
0
LWPOLYLINE
5
147
100
AcDbEntity
8
0
100
AcDbPolyline
90
4
70
1
43
0.0
10
124.72385166358869
20
-0.35000000000074749
10
141.39051833025533
20
-0.35000000000076525
10
141.39051833025533
20
2.1899999999992303
10
124.72385166358869
20
2.1899999999992481
0
LWPOLYLINE
5
148
100
AcDbEntity
8
0
100
AcDbPolyline
90
4
70
1
43
0.0
10
158.05718499692202
20
-0.35000000000078302
10
174.72385166358868
20
-0.35000000000080078
10
174.72385166358868
20
2.1899999999991948
10
158.05718499692202
20
2.1899999999992126
0
LWPOLYLINE
5
149
100
AcDbEntity
8
0
100
AcDbPolyline
90
68
70
1
43
0.0
10
-141.1365183302554
20
72.984000000000535
10
-124.97785166358872
20
72.984000000000535
10
-124.97785166358872
20
78.064000000000519
10
-91.957218505859572
20
78.064000000000519
10
-91.957218505859601
20
72.984000000000535
10
-72.465218505859596
20
72.984000000000535
10
-72.465218505859596
20
78.064000000000519
10
-36.535218505859582
20
78.064000000000519
10
-36.535218505859582
20
72.984000000000535
10
-17.043218505859581
20
72.984000000000535
10
-17.043218505859581
20
78.064000000000519
10
17.043218505859581
20
78.064000000000519
10
17.043218505859581
20
72.98400000000052
10
36.535218505859582
20
72.984000000000492
10
36.535218505859582
20
78.06400000000049
10
72.465218505859596
20
78.064000000000448
10
72.465218505859596
20
72.984000000000464
10
91.957218505859601
20
72.984000000000449
10
91.957218505859558
20
78.064000000000433
10
124.97785166358872
20
78.064000000000405
10
124.97785166358872
20
72.984000000000407
10
141.13651833025537
20
72.984000000000393
10
141.13651833025537
20
78.064000000000377
10
158.31118499692204
20
78.064000000000362
10
158.31118499692204
20
72.984000000000378
10
174.46985166358871
20
72.98400000000035
10
174.46985166358871
20
78.064000000000348
10
191.75400000000002
20
78.064000000000519
10
191.75400000000008
20
64.475999999999004
10
189.21400000000008
20
64.475999999999033
10
189.21400000000008
20
42.44399999999932
10
191.75400000000008
20
42.44399999999932
10
191.75399999999999
20
24.475999999999015
10
189.21400000000003
20
24.475999999999033
10
189.21400000000003
20
-0.09600000000081052
10
191.75399999999999
20
-0.096000000000819874
10
191.75399999999999
20
-22.524000000001013
10
189.21400000000003
20
-22.524000000001013
10
189.21399999999994
20
-45.938000000000685
10
191.75399999999993
20
-45.938000000000685
10
191.75400000000008
20
-58.064000000000526
10
189.21400000000003
20
-58.064000000000526
10
189.21400000000003
20
-72.556000000000523
10
191.75400000000008
20
-72.556000000000523
10
191.7540000000001
20
-78.064000000000519
10
-191.7540000000001
20
-78.064000000000505
10
-191.75400000000008
20
-72.556000000000523
10
-189.21400000000008
20
-72.556000000000523
10
-189.21400000000008
20
-58.064000000000526
10
-191.75400000000008
20
-58.064000000000526
10
-191.75400000000008
20
-45.9380000000005
10
-189.21400000000008
20
-45.9380000000005
10
-189.21400000000008
20
-22.524000000000811
10
-191.75400000000008
20
-22.524000000000811
10
-191.75400000000008
20
-0.096000000000623115
10
-189.21400000000008
20
-0.096000000000624475
10
-189.21400000000008
20
24.47599999999921
10
-191.75400000000008
20
24.47599999999921
10
-191.75400000000008
20
42.443999999999519
10
-189.21400000000008
20
42.443999999999519
10
-189.21400000000008
20
64.475999999999203
10
-191.75400000000008
20
64.475999999999203
10
-191.7540000000001
20
78.064000000000519
10
-174.46985166358871
20
78.064000000000519
10
-174.46985166358871
20
72.984000000000535
10
-158.31118499692204
20
72.984000000000535
10
-158.31118499692204
20
78.064000000000519
10
-141.1365183302554
20
78.064000000000519
0
LWPOLYLINE
5
150
100
AcDbEntity
8
0
100
AcDbPolyline
90
4
70
1
43
0.0
10
-174.46985166358871
20
62.443999999999498
10
-158.31118499692207
20
62.443999999999498
10
-158.31118499692207
20
64.475999999999203
10
-174.46985166358871
20
64.475999999999203
0
LWPOLYLINE
5
151
100
AcDbEntity
8
0
100
AcDbPolyline
90
4
70
1
43
0.0
10
-141.1365183302554
20
62.443999999999498
10
-124.97785166358872
20
62.443999999999498
10
-124.97785166358872
20
64.475999999999203
10
-141.1365183302554
20
64.475999999999203
0
LWPOLYLINE
5
152
100
AcDbEntity
8
0
100
AcDbPolyline
90
4
70
1
43
0.0
10
-174.46985166358871
20
42.443999999999519
10
-158.31118499692207
20
42.443999999999519
10
-158.31118499692207
20
44.475999999999203
10
-174.46985166358871
20
44.475999999999203
0
LWPOLYLINE
5
153
100
AcDbEntity
8
0
100
AcDbPolyline
90
4
70
1
43
0.0
10
-141.1365183302554
20
42.443999999999519
10
-124.97785166358874
20
42.443999999999519
10
-124.97785166358874
20
44.475999999999203
10
-141.1365183302554
20
44.475999999999203
0
LWPOLYLINE
5
154
100
AcDbEntity
8
0
100
AcDbPolyline
90
4
70
1
43
0.0
10
-174.46985166358871
20
22.443999999999512
10
-158.31118499692207
20
22.443999999999512
10
-158.31118499692207
20
24.47599999999921
10
-174.46985166358871
20
24.47599999999921
0
LWPOLYLINE
5
155
100
AcDbEntity
8
0
100
AcDbPolyline
90
4
70
1
43
0.0
10
-141.1365183302554
20
22.443999999999512
10
-124.97785166358874
20
22.443999999999512
10
-124.97785166358874
20
24.47599999999921
10
-141.1365183302554
20
24.47599999999921
0
LWPOLYLINE
5
156
100
AcDbEntity
8
0
100
AcDbPolyline
90
4
70
1
43
0.0
10
-174.46985166358874
20
-0.096000000000623115
10
-158.31118499692207
20
-0.096000000000623087
10
-158.31118499692207
20
1.9359999999993724
10
-174.46985166358874
20
1.9359999999993724
0
LWPOLYLINE
5
157
100
AcDbEntity
8
0
100
AcDbPolyline
90
4
70
1
43
0.0
10
-141.1365183302554
20
-0.096000000000623115
10
-124.97785166358875
20
-0.096000000000623087
10
-124.97785166358875
20
1.9359999999993724
10
-141.1365183302554
20
1.9359999999993724
0
LWPOLYLINE
5
158
100
AcDbEntity
8
0
100
AcDbPolyline
90
4
70
1
43
0.0
10
-174.46985166358874
20
-24.556000000000498
10
-158.31118499692209
20
-24.556000000000498
10
-158.31118499692209
20
-22.5240000000008
10
-174.46985166358874
20
-22.5240000000008
0
LWPOLYLINE
5
159
100
AcDbEntity
8
0
100
AcDbPolyline
90
4
70
1
43
0.0
10
-141.13651833025543
20
-24.556000000000516
10
-124.97785166358875
20
-24.556000000000516
10
-124.97785166358875
20
-22.5240000000008
10
-141.13651833025543
20
-22.5240000000008
0
LWPOLYLINE
5
160
100
AcDbEntity
8
0
100
AcDbPolyline
90
4
70
1
43
0.0
10
-174.46985166358874
20
-45.9380000000005
10
-158.31118499692209
20
-45.9380000000005
10
-158.31118499692209
20
-43.906000000000986
10
-174.46985166358874
20
-43.906000000000986
0
LWPOLYLINE
5
161
100
AcDbEntity
8
0
100
AcDbPolyline
90
4
70
1
43
0.0
10
-141.13651833025543
20
-45.9380000000005
10
-124.97785166358875
20
-45.9380000000005
10
-124.97785166358875
20
-43.906000000000979
10
-141.13651833025543
20
-43.906000000000979
0
LWPOLYLINE
5
162
100
AcDbEntity
8
0
100
AcDbPolyline
90
4
70
1
43
0.0
10
-110.9382185058596
20
-12.255000000000773
10
-110.9382185058596
20
-31.747000000000767
10
-108.90621850585958
20
-31.747000000000767
10
-108.90621850585958
20
-12.255000000000782
0
LWPOLYLINE
5
163
100
AcDbEntity
8
0
100
AcDbPolyline
90
4
70
1
43
0.0
10
-91.957218505859572
20
-45.938000000000621
10
-72.465218505859994
20
-45.938000000000656
10
-72.465218505859639
20
-43.906000000000923
10
-91.957218505859601
20
-43.906000000000923
0
LWPOLYLINE
5
164
100
AcDbEntity
8
0
100
AcDbPolyline
90
4
70
1
43
0.0
10
-91.957218505859601
20
-0.096000000000623115
10
-72.465218505859596
20
-0.096000000000623087
10
-72.465218505859596
20
1.9359999999993724
10
-91.957218505859601
20
1.9359999999993636
0
LWPOLYLINE
5
165
100
AcDbEntity
8
0
100
AcDbPolyline
90
4
70
1
43
0.0
10
-53.48421850585958
20
-31.747000000000767
10
-53.48421850585958
20
-12.255000000000773
10
-55.51621850585957
20
-12.255000000000773
10
-55.51621850585957
20
-31.747000000000767
0
LWPOLYLINE
5
166
100
AcDbEntity
8
0
100
AcDbPolyline
90
4
70
1
43
0.0
10
-36.535218505859568
20
-45.938000000000628
10
-17.043218505859979
20
-45.938000000000656
10
-17.043218505859624
20
-43.906000000000923
10
-36.535218505859582
20
-43.906000000000923
0
LWPOLYLINE
5
167
100
AcDbEntity
8
0
100
AcDbPolyline
90
4
70
1
43
0.0
10
-36.535218505859582
20
-0.096000000000623115
10
-17.043218505859581
20
-0.096000000000623087
10
-17.043218505859581
20
1.9359999999993724
10
-36.535218505859582
20
1.9359999999993636
0
LWPOLYLINE
5
168
100
AcDbEntity
8
0
100
AcDbPolyline
90
4
70
1
43
0.0
10
1.5157814941404388
20
-31.747000000000767
10
1.5157814941404388
20
-12.255000000000773
10
-0.51621850585957452
20
-12.255000000000773
10
-0.51621850585957452
20
-31.747000000000767
0
LWPOLYLINE
5
169
100
AcDbEntity
8
0
100
AcDbPolyline
90
4
70
1
43
0.0
10
-110.9382185058596
20
-58.064000000000526
10
-110.9382185058596
20
-72.556000000000523
10
-108.90621850585958
20
-72.556000000000523
10
-108.90621850585958
20
-58.064000000000526
0
LWPOLYLINE
5
170
100
AcDbEntity
8
0
100
AcDbPolyline
90
4
70
1
43
0.0
10
-0.51621850585957452
20
-58.064000000000526
10
-0.51621850585957452
20
-72.556000000000523
10
1.5157814941404033
20
-72.556000000000523
10
1.5157814941404033
20
-58.064000000000526
0
LINE
5
171
100
AcDbEntity
8
0
100
AcDbLine
10
-16.78921850585958
20
2.1899999999993724
30
0
11
16.789218505859509
21
2.1899999999993547
31
0
0
LINE
5
172
100
AcDbEntity
8
0
100
AcDbLine
10
-3.5527136788005009e-14
20
2.1899999999993636
30
0
11
-3.5527136788005009e-14
21
11.106486424710402
31
0
0
LWPOLYLINE
5
173
100
AcDbEntity
8
0
100
AcDbPolyline
90
4
70
1
43
0.0
10
158.05718499692202
20
-0.35000000000062315
10
158.05718499692202
20
2.1899999999993724
10
174.72385166358868
20
2.1899999999993724
10
174.72385166358868
20
-0.35000000000062315
0
LWPOLYLINE
5
174
100
AcDbEntity
8
0
100
AcDbPolyline
90
4
70
1
43
0.0
10
158.31118499692201
20
1.9359999999993724
10
174.46985166358868
20
1.9359999999993724
10
174.46985166358868
20
-0.096000000000623087
10
158.31118499692201
20
-0.096000000000623087
0
LWPOLYLINE
5
175
100
AcDbEntity
8
0
100
AcDbPolyline
90
4
70
1
43
0.0
10
158.31118499692201
20
62.443999999999498
10
158.31118499692201
20
64.475999999999203
10
174.46985166358866
20
64.475999999999203
10
174.46985166358866
20
62.443999999999498
0
LWPOLYLINE
5
176
100
AcDbEntity
8
0
100
AcDbPolyline
90
4
70
1
43
0.0
10
174.46985166358868
20
-43.906000000000986
10
174.46985166358868
20
-45.9380000000005
10
158.31118499692201
20
-45.9380000000005
10
158.31118499692201
20
-43.906000000000986
0
LWPOLYLINE
5
177
100
AcDbEntity
8
0
100
AcDbPolyline
90
4
70
1
43
0.0
10
124.72385166358865
20
64.729999999999208
10
141.3905183302553
20
64.729999999999208
10
141.3905183302553
20
62.1899999999995
10
124.72385166358865
20
62.1899999999995
0
LWPOLYLINE
5
178
100
AcDbEntity
8
0
100
AcDbPolyline
90
4
70
1
43
0.0
10
141.13651833025531
20
62.443999999999498
10
124.97785166358865
20
62.443999999999498
10
124.97785166358865
20
64.475999999999203
10
141.13651833025531
20
64.475999999999203
0
LWPOLYLINE
5
179
100
AcDbEntity
8
0
100
AcDbPolyline
90
4
70
1
43
0.0
10
158.31118499692201
20
-24.556000000000498
10
158.31118499692201
20
-22.5240000000008
10
174.46985166358868
20
-22.5240000000008
10
174.46985166358868
20
-24.556000000000498
0
LWPOLYLINE
5
180
100
AcDbEntity
8
0
100
AcDbPolyline
90
4
70
1
43
0.0
10
174.72385166358868
20
-43.652000000000982
10
174.72385166358868
20
-46.192000000000498
10
158.05718499692202
20
-46.192000000000498
10
158.05718499692202
20
-43.652000000000982
0
LWPOLYLINE
5
181
100
AcDbEntity
8
0
100
AcDbPolyline
90
4
70
1
43
0.0
10
158.05718499692202
20
42.189999999999515
10
158.05718499692202
20
44.729999999999208
10
174.72385166358865
20
44.729999999999208
10
174.72385166358865
20
42.189999999999515
0
LWPOLYLINE
5
182
100
AcDbEntity
8
0
100
AcDbPolyline
90
4
70
1
43
0.0
10
141.13651833025534
20
22.443999999999512
10
124.97785166358867
20
22.443999999999512
10
124.97785166358867
20
24.47599999999921
10
141.13651833025534
20
24.47599999999921
0
LWPOLYLINE
5
183
100
AcDbEntity
8
0
100
AcDbPolyline
90
4
70
1
43
0.0
10
124.97785166358868
20
-0.096000000000623087
10
124.97785166358868
20
1.9359999999993724
10
141.13651833025534
20
1.9359999999993724
10
141.13651833025534
20
-0.096000000000623087
0
LWPOLYLINE
5
184
100
AcDbEntity
8
0
100
AcDbPolyline
90
4
70
1
43
0.0
10
158.31118499692201
20
44.475999999999203
10
174.46985166358866
20
44.475999999999203
10
174.46985166358866
20
42.443999999999519
10
158.31118499692201
20
42.443999999999519
0
LWPOLYLINE
5
185
100
AcDbEntity
8
0
100
AcDbPolyline
90
4
70
1
43
0.0
10
124.97785166358868
20
-24.556000000000516
10
124.97785166358868
20
-22.5240000000008
10
141.13651833025534
20
-22.5240000000008
10
141.13651833025534
20
-24.556000000000516
0
LWPOLYLINE
5
186
100
AcDbEntity
8
0
100
AcDbPolyline
90
4
70
1
43
0.0
10
141.13651833025534
20
44.475999999999203
10
141.13651833025534
20
42.443999999999519
10
124.97785166358867
20
42.443999999999519
10
124.97785166358867
20
44.475999999999203
0
LWPOLYLINE
5
187
100
AcDbEntity
8
0
100
AcDbPolyline
90
4
70
1
43
0.0
10
158.05718499692202
20
22.189999999999515
10
158.05718499692202
20
24.729999999999208
10
174.72385166358865
20
24.729999999999208
10
174.72385166358865
20
22.189999999999515
0
LWPOLYLINE
5
188
100
AcDbEntity
8
0
100
AcDbPolyline
90
4
70
1
43
0.0
10
141.39051833025533
20
22.189999999999515
10
124.72385166358868
20
22.189999999999515
10
124.72385166358868
20
24.729999999999208
10
141.39051833025533
20
24.729999999999208
0
LWPOLYLINE
5
189
100
AcDbEntity
8
0
100
AcDbPolyline
90
4
70
1
43
0.0
10
174.46985166358866
20
22.443999999999512
10
158.31118499692201
20
22.443999999999512
10
158.31118499692201
20
24.47599999999921
10
174.46985166358866
20
24.47599999999921
0
LWPOLYLINE
5
190
100
AcDbEntity
8
0
100
AcDbPolyline
90
4
70
1
43
0.0
10
141.13651833025534
20
-45.9380000000005
10
124.97785166358868
20
-45.9380000000005
10
124.97785166358868
20
-43.906000000000979
10
141.13651833025534
20
-43.906000000000979
0
LWPOLYLINE
5
191
100
AcDbEntity
8
0
100
AcDbPolyline
90
4
70
1
43
0.0
10
124.72385166358869
20
-43.652000000000974
10
141.39051833025536
20
-43.652000000000974
10
141.39051833025536
20
-46.192000000000498
10
124.72385166358869
20
-46.192000000000498
0
LWPOLYLINE
5
192
100
AcDbEntity
8
0
100
AcDbPolyline
90
4
70
1
43
0.0
10
124.72385166358869
20
-0.35000000000062315
10
124.72385166358869
20
2.1899999999993724
10
141.39051833025533
20
2.1899999999993724
10
141.39051833025533
20
-0.35000000000062315
0
LWPOLYLINE
5
193
100
AcDbEntity
8
0
100
AcDbPolyline
90
4
70
1
43
0.0
10
124.72385166358869
20
-24.810000000000514
10
124.72385166358869
20
-22.270000000000802
10
141.39051833025536
20
-22.270000000000802
10
141.39051833025536
20
-24.810000000000514
0
LWPOLYLINE
5
194
100
AcDbEntity
8
0
100
AcDbPolyline
90
4
70
1
43
0.0
10
124.72385166358868
20
42.189999999999515
10
124.72385166358868
20
44.729999999999208
10
141.39051833025533
20
44.729999999999208
10
141.39051833025533
20
42.189999999999515
0
LWPOLYLINE
5
195
100
AcDbEntity
8
0
100
AcDbPolyline
90
4
70
1
43
0.0
10
158.05718499692202
20
-22.270000000000802
10
174.72385166358868
20
-22.270000000000802
10
174.72385166358868
20
-24.810000000000496
10
158.05718499692202
20
-24.810000000000496
0
LWPOLYLINE
5
196
100
AcDbEntity
8
0
100
AcDbPolyline
90
4
70
1
43
0.0
10
174.72385166358865
20
64.729999999999208
10
174.72385166358865
20
62.1899999999995
10
158.05718499692202
20
62.1899999999995
10
158.05718499692202
20
64.729999999999208
0
LWPOLYLINE
5
197
100
AcDbEntity
8
0
100
AcDbPolyline
90
4
70
1
43
0.0
10
72.21121850585952
20
2.1899999999993724
10
92.21121850585952
20
2.1899999999993636
10
92.21121850585952
20
-0.35000000000062315
10
72.21121850585952
20
-0.35000000000062315
0
LWPOLYLINE
5
198
100
AcDbEntity
8
0
100
AcDbPolyline
90
4
70
1
43
0.0
10
91.95721850585953
20
-0.096000000000623087
10
72.465218505859525
20
-0.096000000000623087
10
72.465218505859525
20
1.9359999999993724
10
91.95721850585953
20
1.9359999999993636
0
LWPOLYLINE
5
199
100
AcDbEntity
8
0
100
AcDbPolyline
90
4
70
1
43
0.0
10
72.465218505859568
20
-43.906000000000923
10
91.95721850585953
20
-43.906000000000923
10
91.957218505859515
20
-45.938000000000621
10
72.465218505859923
20
-45.938000000000656
0
LWPOLYLINE
5
200
100
AcDbEntity
8
0
100
AcDbPolyline
90
4
70
1
43
0.0
10
72.21121850585952
20
-43.652000000000925
10
92.21121850585952
20
-43.652000000000925
10
92.211218505859506
20
-46.192000000000625
10
72.211218505859961
20
-46.192000000000661
0
LWPOLYLINE
5
201
100
AcDbEntity
8
0
100
AcDbPolyline
90
4
70
1
43
0.0
10
16.789218505859509
20
-43.652000000000925
10
36.789218505859509
20
-43.652000000000925
10
36.789218505859495
20
-46.192000000000633
10
16.789218505859953
20
-46.192000000000661
0
LWPOLYLINE
5
202
100
AcDbEntity
8
0
100
AcDbPolyline
90
4
70
1
43
0.0
10
36.789218505859509
20
2.1899999999993636
10
36.789218505859509
20
-0.35000000000062315
10
16.789218505859509
20
-0.35000000000062315
10
16.789218505859509
20
2.1899999999993724
0
LWPOLYLINE
5
203
100
AcDbEntity
8
0
100
AcDbPolyline
90
4
70
1
43
0.0
10
36.535218505859497
20
-45.938000000000628
10
17.043218505859908
20
-45.938000000000656
10
17.043218505859553
20
-43.906000000000923
10
36.535218505859511
20
-43.906000000000923
0
LWPOLYLINE
5
204
100
AcDbEntity
8
0
100
AcDbPolyline
90
4
70
1
43
0.0
10
17.04321850585951
20
-0.096000000000623087
10
17.04321850585951
20
1.9359999999993724
10
36.535218505859511
20
1.9359999999993636
10
36.535218505859511
20
-0.096000000000623087
0
LWPOLYLINE
5
205
100
AcDbEntity
8
0
100
AcDbPolyline
90
4
70
1
43
0.0
10
56.516218505859122
20
-31.747000000000767
10
56.516218505859122
20
-12.255000000000773
10
54.484218505859083
20
-12.255000000000773
10
54.484218505859083
20
-31.747000000000764
0
LWPOLYLINE
5
206
100
AcDbEntity
8
0
100
AcDbPolyline
90
4
70
1
43
0.0
10
109.90621850585909
20
-12.255000000000773
10
109.90621850585909
20
-31.747000000000764
10
111.93821850585911
20
-31.747000000000774
10
111.93821850585911
20
-12.255000000000773
0
LWPOLYLINE
5
207
100
AcDbEntity
8
0
100
AcDbPolyline
90
4
70
1
43
0.0
10
109.90621850585909
20
-58.064000000000526
10
109.90621850585909
20
-72.556000000000523
10
111.93821850585911
20
-72.556000000000523
10
111.93821850585911
20
-58.064000000000526
0
ENDSEC
0
SECTION
2
OBJECTS
0
DICTIONARY
5
C
100
AcDbDictionary
3
ACAD_GROUP
350
D
3
ACAD_MLINESTYLE
350
17
0
DICTIONARY
5
D
100
AcDbDictionary
0
DICTIONARY
5
1A
330
C
100
AcDbDictionary
0
DICTIONARY
5
17
100
AcDbDictionary
0
ENDSEC
0
EOF
