0
SECTION
2
HEADER
9
$INSUNITS
70
4
9
$ACADVER
1
AC1014
9
$HANDSEED
5
FFFF
0
ENDSEC
0
SECTION
2
TABLES
0
TABLE
2
VPORT
5
8
100
AcDbSymbolTable
0
ENDTAB
0
TABLE
2
LTYPE
5
5
100
AcDbSymbolTable
0
LTYPE
5
14
100
AcDbSymbolTableRecord
100
AcDbLinetypeTableRecord
2
BYBLOCK
70
0
0
LTYPE
5
15
100
AcDbSymbolTableRecord
100
AcDbLinetypeTableRecord
2
BYLAYER
70
0
0
ENDTAB
0
TABLE
2
LAYER
5
2
100
AcDbSymbolTable
70
2
0
LAYER
5
50
100
AcDbSymbolTableRecord
100
AcDbLayerTableRecord
2
0
70
0
6
CONTINUOUS
0
ENDTAB
0
TABLE
2
STYLE
5
3
100
AcDbSymbolTable
70
1
0
STYLE
5
11
100
AcDbSymbolTableRecord
100
AcDbTextStyleTableRecord
2
STANDARD
70
0
0
ENDTAB
0
TABLE
2
VIEW
5
6
100
AcDbSymbolTable
70
0
0
ENDTAB
0
TABLE
2
UCS
5
7
100
AcDbSymbolTable
70
0
0
ENDTAB
0
TABLE
2
APPID
5
9
100
AcDbSymbolTable
70
2
0
APPID
5
12
100
AcDbSymbolTableRecord
100
AcDbRegAppTableRecord
2
ACAD
70
0
0
ENDTAB
0
TABLE
2
DIMSTYLE
5
A
100
AcDbSymbolTable
70
1
0
ENDTAB
0
TABLE
2
BLOCK_RECORD
5
1
100
AcDbSymbolTable
70
1
0
BLOCK_RECORD
5
1F
100
AcDbSymbolTableRecord
100
AcDbBlockTableRecord
2
*MODEL_SPACE
0
BLOCK_RECORD
5
1B
100
AcDbSymbolTableRecord
100
AcDbBlockTableRecord
2
*PAPER_SPACE
0
ENDTAB
0
ENDSEC
0
SECTION
2
BLOCKS
0
BLOCK
5
20
100
AcDbEntity
100
AcDbBlockBegin
2
*MODEL_SPACE
0
ENDBLK
5
21
100
AcDbEntity
100
AcDbBlockEnd
0
BLOCK
5
1C
100
AcDbEntity
100
AcDbBlockBegin
2
*PAPER_SPACE
0
ENDBLK
5
1D
100
AcDbEntity
100
AcDbBlockEnd
0
ENDSEC
0
SECTION
2
ENTITIES
0
CIRCLE
5
100
100
AcDbEntity
8
0
100
AcDbCircle
10
183.96000000000021
20
-67.730000000000572
30
0
40
2.5
0
CIRCLE
5
101
100
AcDbEntity
8
0
100
AcDbCircle
10
75
20
27.73000000000053
30
0
40
2.5
0
CIRCLE
5
102
100
AcDbEntity
8
0
100
AcDbCircle
10
-74.999999999999986
20
27.73000000000053
30
0
40
2.5
0
CIRCLE
5
103
100
AcDbEntity
8
0
100
AcDbCircle
10
-183.96000000000009
20
-67.730000000000544
30
0
40
2.5
0
CIRCLE
5
104
100
AcDbEntity
8
0
100
AcDbCircle
10
-183.96000000000009
20
67.73000000000053
30
0
40
2.5
0
CIRCLE
5
105
100
AcDbEntity
8
0
100
AcDbCircle
10
-74.999999999999986
20
67.73000000000053
30
0
40
2.5
0
CIRCLE
5
106
100
AcDbEntity
8
0
100
AcDbCircle
10
75
20
67.73000000000053
30
0
40
2.5
0
CIRCLE
5
107
100
AcDbEntity
8
0
100
AcDbCircle
10
183.96000000000021
20
67.73000000000053
30
0
40
2.5
0
LWPOLYLINE
5
108
100
AcDbEntity
8
0
100
AcDbPolyline
90
68
70
1
43
0.0
10
191.50000000000006
20
64.729999999999009
10
188.96000000000009
20
64.729999999999023
10
188.96000000000009
20
42.189999999999316
10
191.50000000000006
20
42.189999999999316
10
191.5
20
24.729999999999013
10
188.96000000000001
20
24.729999999999031
10
188.96000000000001
20
-0.35000000000080966
10
191.5
20
-0.35000000000081855
10
191.5
20
-22.270000000001016
10
188.96000000000001
20
-22.270000000001016
10
188.95999999999992
20
-46.192000000000689
10
191.49999999999991
20
-46.192000000000689
10
191.50000000000006
20
-57.810000000000521
10
188.96000000000001
20
-57.810000000000521
10
188.96000000000001
20
-72.810000000000514
10
191.50000000000006
20
-72.810000000000514
10
191.50000000000009
20
-77.810000000000514
10
-191.50000000000009
20
-77.8100000000005
10
-191.50000000000006
20
-72.810000000000514
10
-188.96000000000009
20
-72.810000000000514
10
-188.96000000000009
20
-57.810000000000521
10
-191.50000000000006
20
-57.810000000000521
10
-191.50000000000006
20
-46.192000000000498
10
-188.96000000000009
20
-46.192000000000498
10
-188.96000000000009
20
-22.270000000000813
10
-191.50000000000006
20
-22.270000000000813
10
-191.50000000000006
20
-0.35000000000062315
10
-188.96000000000009
20
-0.35000000000062315
10
-188.96000000000009
20
24.729999999999208
10
-191.50000000000006
20
24.729999999999208
10
-191.50000000000006
20
42.189999999999515
10
-188.96000000000009
20
42.189999999999515
10
-188.96000000000009
20
64.729999999999208
10
-191.50000000000006
20
64.729999999999208
10
-191.50000000000009
20
77.810000000000514
10
-174.72385166358873
20
77.810000000000514
10
-174.72385166358873
20
72.73000000000053
10
-158.05718499692205
20
72.73000000000053
10
-158.05718499692205
20
77.810000000000514
10
-141.39051833025539
20
77.810000000000514
10
-141.39051833025539
20
72.73000000000053
10
-124.72385166358873
20
72.73000000000053
10
-124.72385166358873
20
77.810000000000514
10
-92.211218505859577
20
77.810000000000514
10
-92.211218505859591
20
72.73000000000053
10
-72.211218505859591
20
72.73000000000053
10
-72.211218505859591
20
77.810000000000514
10
-36.78921850585958
20
77.810000000000514
10
-36.78921850585958
20
72.73000000000053
10
-16.78921850585958
20
72.73000000000053
10
-16.78921850585958
20
77.810000000000514
10
16.78921850585958
20
77.810000000000514
10
16.78921850585958
20
72.730000000000516
10
36.78921850585958
20
72.730000000000501
10
36.78921850585958
20
77.810000000000485
10
72.211218505859591
20
77.810000000000457
10
72.211218505859591
20
72.730000000000459
10
92.211218505859591
20
72.730000000000445
10
92.211218505859563
20
77.810000000000429
10
124.72385166358873
20
77.8100000000004
10
124.72385166358873
20
72.730000000000402
10
141.39051833025536
20
72.730000000000388
10
141.39051833025536
20
77.810000000000372
10
158.05718499692205
20
77.810000000000358
10
158.05718499692205
20
72.730000000000373
10
174.72385166358873
20
72.730000000000359
10
174.72385166358873
20
77.810000000000343
10
191.50000000000003
20
77.810000000000514
0
LWPOLYLINE
5
109
100
AcDbEntity
8
0
100
AcDbPolyline
90
4
70
1
43
0.0
10
174.72385166358873
20
62.189999999999316
10
174.72385166358873
20
64.729999999999023
10
158.05718499692208
20
64.729999999999052
10
158.05718499692208
20
62.189999999999337
0
LWPOLYLINE
5
110
100
AcDbEntity
8
0
100
AcDbPolyline
90
4
70
1
43
0.0
10
124.72385166358873
20
64.72999999999908
10
124.72385166358873
20
62.189999999999372
10
141.39051833025536
20
62.189999999999358
10
141.39051833025536
20
64.729999999999066
0
LWPOLYLINE
5
111
100
AcDbEntity
8
0
100
AcDbPolyline
90
4
70
1
43
0.0
10
158.05718499692202
20
-24.810000000000656
10
174.72385166358868
20
-24.810000000000674
10
174.72385166358868
20
-22.27000000000098
10
158.05718499692202
20
-22.270000000000962
0
LWPOLYLINE
5
112
100
AcDbEntity
8
0
100
AcDbPolyline
90
4
70
1
43
0.0
10
124.72385166358865
20
-24.810000000000638
10
141.3905183302553
20
-24.810000000000656
10
141.3905183302553
20
-22.270000000000945
10
124.72385166358865
20
-22.270000000000927
0
LWPOLYLINE
5
113
100
AcDbEntity
8
0
100
AcDbPolyline
90
4
70
1
43
0.0
10
112.1922185058591
20
-32.001000000000772
10
112.1922185058591
20
-12.001000000000772
10
109.65221850585908
20
-12.001000000000772
10
109.65221850585908
20
-32.001000000000765
0
LWPOLYLINE
5
114
100
AcDbEntity
8
0
100
AcDbPolyline
90
4
70
1
43
0.0
10
124.72385166358865
20
-43.652000000001095
10
124.72385166358865
20
-46.192000000000618
10
141.3905183302553
20
-46.192000000000633
10
141.3905183302553
20
-43.652000000001117
0
LWPOLYLINE
5
115
100
AcDbEntity
8
0
100
AcDbPolyline
90
4
70
1
43
0.0
10
158.05718499692202
20
-43.652000000001138
10
158.05718499692202
20
-46.192000000000647
10
174.72385166358862
20
-46.192000000000668
10
174.72385166358862
20
-43.652000000001152
0
LWPOLYLINE
5
116
100
AcDbEntity
8
0
100
AcDbPolyline
90
4
70
1
43
0.0
10
-174.72385166358876
20
-43.652000000000982
10
-174.72385166358876
20
-46.192000000000498
10
-158.0571849969221
20
-46.192000000000498
10
-158.0571849969221
20
-43.652000000000982
0
LWPOLYLINE
5
117
100
AcDbEntity
8
0
100
AcDbPolyline
90
4
70
1
43
0.0
10
-124.72385166358876
20
-46.192000000000498
10
-124.72385166358876
20
-43.652000000000974
10
-141.39051833025542
20
-43.652000000000974
10
-141.39051833025542
20
-46.192000000000498
0
LWPOLYLINE
5
118
100
AcDbEntity
8
0
100
AcDbPolyline
90
4
70
1
43
0.0
10
-111.19221850585959
20
-72.810000000000514
10
-108.65221850585959
20
-72.810000000000514
10
-108.65221850585959
20
-57.810000000000521
10
-111.19221850585959
20
-57.810000000000521
0
LWPOLYLINE
5
119
100
AcDbEntity
8
0
100
AcDbPolyline
90
4
70
1
43
0.0
10
-111.19221850585959
20
-32.001000000000765
10
-108.65221850585959
20
-32.001000000000765
10
-108.65221850585959
20
-12.001000000000781
10
-111.19221850585959
20
-12.001000000000772
0
LWPOLYLINE
5
120
100
AcDbEntity
8
0
100
AcDbPolyline
90
4
70
1
43
0.0
10
56.770218505859127
20
-12.001000000000772
10
54.230218505859078
20
-12.001000000000772
10
54.230218505859078
20
-32.001000000000765
10
56.770218505859127
20
-32.001000000000765
0
LWPOLYLINE
5
121
100
AcDbEntity
8
0
100
AcDbPolyline
90
4
70
1
43
0.0
10
-55.770218505859575
20
-32.001000000000765
10
-53.230218505859582
20
-32.001000000000765
10
-53.230218505859582
20
-12.001000000000772
10
-55.770218505859575
20
-12.001000000000772
0
LWPOLYLINE
5
122
100
AcDbEntity
8
0
100
AcDbPolyline
90
4
70
1
43
0.0
10
92.211218505859478
20
-46.192000000000711
10
92.211218505859478
20
-43.652000000001017
10
72.211218505859478
20
-43.652000000000996
10
72.211218505859904
20
-46.192000000000739
0
LWPOLYLINE
5
123
100
AcDbEntity
8
0
100
AcDbPolyline
90
4
70
1
43
0.0
10
36.789218505859438
20
-46.192000000000661
10
36.789218505859473
20
-43.652000000000967
10
16.789218505859473
20
-43.652000000000932
10
16.7892185058599
20
-46.192000000000675
0
LWPOLYLINE
5
124
100
AcDbEntity
8
0
100
AcDbPolyline
90
4
70
1
43
0.0
10
-16.789218505860024
20
-46.192000000000661
10
-16.78921850585958
20
-43.652000000000925
10
-36.78921850585958
20
-43.652000000000925
10
-36.789218505859566
20
-46.192000000000633
0
LWPOLYLINE
5
125
100
AcDbEntity
8
0
100
AcDbPolyline
90
4
70
1
43
0.0
10
-72.211218505860032
20
-46.192000000000661
10
-72.211218505859591
20
-43.652000000000925
10
-92.211218505859591
20
-43.652000000000925
10
-92.211218505859577
20
-46.192000000000625
0
LWPOLYLINE
5
126
100
AcDbEntity
8
0
100
AcDbPolyline
90
4
70
1
43
0.0
10
109.65221850585908
20
-72.810000000000514
10
112.1922185058591
20
-72.810000000000514
10
112.1922185058591
20
-57.810000000000521
10
109.65221850585908
20
-57.810000000000521
0
LWPOLYLINE
5
127
100
AcDbEntity
8
0
100
AcDbPolyline
90
4
70
1
43
0.0
10
-158.0571849969221
20
-24.810000000000496
10
-158.0571849969221
20
-22.270000000000802
10
-174.72385166358876
20
-22.270000000000802
10
-174.72385166358876
20
-24.810000000000496
0
LWPOLYLINE
5
128
100
AcDbEntity
8
0
100
AcDbPolyline
90
4
70
1
43
0.0
10
-124.72385166358876
20
-24.810000000000514
10
-124.72385166358876
20
-22.270000000000802
10
-141.39051833025542
20
-22.270000000000802
10
-141.39051833025542
20
-24.810000000000514
0
LWPOLYLINE
5
129
100
AcDbEntity
8
0
100
AcDbPolyline
90
4
70
1
43
0.0
10
-0.77021850585957452
20
-32.001000000000765
10
1.7697814941404388
20
-32.001000000000765
10
1.7697814941404388
20
-12.001000000000772
10
-0.77021850585957452
20
-12.001000000000772
0
LWPOLYLINE
5
130
100
AcDbEntity
8
0
100
AcDbPolyline
90
4
70
1
43
0.0
10
-0.77021850585957452
20
-72.810000000000514
10
1.7697814941404033
20
-72.810000000000514
10
1.7697814941404033
20
-57.810000000000521
10
-0.77021850585957452
20
-57.810000000000521
0
LWPOLYLINE
5
131
100
AcDbEntity
8
0
100
AcDbPolyline
90
4
70
1
43
0.0
10
174.72385166358873
20
42.189999999999337
10
174.72385166358873
20
44.729999999999031
10
158.05718499692205
20
44.729999999999052
10
158.05718499692205
20
42.189999999999358
0
LWPOLYLINE
5
132
100
AcDbEntity
8
0
100
AcDbPolyline
90
4
70
1
43
0.0
10
124.72385166358873
20
44.72999999999908
10
124.72385166358873
20
42.189999999999387
10
141.39051833025536
20
42.189999999999372
10
141.39051833025536
20
44.729999999999066
0
LWPOLYLINE
5
133
100
AcDbEntity
8
0
100
AcDbPolyline
90
4
70
1
43
0.0
10
-174.72385166358873
20
44.729999999999208
10
-174.72385166358873
20
42.189999999999515
10
-158.05718499692208
20
42.189999999999515
10
-158.05718499692208
20
44.729999999999208
0
LWPOLYLINE
5
134
100
AcDbEntity
8
0
100
AcDbPolyline
90
4
70
1
43
0.0
10
-141.39051833025542
20
44.729999999999208
10
-141.39051833025542
20
42.189999999999515
10
-124.72385166358875
20
42.189999999999515
10
-124.72385166358875
20
44.729999999999208
0
LWPOLYLINE
5
135
100
AcDbEntity
8
0
100
AcDbPolyline
90
4
70
1
43
0.0
10
-158.05718499692208
20
62.1899999999995
10
-158.05718499692208
20
64.729999999999208
10
-174.72385166358873
20
64.729999999999208
10
-174.72385166358873
20
62.1899999999995
0
LWPOLYLINE
5
136
100
AcDbEntity
8
0
100
AcDbPolyline
90
4
70
1
43
0.0
10
-124.72385166358873
20
62.1899999999995
10
-124.72385166358873
20
64.729999999999208
10
-141.39051833025539
20
64.729999999999208
10
-141.39051833025539
20
62.1899999999995
0
LWPOLYLINE
5
137
100
AcDbEntity
8
0
100
AcDbPolyline
90
4
70
1
43
0.0
10
-141.39051833025542
20
24.729999999999208
10
-141.39051833025542
20
22.189999999999515
10
-124.72385166358875
20
22.189999999999515
10
-124.72385166358875
20
24.729999999999208
0
LWPOLYLINE
5
138
100
AcDbEntity
8
0
100
AcDbPolyline
90
4
70
1
43
0.0
10
-174.72385166358873
20
24.729999999999208
10
-174.72385166358873
20
22.189999999999515
10
-158.05718499692208
20
22.189999999999515
10
-158.05718499692208
20
24.729999999999208
0
LWPOLYLINE
5
139
100
AcDbEntity
8
0
100
AcDbPolyline
90
4
70
1
43
0.0
10
124.72385166358873
20
24.729999999999084
10
124.72385166358873
20
22.18999999999939
10
141.39051833025536
20
22.189999999999372
10
141.39051833025536
20
24.729999999999066
0
LWPOLYLINE
5
140
100
AcDbEntity
8
0
100
AcDbPolyline
90
4
70
1
43
0.0
10
174.72385166358865
20
22.189999999999337
10
174.72385166358865
20
24.729999999999031
10
158.05718499692205
20
24.729999999999048
10
158.05718499692205
20
22.189999999999355
0
LWPOLYLINE
5
141
100
AcDbEntity
8
0
100
AcDbPolyline
90
4
70
1
43
0.0
10
-174.72385166358876
20
-0.35000000000062315
10
-158.05718499692208
20
-0.35000000000062315
10
-158.05718499692208
20
2.1899999999993724
10
-174.72385166358876
20
2.1899999999993724
0
LWPOLYLINE
5
142
100
AcDbEntity
8
0
100
AcDbPolyline
90
4
70
1
43
0.0
10
-141.39051833025542
20
-0.35000000000062315
10
-124.72385166358876
20
-0.35000000000062315
10
-124.72385166358876
20
2.1899999999993724
10
-141.39051833025542
20
2.1899999999993724
0
LWPOLYLINE
5
143
100
AcDbEntity
8
0
100
AcDbPolyline
90
4
70
1
43
0.0
10
-92.211218505859591
20
-0.35000000000062315
10
-72.211218505859591
20
-0.35000000000062315
10
-72.211218505859591
20
2.1899999999993724
10
-92.211218505859591
20
2.1899999999993636
0
LWPOLYLINE
5
144
100
AcDbEntity
8
0
100
AcDbPolyline
90
4
70
1
43
0.0
10
-36.78921850585958
20
-0.35000000000062315
10
-16.78921850585958
20
-0.35000000000062315
10
-16.78921850585958
20
2.1899999999993724
10
-36.78921850585958
20
2.1899999999993636
0
LWPOLYLINE
5
145
100
AcDbEntity
8
0
100
AcDbPolyline
90
4
70
1
43
0.0
10
16.789218505859509
20
-0.35000000000064091
10
36.789218505859509
20
-0.35000000000065867
10
36.789218505859509
20
2.189999999999328
10
16.789218505859509
20
2.1899999999993547
0
LWPOLYLINE
5
146
100
AcDbEntity
8
0
100
AcDbPolyline
90
4
70
1
43
0.0
10
72.21121850585952
20
-0.3500000000006942
10
92.21121850585952
20
-0.35000000000072085
10
92.21121850585952
20
2.1899999999992836
10
72.21121850585952
20
2.1899999999993014
0
LWPOLYLINE
5
147
100
AcDbEntity
8
0
100
AcDbPolyline
90
4
70
1
43
0.0
10
124.72385166358869
20
-0.35000000000074749
10
141.39051833025533
20
-0.35000000000076525
10
141.39051833025533
20
2.1899999999992303
10
124.72385166358869
20
2.1899999999992481
0
LWPOLYLINE
5
148
100
AcDbEntity
8
0
100
AcDbPolyline
90
4
70
1
43
0.0
10
158.05718499692202
20
-0.35000000000078302
10
174.72385166358868
20
-0.35000000000080078
10
174.72385166358868
20
2.1899999999991948
10
158.05718499692202
20
2.1899999999992126
0
LWPOLYLINE
5
149
100
AcDbEntity
8
0
100
AcDbPolyline
90
68
70
1
43
0.0
10
-141.26351833025538
20
72.857000000000525
10
-124.85085166358873
20
72.857000000000525
10
-124.85085166358873
20
77.937000000000523
10
-92.084218505859567
20
77.937000000000523
10
-92.084218505859582
20
72.857000000000525
10
-72.338218505859587
20
72.857000000000525
10
-72.338218505859587
20
77.937000000000523
10
-36.662218505859578
20
77.937000000000523
10
-36.662218505859578
20
72.857000000000525
10
-16.916218505859579
20
72.857000000000525
10
-16.916218505859579
20
77.937000000000523
10
16.916218505859579
20
77.937000000000523
10
16.916218505859579
20
72.857000000000511
10
36.662218505859578
20
72.857000000000497
10
36.662218505859578
20
77.937000000000481
10
72.338218505859587
20
77.937000000000452
10
72.338218505859587
20
72.857000000000454
10
92.084218505859582
20
72.85700000000044
10
92.084218505859553
20
77.937000000000424
10
124.85085166358873
20
77.937000000000396
10
124.85085166358873
20
72.857000000000397
10
141.26351833025535
20
72.857000000000383
10
141.26351833025535
20
77.937000000000381
10
158.18418499692206
20
77.937000000000353
10
158.18418499692206
20
72.857000000000369
10
174.59685166358872
20
72.857000000000355
10
174.59685166358872
20
77.937000000000339
10
191.62700000000001
20
77.937000000000523
10
191.62700000000004
20
64.602999999999014
10
189.08700000000007
20
64.602999999999028
10
189.08700000000007
20
42.316999999999318
10
191.62700000000004
20
42.316999999999318
10
191.62699999999998
20
24.60299999999901
10
189.08699999999999
20
24.602999999999028
10
189.08699999999999
20
-0.22300000000081008
10
191.62699999999998
20
-0.22300000000081699
10
191.62699999999998
20
-22.397000000001018
10
189.08699999999999
20
-22.397000000001018
10
189.08699999999993
20
-46.065000000000687
10
191.6269999999999
20
-46.065000000000687
10
191.62700000000004
20
-57.937000000000516
10
189.08699999999999
20
-57.937000000000516
10
189.08699999999999
20
-72.683000000000519
10
191.62700000000004
20
-72.683000000000519
10
191.62700000000007
20
-77.937000000000523
10
-191.62700000000007
20
-77.937000000000495
10
-191.62700000000004
20
-72.683000000000519
10
-189.08700000000007
20
-72.683000000000519
10
-189.08700000000007
20
-57.937000000000516
10
-191.62700000000004
20
-57.937000000000516
10
-191.62700000000004
20
-46.065000000000502
10
-189.08700000000007
20
-46.065000000000502
10
-189.08700000000007
20
-22.397000000000812
10
-191.62700000000004
20
-22.397000000000812
10
-191.62700000000004
20
-0.22300000000062312
10
-189.08700000000007
20
-0.22300000000062159
10
-189.08700000000007
20
24.602999999999206
10
-191.62700000000004
20
24.602999999999206
10
-191.62700000000004
20
42.31699999999951
10
-189.08700000000007
20
42.31699999999951
10
-189.08700000000007
20
64.602999999999213
10
-191.62700000000004
20
64.602999999999213
10
-191.62700000000007
20
77.937000000000523
10
-174.59685166358872
20
77.937000000000523
10
-174.59685166358872
20
72.857000000000525
10
-158.18418499692206
20
72.857000000000525
10
-158.18418499692206
20
77.937000000000523
10
-141.26351833025538
20
77.937000000000523
0
LWPOLYLINE
5
150
100
AcDbEntity
8
0
100
AcDbPolyline
90
4
70
1
43
0.0
10
-174.59685166358872
20
62.316999999999496
10
-158.18418499692208
20
62.316999999999496
10
-158.18418499692208
20
64.602999999999213
10
-174.59685166358872
20
64.602999999999213
0
LWPOLYLINE
5
151
100
AcDbEntity
8
0
100
AcDbPolyline
90
4
70
1
43
0.0
10
-141.26351833025538
20
62.316999999999496
10
-124.85085166358873
20
62.316999999999496
10
-124.85085166358873
20
64.602999999999213
10
-141.26351833025538
20
64.602999999999213
0
LWPOLYLINE
5
152
100
AcDbEntity
8
0
100
AcDbPolyline
90
4
70
1
43
0.0
10
-174.59685166358872
20
42.31699999999951
10
-158.18418499692208
20
42.31699999999951
10
-158.18418499692208
20
44.602999999999213
10
-174.59685166358872
20
44.602999999999213
0
LWPOLYLINE
5
153
100
AcDbEntity
8
0
100
AcDbPolyline
90
4
70
1
43
0.0
10
-141.26351833025541
20
42.31699999999951
10
-124.85085166358874
20
42.31699999999951
10
-124.85085166358874
20
44.602999999999213
10
-141.26351833025541
20
44.602999999999213
0
LWPOLYLINE
5
154
100
AcDbEntity
8
0
100
AcDbPolyline
90
4
70
1
43
0.0
10
-174.59685166358872
20
22.316999999999517
10
-158.18418499692208
20
22.316999999999517
10
-158.18418499692208
20
24.602999999999206
10
-174.59685166358872
20
24.602999999999206
0
LWPOLYLINE
5
155
100
AcDbEntity
8
0
100
AcDbPolyline
90
4
70
1
43
0.0
10
-141.26351833025541
20
22.316999999999517
10
-124.85085166358874
20
22.316999999999517
10
-124.85085166358874
20
24.602999999999206
10
-141.26351833025541
20
24.602999999999206
0
LWPOLYLINE
5
156
100
AcDbEntity
8
0
100
AcDbPolyline
90
4
70
1
43
0.0
10
-174.59685166358878
20
-0.22300000000062312
10
-158.18418499692208
20
-0.22300000000062326
10
-158.18418499692208
20
2.0629999999993727
10
-174.59685166358878
20
2.0629999999993727
0
LWPOLYLINE
5
157
100
AcDbEntity
8
0
100
AcDbPolyline
90
4
70
1
43
0.0
10
-141.26351833025541
20
-0.22300000000062312
10
-124.85085166358877
20
-0.22300000000062326
10
-124.85085166358877
20
2.0629999999993727
10
-141.26351833025541
20
2.0629999999993727
0
LWPOLYLINE
5
158
100
AcDbEntity
8
0
100
AcDbPolyline
90
4
70
1
43
0.0
10
-174.59685166358878
20
-24.683000000000494
10
-158.18418499692211
20
-24.683000000000494
10
-158.18418499692211
20
-22.397000000000805
10
-174.59685166358878
20
-22.397000000000805
0
LWPOLYLINE
5
159
100
AcDbEntity
8
0
100
AcDbPolyline
90
4
70
1
43
0.0
10
-141.26351833025541
20
-24.683000000000511
10
-124.85085166358877
20
-24.683000000000511
10
-124.85085166358877
20
-22.397000000000805
10
-141.26351833025541
20
-22.397000000000805
0
LWPOLYLINE
5
160
100
AcDbEntity
8
0
100
AcDbPolyline
90
4
70
1
43
0.0
10
-174.59685166358878
20
-46.065000000000502
10
-158.18418499692211
20
-46.065000000000502
10
-158.18418499692211
20
-43.779000000000977
10
-174.59685166358878
20
-43.779000000000977
0
LWPOLYLINE
5
161
100
AcDbEntity
8
0
100
AcDbPolyline
90
4
70
1
43
0.0
10
-141.26351833025541
20
-46.065000000000502
10
-124.85085166358877
20
-46.065000000000502
10
-124.85085166358877
20
-43.77900000000097
10
-141.26351833025541
20
-43.77900000000097
0
LWPOLYLINE
5
162
100
AcDbEntity
8
0
100
AcDbPolyline
90
4
70
1
43
0.0
10
-111.06521850585958
20
-12.128000000000771
10
-111.06521850585958
20
-31.874000000000766
10
-108.7792185058596
20
-31.874000000000766
10
-108.7792185058596
20
-12.12800000000078
0
LWPOLYLINE
5
163
100
AcDbEntity
8
0
100
AcDbPolyline
90
4
70
1
43
0.0
10
-92.084218505859567
20
-46.065000000000623
10
-72.338218505860013
20
-46.065000000000666
10
-72.338218505859615
20
-43.77900000000092
10
-92.084218505859582
20
-43.77900000000092
0
LWPOLYLINE
5
164
100
AcDbEntity
8
0
100
AcDbPolyline
90
4
70
1
43
0.0
10
-92.084218505859582
20
-0.22300000000062312
10
-72.338218505859587
20
-0.22300000000062298
10
-72.338218505859587
20
2.0629999999993727
10
-92.084218505859582
20
2.0629999999993638
0
LWPOLYLINE
5
165
100
AcDbEntity
8
0
100
AcDbPolyline
90
4
70
1
43
0.0
10
-53.357218505859578
20
-31.874000000000766
10
-53.357218505859578
20
-12.128000000000771
10
-55.643218505859579
20
-12.128000000000771
10
-55.643218505859579
20
-31.874000000000766
0
LWPOLYLINE
5
166
100
AcDbEntity
8
0
100
AcDbPolyline
90
4
70
1
43
0.0
10
-36.662218505859563
20
-46.065000000000637
10
-16.916218505860002
20
-46.065000000000666
10
-16.9162185058596
20
-43.77900000000092
10
-36.662218505859578
20
-43.77900000000092
0
LWPOLYLINE
5
167
100
AcDbEntity
8
0
100
AcDbPolyline
90
4
70
1
43
0.0
10
-36.662218505859578
20
-0.22300000000062312
10
-16.916218505859579
20
-0.22300000000062298
10
-16.916218505859579
20
2.0629999999993727
10
-36.662218505859578
20
2.0629999999993638
0
LWPOLYLINE
5
168
100
AcDbEntity
8
0
100
AcDbPolyline
90
4
70
1
43
0.0
10
1.6427814941404391
20
-31.874000000000766
10
1.6427814941404391
20
-12.128000000000771
10
-0.64321850585957452
20
-12.128000000000771
10
-0.64321850585957463
20
-31.874000000000766
0
LWPOLYLINE
5
169
100
AcDbEntity
8
0
100
AcDbPolyline
90
4
70
1
43
0.0
10
-111.06521850585958
20
-57.937000000000516
10
-111.06521850585958
20
-72.683000000000519
10
-108.7792185058596
20
-72.683000000000519
10
-108.7792185058596
20
-57.937000000000516
0
LWPOLYLINE
5
170
100
AcDbEntity
8
0
100
AcDbPolyline
90
4
70
1
43
0.0
10
-0.64321850585957452
20
-57.937000000000516
10
-0.64321850585957463
20
-72.683000000000519
10
1.6427814941404035
20
-72.683000000000519
10
1.6427814941404035
20
-57.937000000000516
0
LINE
5
171
100
AcDbEntity
8
0
100
AcDbLine
10
-16.78921850585958
20
2.1899999999993724
30
0
11
16.789218505859509
21
2.1899999999993547
31
0
0
LINE
5
172
100
AcDbEntity
8
0
100
AcDbLine
10
-3.5527136788005009e-14
20
2.1899999999993636
30
0
11
-3.5527136788005009e-14
21
11.106486424710402
31
0
0
LWPOLYLINE
5
173
100
AcDbEntity
8
0
100
AcDbPolyline
90
4
70
1
43
0.0
10
158.05718499692202
20
-0.35000000000062315
10
158.05718499692202
20
2.1899999999993724
10
174.72385166358868
20
2.1899999999993724
10
174.72385166358868
20
-0.35000000000062315
0
LWPOLYLINE
5
174
100
AcDbEntity
8
0
100
AcDbPolyline
90
4
70
1
43
0.0
10
158.18418499692203
20
2.0629999999993727
10
174.59685166358869
20
2.0629999999993727
10
174.59685166358869
20
-0.22300000000062312
10
158.18418499692203
20
-0.22300000000062326
0
LWPOLYLINE
5
175
100
AcDbEntity
8
0
100
AcDbPolyline
90
4
70
1
43
0.0
10
158.18418499692208
20
62.316999999999496
10
158.18418499692208
20
64.602999999999213
10
174.59685166358872
20
64.602999999999213
10
174.59685166358872
20
62.316999999999496
0
LWPOLYLINE
5
176
100
AcDbEntity
8
0
100
AcDbPolyline
90
4
70
1
43
0.0
10
174.59685166358864
20
-43.779000000000977
10
174.59685166358864
20
-46.065000000000502
10
158.18418499692197
20
-46.065000000000502
10
158.18418499692197
20
-43.779000000000977
0
LWPOLYLINE
5
177
100
AcDbEntity
8
0
100
AcDbPolyline
90
4
70
1
43
0.0
10
124.72385166358865
20
64.729999999999208
10
141.3905183302553
20
64.729999999999208
10
141.3905183302553
20
62.1899999999995
10
124.72385166358865
20
62.1899999999995
0
LWPOLYLINE
5
178
100
AcDbEntity
8
0
100
AcDbPolyline
90
4
70
1
43
0.0
10
141.26351833025538
20
62.316999999999496
10
124.85085166358873
20
62.316999999999496
10
124.85085166358873
20
64.602999999999213
10
141.26351833025538
20
64.602999999999213
0
LWPOLYLINE
5
179
100
AcDbEntity
8
0
100
AcDbPolyline
90
4
70
1
43
0.0
10
158.184184996922
20
-24.683000000000494
10
158.184184996922
20
-22.397000000000805
10
174.59685166358869
20
-22.397000000000805
10
174.59685166358869
20
-24.683000000000494
0
LWPOLYLINE
5
180
100
AcDbEntity
8
0
100
AcDbPolyline
90
4
70
1
43
0.0
10
174.72385166358868
20
-43.652000000000982
10
174.72385166358868
20
-46.192000000000498
10
158.05718499692202
20
-46.192000000000498
10
158.05718499692202
20
-43.652000000000982
0
LWPOLYLINE
5
181
100
AcDbEntity
8
0
100
AcDbPolyline
90
4
70
1
43
0.0
10
158.05718499692202
20
42.189999999999515
10
158.05718499692202
20
44.729999999999208
10
174.72385166358865
20
44.729999999999208
10
174.72385166358865
20
42.189999999999515
0
LWPOLYLINE
5
182
100
AcDbEntity
8
0
100
AcDbPolyline
90
4
70
1
43
0.0
10
141.26351833025535
20
22.316999999999517
10
124.85085166358871
20
22.316999999999517
10
124.85085166358871
20
24.602999999999206
10
141.26351833025535
20
24.602999999999206
0
LWPOLYLINE
5
183
100
AcDbEntity
8
0
100
AcDbPolyline
90
4
70
1
43
0.0
10
124.8508516635887
20
-0.22300000000062326
10
124.8508516635887
20
2.0629999999993727
10
141.26351833025532
20
2.0629999999993727
10
141.26351833025532
20
-0.22300000000062312
0
LWPOLYLINE
5
184
100
AcDbEntity
8
0
100
AcDbPolyline
90
4
70
1
43
0.0
10
158.18418499692206
20
44.602999999999213
10
174.59685166358872
20
44.602999999999213
10
174.59685166358872
20
42.31699999999951
10
158.18418499692206
20
42.31699999999951
0
LWPOLYLINE
5
185
100
AcDbEntity
8
0
100
AcDbPolyline
90
4
70
1
43
0.0
10
124.85085166358866
20
-24.683000000000511
10
124.85085166358866
20
-22.397000000000805
10
141.26351833025529
20
-22.397000000000805
10
141.26351833025529
20
-24.683000000000511
0
LWPOLYLINE
5
186
100
AcDbEntity
8
0
100
AcDbPolyline
90
4
70
1
43
0.0
10
141.26351833025535
20
44.602999999999213
10
141.26351833025535
20
42.31699999999951
10
124.85085166358871
20
42.31699999999951
10
124.85085166358871
20
44.602999999999213
0
LWPOLYLINE
5
187
100
AcDbEntity
8
0
100
AcDbPolyline
90
4
70
1
43
0.0
10
158.05718499692202
20
22.189999999999515
10
158.05718499692202
20
24.729999999999208
10
174.72385166358865
20
24.729999999999208
10
174.72385166358865
20
22.189999999999515
0
LWPOLYLINE
5
188
100
AcDbEntity
8
0
100
AcDbPolyline
90
4
70
1
43
0.0
10
141.39051833025533
20
22.189999999999515
10
124.72385166358868
20
22.189999999999515
10
124.72385166358868
20
24.729999999999208
10
141.39051833025533
20
24.729999999999208
0
LWPOLYLINE
5
189
100
AcDbEntity
8
0
100
AcDbPolyline
90
4
70
1
43
0.0
10
174.59685166358867
20
22.316999999999517
10
158.18418499692206
20
22.316999999999517
10
158.18418499692206
20
24.602999999999206
10
174.59685166358867
20
24.602999999999206
0
LWPOLYLINE
5
190
100
AcDbEntity
8
0
100
AcDbPolyline
90
4
70
1
43
0.0
10
141.26351833025527
20
-46.065000000000502
10
124.85085166358863
20
-46.065000000000502
10
124.85085166358863
20
-43.77900000000097
10
141.26351833025529
20
-43.77900000000097
0
LWPOLYLINE
5
191
100
AcDbEntity
8
0
100
AcDbPolyline
90
4
70
1
43
0.0
10
124.72385166358869
20
-43.652000000000974
10
141.39051833025536
20
-43.652000000000974
10
141.39051833025536
20
-46.192000000000498
10
124.72385166358869
20
-46.192000000000498
0
LWPOLYLINE
5
192
100
AcDbEntity
8
0
100
AcDbPolyline
90
4
70
1
43
0.0
10
124.72385166358869
20
-0.35000000000062315
10
124.72385166358869
20
2.1899999999993724
10
141.39051833025533
20
2.1899999999993724
10
141.39051833025533
20
-0.35000000000062315
0
LWPOLYLINE
5
193
100
AcDbEntity
8
0
100
AcDbPolyline
90
4
70
1
43
0.0
10
124.72385166358869
20
-24.810000000000514
10
124.72385166358869
20
-22.270000000000802
10
141.39051833025536
20
-22.270000000000802
10
141.39051833025536
20
-24.810000000000514
0
LWPOLYLINE
5
194
100
AcDbEntity
8
0
100
AcDbPolyline
90
4
70
1
43
0.0
10
124.72385166358868
20
42.189999999999515
10
124.72385166358868
20
44.729999999999208
10
141.39051833025533
20
44.729999999999208
10
141.39051833025533
20
42.189999999999515
0
LWPOLYLINE
5
195
100
AcDbEntity
8
0
100
AcDbPolyline
90
4
70
1
43
0.0
10
158.05718499692202
20
-22.270000000000802
10
174.72385166358868
20
-22.270000000000802
10
174.72385166358868
20
-24.810000000000496
10
158.05718499692202
20
-24.810000000000496
0
LWPOLYLINE
5
196
100
AcDbEntity
8
0
100
AcDbPolyline
90
4
70
1
43
0.0
10
174.72385166358865
20
64.729999999999208
10
174.72385166358865
20
62.1899999999995
10
158.05718499692202
20
62.1899999999995
10
158.05718499692202
20
64.729999999999208
0
LWPOLYLINE
5
197
100
AcDbEntity
8
0
100
AcDbPolyline
90
4
70
1
43
0.0
10
72.21121850585952
20
2.1899999999993724
10
92.21121850585952
20
2.1899999999993636
10
92.21121850585952
20
-0.35000000000062315
10
72.21121850585952
20
-0.35000000000062315
0
LWPOLYLINE
5
198
100
AcDbEntity
8
0
100
AcDbPolyline
90
4
70
1
43
0.0
10
92.084218505859511
20
-0.22300000000062312
10
72.338218505859516
20
-0.22300000000062298
10
72.338218505859516
20
2.0629999999993727
10
92.084218505859511
20
2.0629999999993638
0
LWPOLYLINE
5
199
100
AcDbEntity
8
0
100
AcDbPolyline
90
4
70
1
43
0.0
10
72.338218505859487
20
-43.77900000000092
10
92.084218505859482
20
-43.77900000000092
10
92.084218505859425
20
-46.065000000000623
10
72.338218505859885
20
-46.065000000000666
0
LWPOLYLINE
5
200
100
AcDbEntity
8
0
100
AcDbPolyline
90
4
70
1
43
0.0
10
72.21121850585952
20
-43.652000000000925
10
92.21121850585952
20
-43.652000000000925
10
92.211218505859506
20
-46.192000000000625
10
72.211218505859961
20
-46.192000000000661
0
LWPOLYLINE
5
201
100
AcDbEntity
8
0
100
AcDbPolyline
90
4
70
1
43
0.0
10
16.789218505859509
20
-43.652000000000925
10
36.789218505859509
20
-43.652000000000925
10
36.789218505859495
20
-46.192000000000633
10
16.789218505859953
20
-46.192000000000661
0
LWPOLYLINE
5
202
100
AcDbEntity
8
0
100
AcDbPolyline
90
4
70
1
43
0.0
10
36.789218505859509
20
2.1899999999993636
10
36.789218505859509
20
-0.35000000000062315
10
16.789218505859509
20
-0.35000000000062315
10
16.789218505859509
20
2.1899999999993724
0
LWPOLYLINE
5
203
100
AcDbEntity
8
0
100
AcDbPolyline
90
4
70
1
43
0.0
10
36.662218505859443
20
-46.065000000000637
10
16.916218505859874
20
-46.065000000000666
10
16.916218505859472
20
-43.77900000000092
10
36.662218505859457
20
-43.77900000000092
0
LWPOLYLINE
5
204
100
AcDbEntity
8
0
100
AcDbPolyline
90
4
70
1
43
0.0
10
16.916218505859504
20
-0.22300000000062298
10
16.916218505859508
20
2.0629999999993727
10
36.662218505859506
20
2.0629999999993638
10
36.662218505859506
20
-0.22300000000062312
0
LWPOLYLINE
5
205
100
AcDbEntity
8
0
100
AcDbPolyline
90
4
70
1
43
0.0
10
56.643218505859132
20
-31.874000000000766
10
56.643218505859132
20
-12.128000000000771
10
54.357218505859073
20
-12.128000000000771
10
54.357218505859073
20
-31.874000000000763
0
LWPOLYLINE
5
206
100
AcDbEntity
8
0
100
AcDbPolyline
90
4
70
1
43
0.0
10
109.77921850585909
20
-12.128000000000771
10
109.77921850585909
20
-31.874000000000763
10
112.06521850585909
20
-31.87400000000077
10
112.06521850585909
20
-12.128000000000771
0
LWPOLYLINE
5
207
100
AcDbEntity
8
0
100
AcDbPolyline
90
4
70
1
43
0.0
10
109.77921850585909
20
-57.937000000000516
10
109.77921850585909
20
-72.683000000000519
10
112.06521850585909
20
-72.683000000000519
10
112.06521850585909
20
-57.937000000000516
0
ENDSEC
0
SECTION
2
OBJECTS
0
DICTIONARY
5
C
100
AcDbDictionary
3
ACAD_GROUP
350
D
3
ACAD_MLINESTYLE
350
17
0
DICTIONARY
5
D
100
AcDbDictionary
0
DICTIONARY
5
1A
330
C
100
AcDbDictionary
0
DICTIONARY
5
17
100
AcDbDictionary
0
ENDSEC
0
EOF
