0
SECTION
2
HEADER
9
$INSUNITS
70
4
9
$ACADVER
1
AC1014
9
$HANDSEED
5
FFFF
0
ENDSEC
0
SECTION
2
TABLES
0
TABLE
2
VPORT
5
8
100
AcDbSymbolTable
0
ENDTAB
0
TABLE
2
LTYPE
5
5
100
AcDbSymbolTable
0
LTYPE
5
14
100
AcDbSymbolTableRecord
100
AcDbLinetypeTableRecord
2
BYBLOCK
70
0
0
LTYPE
5
15
100
AcDbSymbolTableRecord
100
AcDbLinetypeTableRecord
2
BYLAYER
70
0
0
ENDTAB
0
TABLE
2
LAYER
5
2
100
AcDbSymbolTable
70
2
0
LAYER
5
50
100
AcDbSymbolTableRecord
100
AcDbLayerTableRecord
2
0
70
0
6
CONTINUOUS
0
ENDTAB
0
TABLE
2
STYLE
5
3
100
AcDbSymbolTable
70
1
0
STYLE
5
11
100
AcDbSymbolTableRecord
100
AcDbTextStyleTableRecord
2
STANDARD
70
0
0
ENDTAB
0
TABLE
2
VIEW
5
6
100
AcDbSymbolTable
70
0
0
ENDTAB
0
TABLE
2
UCS
5
7
100
AcDbSymbolTable
70
0
0
ENDTAB
0
TABLE
2
APPID
5
9
100
AcDbSymbolTable
70
2
0
APPID
5
12
100
AcDbSymbolTableRecord
100
AcDbRegAppTableRecord
2
ACAD
70
0
0
ENDTAB
0
TABLE
2
DIMSTYLE
5
A
100
AcDbSymbolTable
70
1
0
ENDTAB
0
TABLE
2
BLOCK_RECORD
5
1
100
AcDbSymbolTable
70
1
0
BLOCK_RECORD
5
1F
100
AcDbSymbolTableRecord
100
AcDbBlockTableRecord
2
*MODEL_SPACE
0
BLOCK_RECORD
5
1B
100
AcDbSymbolTableRecord
100
AcDbBlockTableRecord
2
*PAPER_SPACE
0
ENDTAB
0
ENDSEC
0
SECTION
2
BLOCKS
0
BLOCK
5
20
100
AcDbEntity
100
AcDbBlockBegin
2
*MODEL_SPACE
0
ENDBLK
5
21
100
AcDbEntity
100
AcDbBlockEnd
0
BLOCK
5
1C
100
AcDbEntity
100
AcDbBlockBegin
2
*PAPER_SPACE
0
ENDBLK
5
1D
100
AcDbEntity
100
AcDbBlockEnd
0
ENDSEC
0
SECTION
2
ENTITIES
0
LWPOLYLINE
5
100
100
AcDbEntity
8
0
100
AcDbPolyline
90
64
70
1
43
0.0
10
53.730218505859355
20
9.9060573364232152
10
53.730218505859355
20
-0.093942663576784824
10
56.270218505859347
20
-0.093942663576784824
10
56.270218505859368
20
9.9060573364232152
10
62.711244143198414
20
9.9060573364232152
10
62.711244143198414
20
12.446057336423216
10
77.71124414396229
20
12.446057336423216
10
77.711244143962332
20
9.9060573364232152
10
87.711244144471607
20
9.9060573364232152
10
87.711244144471578
20
12.446057336423216
10
102.71124414523544
20
12.446057336423216
10
102.71124414523544
20
9.9060573364232152
10
109.15221850585934
20
9.9060573364232152
10
109.15221850585934
20
-9.9060573364232152
10
91.711218505859733
20
-9.9060573364232152
10
91.711218505859733
20
-12.446057336423216
10
71.71121850586016
20
-12.446057336423216
10
71.71121850586016
20
-9.9060573364232152
10
36.289218505859679
20
-9.9060573364232152
10
36.289218505859679
20
-12.446057336423216
10
16.289218505860141
20
-12.446057336423216
10
16.289218505860141
20
-9.9060573364232152
10
-17.289218505859782
20
-9.9060573364232152
10
-17.289218505859782
20
-12.446057336423216
10
-37.289218505859324
20
-12.446057336423216
10
-37.289218505859324
20
-9.9060573364232152
10
-72.71121850585979
20
-9.9060573364232152
10
-72.71121850585979
20
-12.446057336423216
10
-92.711218505859335
20
-12.446057336423216
10
-92.711218505859335
20
-9.9060573364232152
10
-109.15221850585934
20
-9.9060573364232152
10
-109.15221850585934
20
9.9060573364232152
10
-102.71121850585934
20
9.9060573364232152
10
-102.71121850585934
20
12.446057336423216
10
-87.711218505859335
20
12.446057336423216
10
-87.711218505859335
20
9.9060573364232152
10
-77.711218505859335
20
9.9060573364232152
10
-77.711218505859335
20
12.446057336423216
10
-62.711218505859335
20
12.446057336423216
10
-62.711218505859335
20
9.9060573364232152
10
-56.270218505859347
20
9.9060573364232152
10
-56.270218505859333
20
-0.093942663576784824
10
-53.730218505859341
20
-0.093942663576784824
10
-53.730218505859341
20
9.9060573364232152
10
-47.500218505859365
20
9.9060573364232152
10
-47.500218505859365
20
12.446057336423216
10
-32.500218505859365
20
12.446057336423216
10
-32.500218505859365
20
9.9060573364232152
10
-22.500218505859362
20
9.9060573364232152
10
-22.500218505859362
20
12.446057336423216
10
-7.5002185058593618
20
12.446057336423216
10
-7.5002185058593618
20
9.9060573364232152
10
-1.2702185058593329
20
9.9060573364232152
10
-1.2702185058593152
20
-0.093942663576784824
10
1.2697814941406627
20
-0.093942663576784824
10
1.2697814941406627
20
9.9060573364232152
10
7.5002441403867515
20
9.9060573364232152
10
7.5002441403867515
20
12.446057336423216
10
22.500244141150656
20
12.446057336423216
10
22.500244141150674
20
9.9060573364232152
10
32.50024414165992
20
9.9060573364232152
10
32.50024414165992
20
12.446057336423216
10
47.500244142423789
20
12.446057336423216
10
47.500244142423789
20
9.9060573364232152
0
LWPOLYLINE
5
101
100
AcDbEntity
8
0
100
AcDbPolyline
90
64
70
1
43
0.0
10
91.965218505859724
20
-12.700057336423216
10
71.457218505860155
20
-12.700057336423216
10
71.457218505860155
20
-10.160057336423217
10
36.543218505859677
20
-10.160057336423217
10
36.54321850585967
20
-12.700057336423216
10
16.03521850586014
20
-12.700057336423216
10
16.035218505860136
20
-10.160057336423217
10
-17.035218505859781
20
-10.160057336423217
10
-17.035218505859785
20
-12.700057336423216
10
-37.543218505859322
20
-12.700057336423216
10
-37.543218505859322
20
-10.160057336423217
10
-72.457218505859785
20
-10.160057336423217
10
-72.457218505859785
20
-12.700057336423216
10
-92.965218505859326
20
-12.700057336423216
10
-92.965218505859326
20
-10.160057336423217
10
-109.40621850585933
20
-10.160057336423217
10
-109.40621850585933
20
10.160057336423217
10
-102.96521850585933
20
10.160057336423217
10
-102.96521850585933
20
12.700057336423216
10
-87.457218505859345
20
12.700057336423216
10
-87.457218505859345
20
10.160057336423217
10
-77.96521850585934
20
10.160057336423217
10
-77.96521850585934
20
12.700057336423216
10
-62.457218505859331
20
12.700057336423216
10
-62.457218505859331
20
10.160057336423217
10
-56.016218505859349
20
10.160057336423217
10
-56.016218505859328
20
0.16005733642321521
10
-53.984218505859339
20
0.16005733642321607
10
-53.984218505859339
20
10.160057336423217
10
-47.754218505859363
20
10.160057336423217
10
-47.754218505859363
20
12.700057336423216
10
-32.24621850585936
20
12.700057336423216
10
-32.24621850585936
20
10.160057336423217
10
-22.75421850585936
20
10.160057336423217
10
-22.75421850585936
20
12.700057336423216
10
-7.2462185058593622
20
12.700057336423216
10
-7.2462185058593622
20
10.160057336423217
10
-1.0162185058593334
20
10.160057336423217
10
-1.0162185058593156
20
0.16005733642321521
10
1.0157814941406627
20
0.16005733642321607
10
1.0157814941406629
20
10.160057336423217
10
7.2462441403867519
20
10.160057336423217
10
7.2462441403867528
20
12.700057336423216
10
22.754244141150654
20
12.700057336423216
10
22.754244141150668
20
10.160057336423217
10
32.246244141659922
20
10.160057336423217
10
32.246244141659922
20
12.700057336423216
10
47.754244142423794
20
12.700057336423216
10
47.754244142423794
20
10.160057336423217
10
53.98421850585936
20
10.160057336423217
10
53.98421850585936
20
0.16005733642321521
10
56.016218505859349
20
0.16005733642321607
10
56.016218505859364
20
10.160057336423217
10
62.457244143198409
20
10.160057336423217
10
62.457244143198409
20
12.700057336423216
10
77.965244143962295
20
12.700057336423216
10
77.965244143962337
20
10.160057336423217
10
87.457244144471616
20
10.160057336423217
10
87.457244144471588
20
12.700057336423216
10
102.96524414523545
20
12.700057336423216
10
102.96524414523545
20
10.160057336423217
10
109.40621850585933
20
10.160057336423217
10
109.40621850585933
20
-10.160057336423217
10
91.965218505859724
20
-10.160057336423217
0
ENDSEC
0
SECTION
2
OBJECTS
0
DICTIONARY
5
C
100
AcDbDictionary
3
ACAD_GROUP
350
D
3
ACAD_MLINESTYLE
350
17
0
DICTIONARY
5
D
100
AcDbDictionary
0
DICTIONARY
5
1A
330
C
100
AcDbDictionary
0
DICTIONARY
5
17
100
AcDbDictionary
0
ENDSEC
0
EOF
