0
SECTION
2
HEADER
9
$INSUNITS
70
4
9
$ACADVER
1
AC1014
9
$HANDSEED
5
FFFF
0
ENDSEC
0
SECTION
2
TABLES
0
TABLE
2
VPORT
5
8
100
AcDbSymbolTable
0
ENDTAB
0
TABLE
2
LTYPE
5
5
100
AcDbSymbolTable
0
LTYPE
5
14
100
AcDbSymbolTableRecord
100
AcDbLinetypeTableRecord
2
BYBLOCK
70
0
0
LTYPE
5
15
100
AcDbSymbolTableRecord
100
AcDbLinetypeTableRecord
2
BYLAYER
70
0
0
ENDTAB
0
TABLE
2
LAYER
5
2
100
AcDbSymbolTable
70
2
0
LAYER
5
50
100
AcDbSymbolTableRecord
100
AcDbLayerTableRecord
2
0
70
0
6
CONTINUOUS
0
ENDTAB
0
TABLE
2
STYLE
5
3
100
AcDbSymbolTable
70
1
0
STYLE
5
11
100
AcDbSymbolTableRecord
100
AcDbTextStyleTableRecord
2
STANDARD
70
0
0
ENDTAB
0
TABLE
2
VIEW
5
6
100
AcDbSymbolTable
70
0
0
ENDTAB
0
TABLE
2
UCS
5
7
100
AcDbSymbolTable
70
0
0
ENDTAB
0
TABLE
2
APPID
5
9
100
AcDbSymbolTable
70
2
0
APPID
5
12
100
AcDbSymbolTableRecord
100
AcDbRegAppTableRecord
2
ACAD
70
0
0
ENDTAB
0
TABLE
2
DIMSTYLE
5
A
100
AcDbSymbolTable
70
1
0
ENDTAB
0
TABLE
2
BLOCK_RECORD
5
1
100
AcDbSymbolTable
70
1
0
BLOCK_RECORD
5
1F
100
AcDbSymbolTableRecord
100
AcDbBlockTableRecord
2
*MODEL_SPACE
0
BLOCK_RECORD
5
1B
100
AcDbSymbolTableRecord
100
AcDbBlockTableRecord
2
*PAPER_SPACE
0
ENDTAB
0
ENDSEC
0
SECTION
2
BLOCKS
0
BLOCK
5
20
100
AcDbEntity
100
AcDbBlockBegin
2
*MODEL_SPACE
0
ENDBLK
5
21
100
AcDbEntity
100
AcDbBlockEnd
0
BLOCK
5
1C
100
AcDbEntity
100
AcDbBlockBegin
2
*PAPER_SPACE
0
ENDBLK
5
1D
100
AcDbEntity
100
AcDbBlockEnd
0
ENDSEC
0
SECTION
2
ENTITIES
0
LWPOLYLINE
5
100
100
AcDbEntity
8
0
100
AcDbPolyline
90
18
70
1
43
0.0
10
-38.883890747070318
20
-20.906000000000006
10
-38.883890747070225
20
-0.90599999999999348
10
-41.423890747070224
20
-0.90599999999999348
10
-41.42389074707026
20
23.445999999999998
10
-39.647742410658623
20
23.445999999999998
42
0.92198976466757376
10
36.799960916517939
20
23.445999999999998
10
41.42389074707026
20
23.445999999999994
10
41.42389074707026
20
3.4461146728464254
10
38.883890747070261
20
3.4461146728464254
10
38.883890747070247
20
-20.906000000000006
10
25.352257589341072
20
-20.906000000000006
10
25.352257589341072
20
-23.446000000000005
10
8.685590922674411
20
-23.446000000000005
10
8.685590922674411
20
-20.906000000000006
10
-7.9810757439922675
20
-20.906000000000006
10
-7.9810757439922675
20
-23.446000000000005
10
-24.647742410658928
20
-23.446000000000005
10
-24.647742410658928
20
-20.906000000000006
0
LWPOLYLINE
5
101
100
AcDbEntity
8
0
100
AcDbPolyline
90
18
70
1
43
0.0
10
36.565053697333482
20
23.700000000000003
10
41.677890747070265
20
23.699999999999992
10
41.677890747070265
20
3.1921146728464258
10
39.137890747070259
20
3.1921146728464267
10
39.137890747070244
20
-21.160000000000004
10
25.60625758934107
20
-21.160000000000004
10
25.60625758934107
20
-23.700000000000006
10
8.4315909226744115
20
-23.700000000000006
10
8.4315909226744132
20
-21.160000000000004
10
-7.7270757439922679
20
-21.160000000000004
10
-7.7270757439922688
20
-23.700000000000006
10
-24.901742410658926
20
-23.700000000000006
10
-24.901742410658926
20
-21.160000000000004
10
-39.137890747070315
20
-21.160000000000004
10
-39.13789074707023
20
-1.1599999999999935
10
-41.677890747070229
20
-1.1599999999999921
10
-41.677890747070265
20
23.699999999999996
10
-39.412835191474187
20
23.699999999999996
42
0.92769095102329169
0
ENDSEC
0
SECTION
2
OBJECTS
0
DICTIONARY
5
C
100
AcDbDictionary
3
ACAD_GROUP
350
D
3
ACAD_MLINESTYLE
350
17
0
DICTIONARY
5
D
100
AcDbDictionary
0
DICTIONARY
5
1A
330
C
100
AcDbDictionary
0
DICTIONARY
5
17
100
AcDbDictionary
0
ENDSEC
0
EOF
