0
SECTION
2
HEADER
9
$INSUNITS
70
4
9
$ACADVER
1
AC1014
9
$HANDSEED
5
FFFF
0
ENDSEC
0
SECTION
2
TABLES
0
TABLE
2
VPORT
5
8
100
AcDbSymbolTable
0
ENDTAB
0
TABLE
2
LTYPE
5
5
100
AcDbSymbolTable
0
LTYPE
5
14
100
AcDbSymbolTableRecord
100
AcDbLinetypeTableRecord
2
BYBLOCK
70
0
0
LTYPE
5
15
100
AcDbSymbolTableRecord
100
AcDbLinetypeTableRecord
2
BYLAYER
70
0
0
ENDTAB
0
TABLE
2
LAYER
5
2
100
AcDbSymbolTable
70
2
0
LAYER
5
50
100
AcDbSymbolTableRecord
100
AcDbLayerTableRecord
2
0
70
0
6
CONTINUOUS
0
ENDTAB
0
TABLE
2
STYLE
5
3
100
AcDbSymbolTable
70
1
0
STYLE
5
11
100
AcDbSymbolTableRecord
100
AcDbTextStyleTableRecord
2
STANDARD
70
0
0
ENDTAB
0
TABLE
2
VIEW
5
6
100
AcDbSymbolTable
70
0
0
ENDTAB
0
TABLE
2
UCS
5
7
100
AcDbSymbolTable
70
0
0
ENDTAB
0
TABLE
2
APPID
5
9
100
AcDbSymbolTable
70
2
0
APPID
5
12
100
AcDbSymbolTableRecord
100
AcDbRegAppTableRecord
2
ACAD
70
0
0
ENDTAB
0
TABLE
2
DIMSTYLE
5
A
100
AcDbSymbolTable
70
1
0
ENDTAB
0
TABLE
2
BLOCK_RECORD
5
1
100
AcDbSymbolTable
70
1
0
BLOCK_RECORD
5
1F
100
AcDbSymbolTableRecord
100
AcDbBlockTableRecord
2
*MODEL_SPACE
0
BLOCK_RECORD
5
1B
100
AcDbSymbolTableRecord
100
AcDbBlockTableRecord
2
*PAPER_SPACE
0
ENDTAB
0
ENDSEC
0
SECTION
2
BLOCKS
0
BLOCK
5
20
100
AcDbEntity
100
AcDbBlockBegin
2
*MODEL_SPACE
0
ENDBLK
5
21
100
AcDbEntity
100
AcDbBlockEnd
0
BLOCK
5
1C
100
AcDbEntity
100
AcDbBlockBegin
2
*PAPER_SPACE
0
ENDBLK
5
1D
100
AcDbEntity
100
AcDbBlockEnd
0
ENDSEC
0
SECTION
2
ENTITIES
0
LWPOLYLINE
5
100
100
AcDbEntity
8
0
100
AcDbPolyline
90
52
70
1
43
0.0
10
188.96000000000004
20
47.5
10
188.96000000000004
20
37.500000000000007
10
191.50000000000009
20
37.500000000000007
10
191.50000000000006
20
-27.460000000000001
10
188.96000000000004
20
-27.460000000000004
10
188.96000000000004
20
-44.960000000000008
10
174.72385166358873
20
-44.960000000000008
10
174.72385166358873
20
-47.5
10
158.05718499692205
20
-47.5
10
158.05718499692205
20
-44.960000000000008
10
141.39051833025536
20
-44.960000000000008
10
141.39051833025536
20
-47.5
10
124.72385166358873
20
-47.5
10
124.72385166358873
20
-44.960000000000008
10
92.211218505859563
20
-44.960000000000008
10
92.211218505859563
20
-47.5
10
72.211218505859563
20
-47.5
10
72.211218505859563
20
-44.960000000000008
10
36.789218505859544
20
-44.960000000000008
10
36.789218505859544
20
-47.5
10
16.789218505859544
20
-47.5
10
16.789218505859544
20
-44.960000000000008
10
-16.789218505859544
20
-44.960000000000008
10
-16.789218505859544
20
-47.5
10
-36.789218505859544
20
-47.5
10
-36.789218505859544
20
-44.960000000000008
10
-72.211218505859563
20
-44.960000000000008
10
-72.211218505859563
20
-47.5
10
-92.211218505859563
20
-47.5
10
-92.211218505859563
20
-44.960000000000008
10
-124.72385166358873
20
-44.960000000000008
10
-124.72385166358873
20
-47.5
10
-141.39051833025536
20
-47.5
10
-141.39051833025536
20
-44.960000000000008
10
-158.05718499692205
20
-44.960000000000008
10
-158.05718499692205
20
-47.5
10
-174.72385166358873
20
-47.5
10
-174.72385166358873
20
-44.960000000000008
10
-188.96000000000001
20
-44.960000000000008
10
-188.96000000000001
20
-27.460000000000001
10
-191.50000000000003
20
-27.460000000000001
10
-191.50000000000003
20
37.500000000000007
10
-188.96000000000004
20
37.5
10
-188.96000000000004
20
47.5
10
-116.50000000000003
20
47.5
10
-116.50000000000003
20
37.500000000000007
10
-113.96000000000004
20
37.5
10
-113.96000000000004
20
47.5
10
113.96000000000004
20
47.5
10
113.96000000000004
20
37.500000000000007
10
116.50000000000003
20
37.5
10
116.50000000000003
20
47.5
0
LWPOLYLINE
5
101
100
AcDbEntity
8
0
100
AcDbPolyline
90
4
70
1
43
0.0
10
112.19221850585913
20
32.5
10
112.19221850585913
20
42.5
10
109.65221850585912
20
42.5
10
109.65221850585912
20
32.500000000000007
0
CIRCLE
5
102
100
AcDbEntity
8
0
100
AcDbCircle
10
151.50000000000006
20
2.5000635910777902
30
0
40
38.350000000000037
0
LWPOLYLINE
5
103
100
AcDbEntity
8
0
100
AcDbPolyline
90
4
70
1
43
0.0
10
1.7697814941404744
20
42.5
10
-0.77021850585953899
20
42.5
10
-0.77021850585953899
20
32.500000000000007
10
1.7697814941404744
20
32.5
0
LWPOLYLINE
5
104
100
AcDbEntity
8
0
100
AcDbPolyline
90
4
70
1
43
0.0
10
-53.230218505859526
20
42.5
10
-55.770218505859539
20
42.5
10
-55.770218505859539
20
32.500000000000007
10
-53.230218505859526
20
32.5
0
LWPOLYLINE
5
105
100
AcDbEntity
8
0
100
AcDbPolyline
90
4
70
1
43
0.0
10
-56.478637011718931
20
30.607914672846434
10
-108.65221850585954
20
30.60791467284643
10
-108.65221850585957
20
-25.566872387700474
10
-56.478637011718931
20
-25.566872387700471
0
LWPOLYLINE
5
106
100
AcDbEntity
8
0
100
AcDbPolyline
90
4
70
1
43
0.0
10
-111.19221850585956
20
32.500000000000007
10
-108.65221850585954
20
32.500000000000007
10
-108.65221850585954
20
42.5
10
-111.19221850585956
20
42.5
0
CIRCLE
5
107
100
AcDbEntity
8
0
100
AcDbCircle
10
-151.50000000000006
20
2.5
30
0
40
38.350000000000009
0
LWPOLYLINE
5
108
100
AcDbEntity
8
0
100
AcDbPolyline
90
4
70
1
43
0.0
10
53.521362988280998
20
-25.566872387700471
10
53.521362988280998
20
30.607914672846434
10
3.3055629882810322
20
30.60791467284643
10
3.3055629882810322
20
-25.566872387700474
0
LWPOLYLINE
5
109
100
AcDbEntity
8
0
100
AcDbPolyline
90
4
70
1
43
0.0
10
-52.52136298828141
20
30.60791467284643
10
-52.52136298828141
20
-25.566872387700474
10
-2.3055629882814088
20
-25.566872387700471
10
-2.3055629882814088
20
30.607914672846434
0
LWPOLYLINE
5
110
100
AcDbEntity
8
0
100
AcDbPolyline
90
4
70
1
43
0.0
10
54.230218505859114
20
32.500000000000007
10
56.770218505859162
20
32.500000000000007
10
56.770218505859162
20
42.5
10
54.230218505859114
20
42.5
0
LWPOLYLINE
5
111
100
AcDbEntity
8
0
100
AcDbPolyline
90
4
70
1
43
0.0
10
109.65221850585912
20
-25.566872387700471
10
109.65221850585912
20
30.607914672846434
10
57.478637011718661
20
30.60791467284643
10
57.478637011718661
20
-25.566872387700474
0
LWPOLYLINE
5
112
100
AcDbEntity
8
0
100
AcDbPolyline
90
52
70
1
43
0.0
10
-116.24600000000002
20
37.754000000000005
10
-114.21400000000004
20
37.753999999999998
10
-114.21400000000004
20
47.754000000000005
10
114.21400000000004
20
47.754000000000005
10
114.21400000000004
20
37.754000000000005
10
116.24600000000002
20
37.753999999999998
10
116.24600000000002
20
47.754000000000005
10
189.21400000000006
20
47.754000000000005
10
189.21400000000006
20
37.754000000000005
10
191.7540000000001
20
37.754000000000005
10
191.75400000000008
20
-27.713999999999999
10
189.21400000000006
20
-27.714000000000002
10
189.21400000000006
20
-45.214000000000006
10
174.97785166358875
20
-45.214000000000006
10
174.97785166358875
20
-47.754000000000005
10
157.80318499692206
20
-47.754000000000005
10
157.80318499692206
20
-45.214000000000006
10
141.64451833025535
20
-45.214000000000006
10
141.64451833025535
20
-47.754000000000005
10
124.46985166358873
20
-47.754000000000005
10
124.46985166358873
20
-45.214000000000006
10
92.465218505859553
20
-45.214000000000006
10
92.465218505859553
20
-47.754000000000005
10
71.957218505859558
20
-47.754000000000005
10
71.957218505859558
20
-45.214000000000006
10
37.043218505859542
20
-45.214000000000006
10
37.043218505859542
20
-47.754000000000005
10
16.535218505859543
20
-47.754000000000005
10
16.53521850585954
20
-45.214000000000006
10
-16.535218505859543
20
-45.214000000000006
10
-16.535218505859547
20
-47.754000000000005
10
-37.043218505859542
20
-47.754000000000005
10
-37.043218505859542
20
-45.214000000000006
10
-71.957218505859558
20
-45.214000000000006
10
-71.957218505859558
20
-47.754000000000005
10
-92.465218505859553
20
-47.754000000000005
10
-92.465218505859553
20
-45.214000000000006
10
-124.46985166358873
20
-45.214000000000006
10
-124.46985166358873
20
-47.754000000000005
10
-141.64451833025535
20
-47.754000000000005
10
-141.64451833025535
20
-45.214000000000006
10
-157.80318499692206
20
-45.214000000000006
10
-157.80318499692206
20
-47.754000000000005
10
-174.97785166358875
20
-47.754000000000005
10
-174.97785166358875
20
-45.214000000000006
10
-189.21400000000003
20
-45.214000000000006
10
-189.21400000000003
20
-27.713999999999999
10
-191.75400000000002
20
-27.713999999999999
10
-191.75400000000002
20
37.754000000000005
10
-189.21400000000006
20
37.753999999999998
10
-189.21400000000006
20
47.754000000000005
10
-116.24600000000002
20
47.754000000000005
0
LWPOLYLINE
5
113
100
AcDbEntity
8
0
100
AcDbPolyline
90
4
70
1
43
0.0
10
-110.93821850585955
20
42.245999999999995
10
-110.93821850585955
20
32.754000000000005
10
-108.90621850585953
20
32.754000000000005
10
-108.90621850585953
20
42.245999999999995
0
LWPOLYLINE
5
114
100
AcDbEntity
8
0
100
AcDbPolyline
90
4
70
1
43
0.0
10
-55.516218505859534
20
42.245999999999995
10
-55.516218505859534
20
32.754000000000005
10
-53.484218505859531
20
32.753999999999998
10
-53.484218505859531
20
42.245999999999995
0
LWPOLYLINE
5
115
100
AcDbEntity
8
0
100
AcDbPolyline
90
4
70
1
43
0.0
10
1.5157814941404744
20
32.753999999999998
10
1.5157814941404744
20
42.245999999999995
10
-0.51621850585953899
20
42.245999999999995
10
-0.51621850585953899
20
32.754000000000005
0
LWPOLYLINE
5
116
100
AcDbEntity
8
0
100
AcDbPolyline
90
4
70
1
43
0.0
10
54.484218505859118
20
42.245999999999995
10
54.484218505859118
20
32.754000000000005
10
56.516218505859158
20
32.754000000000005
10
56.516218505859158
20
42.245999999999995
0
LWPOLYLINE
5
117
100
AcDbEntity
8
0
100
AcDbPolyline
90
4
70
1
43
0.0
10
109.90621850585912
20
42.245999999999995
10
109.90621850585912
20
32.754000000000005
10
111.93821850585914
20
32.753999999999998
10
111.93821850585914
20
42.245999999999995
0
ENDSEC
0
SECTION
2
OBJECTS
0
DICTIONARY
5
C
100
AcDbDictionary
3
ACAD_GROUP
350
D
3
ACAD_MLINESTYLE
350
17
0
DICTIONARY
5
D
100
AcDbDictionary
0
DICTIONARY
5
1A
330
C
100
AcDbDictionary
0
DICTIONARY
5
17
100
AcDbDictionary
0
ENDSEC
0
EOF
