0
SECTION
2
HEADER
9
$INSUNITS
70
4
9
$ACADVER
1
AC1014
9
$HANDSEED
5
FFFF
0
ENDSEC
0
SECTION
2
TABLES
0
TABLE
2
VPORT
5
8
100
AcDbSymbolTable
0
ENDTAB
0
TABLE
2
LTYPE
5
5
100
AcDbSymbolTable
0
LTYPE
5
14
100
AcDbSymbolTableRecord
100
AcDbLinetypeTableRecord
2
BYBLOCK
70
0
0
LTYPE
5
15
100
AcDbSymbolTableRecord
100
AcDbLinetypeTableRecord
2
BYLAYER
70
0
0
ENDTAB
0
TABLE
2
LAYER
5
2
100
AcDbSymbolTable
70
2
0
LAYER
5
50
100
AcDbSymbolTableRecord
100
AcDbLayerTableRecord
2
0
70
0
6
CONTINUOUS
0
ENDTAB
0
TABLE
2
STYLE
5
3
100
AcDbSymbolTable
70
1
0
STYLE
5
11
100
AcDbSymbolTableRecord
100
AcDbTextStyleTableRecord
2
STANDARD
70
0
0
ENDTAB
0
TABLE
2
VIEW
5
6
100
AcDbSymbolTable
70
0
0
ENDTAB
0
TABLE
2
UCS
5
7
100
AcDbSymbolTable
70
0
0
ENDTAB
0
TABLE
2
APPID
5
9
100
AcDbSymbolTable
70
2
0
APPID
5
12
100
AcDbSymbolTableRecord
100
AcDbRegAppTableRecord
2
ACAD
70
0
0
ENDTAB
0
TABLE
2
DIMSTYLE
5
A
100
AcDbSymbolTable
70
1
0
ENDTAB
0
TABLE
2
BLOCK_RECORD
5
1
100
AcDbSymbolTable
70
1
0
BLOCK_RECORD
5
1F
100
AcDbSymbolTableRecord
100
AcDbBlockTableRecord
2
*MODEL_SPACE
0
BLOCK_RECORD
5
1B
100
AcDbSymbolTableRecord
100
AcDbBlockTableRecord
2
*PAPER_SPACE
0
ENDTAB
0
ENDSEC
0
SECTION
2
BLOCKS
0
BLOCK
5
20
100
AcDbEntity
100
AcDbBlockBegin
2
*MODEL_SPACE
0
ENDBLK
5
21
100
AcDbEntity
100
AcDbBlockEnd
0
BLOCK
5
1C
100
AcDbEntity
100
AcDbBlockBegin
2
*PAPER_SPACE
0
ENDBLK
5
1D
100
AcDbEntity
100
AcDbBlockEnd
0
ENDSEC
0
SECTION
2
ENTITIES
0
LWPOLYLINE
5
100
100
AcDbEntity
8
0
100
AcDbPolyline
90
56
70
1
43
0.0
10
188.96000000000001
20
47.500000000000007
10
188.96000000000001
20
37.500000000000007
10
191.50000000000009
20
37.500000000000007
10
191.50000000000003
20
-9.9599999999999955
10
188.96000000000001
20
-9.9599999999999955
10
188.96000000000004
20
-27.459999999999994
10
191.50000000000006
20
-27.459999999999994
10
191.50000000000006
20
-44.959999999999994
10
174.72385166358876
20
-44.960000000000008
10
174.72385166358876
20
-47.5
10
158.05718499692208
20
-47.5
10
158.05718499692208
20
-44.959999999999994
10
141.39051833025539
20
-44.960000000000008
10
141.39051833025539
20
-47.5
10
124.72385166358875
20
-47.5
10
124.72385166358875
20
-44.959999999999994
10
92.211218505859605
20
-44.960000000000008
10
92.211218505859605
20
-47.5
10
72.211218505859605
20
-47.5
10
72.211218505859605
20
-44.959999999999994
10
36.789218505859594
20
-44.960000000000008
10
36.789218505859594
20
-47.5
10
16.789218505859598
20
-47.5
10
16.789218505859598
20
-44.959999999999994
10
-16.789218505859562
20
-44.960000000000008
10
-16.789218505859562
20
-47.5
10
-36.789218505859566
20
-47.5
10
-36.789218505859566
20
-44.959999999999994
10
-72.211218505859577
20
-44.960000000000008
10
-72.211218505859563
20
-47.5
10
-92.211218505859563
20
-47.5
10
-92.211218505859563
20
-44.959999999999994
10
-124.7238516635887
20
-44.960000000000008
10
-124.7238516635887
20
-47.5
10
-141.39051833025536
20
-47.5
10
-141.39051833025536
20
-44.959999999999994
10
-158.05718499692202
20
-44.960000000000008
10
-158.05718499692202
20
-47.5
10
-174.72385166358868
20
-47.5
10
-174.72385166358868
20
-44.959999999999994
10
-191.50000000000006
20
-44.959999999999994
10
-191.50000000000006
20
-27.459999999999994
10
-188.96000000000004
20
-27.459999999999994
10
-188.96000000000001
20
-9.9599999999999955
10
-191.50000000000009
20
-9.9599999999999955
10
-191.50000000000006
20
37.500000000000007
10
-188.96000000000009
20
37.500000000000007
10
-188.96000000000009
20
47.500000000000007
10
-116.50000000000004
20
47.500000000000007
10
-116.50000000000004
20
37.500000000000007
10
-113.96000000000006
20
37.500000000000007
10
-113.96000000000006
20
47.500000000000007
10
113.96000000000009
20
47.500000000000007
10
113.96000000000009
20
37.500000000000007
10
116.50000000000007
20
37.500000000000007
10
116.50000000000006
20
47.500000000000007
0
LWPOLYLINE
5
101
100
AcDbEntity
8
0
100
AcDbPolyline
90
4
70
1
43
0.0
10
-111.19221850585957
20
32.607914672846434
10
-111.19221850585957
20
-27.566872387700457
10
112.19221850585912
20
-27.566872387700457
10
112.19221850585912
20
32.607914672846434
0
LWPOLYLINE
5
102
100
AcDbEntity
8
0
100
AcDbPolyline
90
56
70
1
43
0.0
10
-116.24600000000004
20
37.754000000000005
10
-114.21400000000006
20
37.754000000000005
10
-114.21400000000006
20
47.754000000000012
10
114.21400000000008
20
47.754000000000012
10
114.21400000000008
20
37.754000000000005
10
116.24600000000008
20
37.754000000000005
10
116.24600000000007
20
47.754000000000012
10
189.21400000000003
20
47.754000000000012
10
189.21400000000003
20
37.754000000000005
10
191.7540000000001
20
37.754000000000005
10
191.75400000000002
20
-10.213999999999997
10
189.21400000000003
20
-10.213999999999997
10
189.21400000000006
20
-27.205999999999996
10
191.75400000000008
20
-27.205999999999996
10
191.75400000000008
20
-45.213999999999999
10
174.97785166358878
20
-45.214000000000006
10
174.97785166358878
20
-47.754000000000005
10
157.80318499692208
20
-47.754000000000005
10
157.80318499692208
20
-45.213999999999999
10
141.64451833025538
20
-45.214000000000006
10
141.64451833025538
20
-47.754000000000005
10
124.46985166358874
20
-47.754000000000005
10
124.46985166358874
20
-45.213999999999999
10
92.46521850585961
20
-45.214000000000006
10
92.46521850585961
20
-47.754000000000005
10
71.957218505859601
20
-47.754000000000005
10
71.957218505859601
20
-45.213999999999999
10
37.043218505859599
20
-45.214000000000006
10
37.043218505859592
20
-47.754000000000005
10
16.535218505859596
20
-47.754000000000005
10
16.535218505859593
20
-45.213999999999999
10
-16.535218505859561
20
-45.214000000000006
10
-16.535218505859564
20
-47.754000000000005
10
-37.043218505859564
20
-47.754000000000005
10
-37.043218505859564
20
-45.213999999999999
10
-71.957218505859572
20
-45.214000000000006
10
-71.957218505859558
20
-47.754000000000005
10
-92.465218505859553
20
-47.754000000000005
10
-92.465218505859553
20
-45.213999999999999
10
-124.46985166358871
20
-45.214000000000006
10
-124.46985166358871
20
-47.754000000000005
10
-141.64451833025535
20
-47.754000000000005
10
-141.64451833025535
20
-45.213999999999999
10
-157.80318499692203
20
-45.214000000000006
10
-157.80318499692203
20
-47.754000000000005
10
-174.97785166358869
20
-47.754000000000005
10
-174.97785166358869
20
-45.213999999999999
10
-191.75400000000008
20
-45.213999999999999
10
-191.75400000000008
20
-27.205999999999996
10
-189.21400000000006
20
-27.205999999999996
10
-189.21400000000003
20
-10.213999999999997
10
-191.7540000000001
20
-10.213999999999995
10
-191.75400000000008
20
37.754000000000005
10
-189.21400000000008
20
37.754000000000005
10
-189.21400000000008
20
47.754000000000012
10
-116.24600000000004
20
47.754000000000012
0
ENDSEC
0
SECTION
2
OBJECTS
0
DICTIONARY
5
C
100
AcDbDictionary
3
ACAD_GROUP
350
D
3
ACAD_MLINESTYLE
350
17
0
DICTIONARY
5
D
100
AcDbDictionary
0
DICTIONARY
5
1A
330
C
100
AcDbDictionary
0
DICTIONARY
5
17
100
AcDbDictionary
0
ENDSEC
0
EOF
