0
SECTION
2
HEADER
9
$INSUNITS
70
4
9
$ACADVER
1
AC1014
9
$HANDSEED
5
FFFF
0
ENDSEC
0
SECTION
2
TABLES
0
TABLE
2
VPORT
5
8
100
AcDbSymbolTable
0
ENDTAB
0
TABLE
2
LTYPE
5
5
100
AcDbSymbolTable
0
LTYPE
5
14
100
AcDbSymbolTableRecord
100
AcDbLinetypeTableRecord
2
BYBLOCK
70
0
0
LTYPE
5
15
100
AcDbSymbolTableRecord
100
AcDbLinetypeTableRecord
2
BYLAYER
70
0
0
ENDTAB
0
TABLE
2
LAYER
5
2
100
AcDbSymbolTable
70
2
0
LAYER
5
50
100
AcDbSymbolTableRecord
100
AcDbLayerTableRecord
2
0
70
0
6
CONTINUOUS
0
ENDTAB
0
TABLE
2
STYLE
5
3
100
AcDbSymbolTable
70
1
0
STYLE
5
11
100
AcDbSymbolTableRecord
100
AcDbTextStyleTableRecord
2
STANDARD
70
0
0
ENDTAB
0
TABLE
2
VIEW
5
6
100
AcDbSymbolTable
70
0
0
ENDTAB
0
TABLE
2
UCS
5
7
100
AcDbSymbolTable
70
0
0
ENDTAB
0
TABLE
2
APPID
5
9
100
AcDbSymbolTable
70
2
0
APPID
5
12
100
AcDbSymbolTableRecord
100
AcDbRegAppTableRecord
2
ACAD
70
0
0
ENDTAB
0
TABLE
2
DIMSTYLE
5
A
100
AcDbSymbolTable
70
1
0
ENDTAB
0
TABLE
2
BLOCK_RECORD
5
1
100
AcDbSymbolTable
70
1
0
BLOCK_RECORD
5
1F
100
AcDbSymbolTableRecord
100
AcDbBlockTableRecord
2
*MODEL_SPACE
0
BLOCK_RECORD
5
1B
100
AcDbSymbolTableRecord
100
AcDbBlockTableRecord
2
*PAPER_SPACE
0
ENDTAB
0
ENDSEC
0
SECTION
2
BLOCKS
0
BLOCK
5
20
100
AcDbEntity
100
AcDbBlockBegin
2
*MODEL_SPACE
0
ENDBLK
5
21
100
AcDbEntity
100
AcDbBlockEnd
0
BLOCK
5
1C
100
AcDbEntity
100
AcDbBlockBegin
2
*PAPER_SPACE
0
ENDBLK
5
1D
100
AcDbEntity
100
AcDbBlockEnd
0
ENDSEC
0
SECTION
2
ENTITIES
0
LWPOLYLINE
5
100
100
AcDbEntity
8
0
100
AcDbPolyline
90
46
70
1
43
0.0
10
42.189999999999316
20
-18.77
10
42.189999999999316
20
-16.23
10
24.729999999999013
20
-16.23
10
24.729999999999013
20
-18.77
10
-0.35000000000081855
20
-18.77
10
-0.35000000000062315
20
-16.23
10
-22.270000000001016
20
-16.23
10
-22.270000000001016
20
-18.77
10
-46.192000000000689
20
-18.77
10
-46.192000000000689
20
-16.23
10
-57.810000000000521
20
-16.23
10
-57.810000000000521
20
-18.77
10
-72.810000000000514
20
-18.77
10
-72.810000000000514
20
-16.23
10
-77.810000000000514
20
-16.23
10
-77.810000000000514
20
18.77
10
-46.192000000000625
20
18.77
10
-46.192000000000618
20
3.7700000000000133
10
-43.652000000000598
20
3.7700000000000133
10
-43.652000000000598
20
18.77
10
-24.810000000000628
20
18.77
10
-24.810000000000628
20
3.7700000000000089
10
-22.270000000000636
20
3.7700000000000089
10
-22.270000000000636
20
18.77
10
-0.35000000000062315
20
18.77
10
-0.35000000000062315
20
1.27
10
2.1899999999993724
20
1.27
10
2.1899999999993724
20
18.77
10
22.189999999999372
20
18.77
10
22.189999999999372
20
3.77
10
24.729999999999368
20
3.77
10
24.729999999999368
20
18.77
10
42.189999999999372
20
18.77
10
42.189999999999372
20
3.7699999999999978
10
44.729999999999364
20
3.7699999999999978
10
44.729999999999364
20
18.77
10
62.189999999999372
20
18.77
10
62.189999999999372
20
3.7699999999999911
10
64.729999999999364
20
3.7699999999999911
10
64.729999999999364
20
18.77
10
77.810000000000514
20
18.77
10
77.810000000000514
20
1.27
10
72.73000000000053
20
1.27
10
72.73000000000053
20
-16.23
10
64.729999999999009
20
-16.23
10
64.729999999999009
20
-18.77
0
LWPOLYLINE
5
101
100
AcDbEntity
8
0
100
AcDbPolyline
90
46
70
1
43
0.0
10
-73.064000000000519
20
-19.024000000000001
10
-73.064000000000519
20
-16.484000000000002
10
-78.064000000000519
20
-16.484000000000002
10
-78.064000000000519
20
19.024000000000001
10
-45.938000000000621
20
19.024000000000001
10
-45.938000000000613
20
4.0240000000000133
10
-43.906000000000603
20
4.0240000000000142
10
-43.906000000000603
20
19.024000000000001
10
-24.55600000000063
20
19.024000000000001
10
-24.55600000000063
20
4.0240000000000089
10
-22.524000000000633
20
4.0240000000000098
10
-22.524000000000633
20
19.024000000000001
10
-0.096000000000623115
20
19.024000000000001
10
-0.096000000000623087
20
1.524
10
1.9359999999993724
20
1.5240000000000009
10
1.9359999999993738
20
19.024000000000001
10
22.44399999999937
20
19.024000000000001
10
22.44399999999937
20
4.024
10
24.47599999999937
20
4.0240000000000009
10
24.47599999999937
20
19.024000000000001
10
42.443999999999377
20
19.024000000000001
10
42.443999999999377
20
4.0239999999999974
10
44.475999999999367
20
4.0239999999999965
10
44.475999999999367
20
19.024000000000001
10
62.443999999999377
20
19.024000000000001
10
62.443999999999377
20
4.0239999999999911
10
64.47599999999936
20
4.023999999999992
10
64.47599999999936
20
19.024000000000001
10
78.064000000000519
20
19.024000000000001
10
78.064000000000519
20
1.016
10
72.984000000000535
20
1.0159999999999991
10
72.984000000000535
20
-16.484000000000002
10
64.983999999999014
20
-16.484000000000002
10
64.983999999999014
20
-19.024000000000001
10
41.935999999999318
20
-19.024000000000001
10
41.935999999999318
20
-16.484000000000002
10
24.983999999999011
20
-16.484000000000002
10
24.983999999999011
20
-19.024000000000001
10
-0.6040000000008382
20
-19.024000000000001
10
-0.60400000000063958
20
-16.484000000000002
10
-22.016000000001018
20
-16.484000000000002
10
-22.016000000001018
20
-19.024000000000001
10
-46.446000000000687
20
-19.024000000000001
10
-46.446000000000687
20
-16.484000000000002
10
-57.556000000000516
20
-16.484000000000002
10
-57.556000000000516
20
-19.024000000000001
0
ENDSEC
0
SECTION
2
OBJECTS
0
DICTIONARY
5
C
100
AcDbDictionary
3
ACAD_GROUP
350
D
3
ACAD_MLINESTYLE
350
17
0
DICTIONARY
5
D
100
AcDbDictionary
0
DICTIONARY
5
1A
330
C
100
AcDbDictionary
0
DICTIONARY
5
17
100
AcDbDictionary
0
ENDSEC
0
EOF
