0
SECTION
2
HEADER
9
$INSUNITS
70
4
9
$ACADVER
1
AC1014
9
$HANDSEED
5
FFFF
0
ENDSEC
0
SECTION
2
TABLES
0
TABLE
2
VPORT
5
8
100
AcDbSymbolTable
0
ENDTAB
0
TABLE
2
LTYPE
5
5
100
AcDbSymbolTable
0
LTYPE
5
14
100
AcDbSymbolTableRecord
100
AcDbLinetypeTableRecord
2
BYBLOCK
70
0
0
LTYPE
5
15
100
AcDbSymbolTableRecord
100
AcDbLinetypeTableRecord
2
BYLAYER
70
0
0
ENDTAB
0
TABLE
2
LAYER
5
2
100
AcDbSymbolTable
70
2
0
LAYER
5
50
100
AcDbSymbolTableRecord
100
AcDbLayerTableRecord
2
0
70
0
6
CONTINUOUS
0
ENDTAB
0
TABLE
2
STYLE
5
3
100
AcDbSymbolTable
70
1
0
STYLE
5
11
100
AcDbSymbolTableRecord
100
AcDbTextStyleTableRecord
2
STANDARD
70
0
0
ENDTAB
0
TABLE
2
VIEW
5
6
100
AcDbSymbolTable
70
0
0
ENDTAB
0
TABLE
2
UCS
5
7
100
AcDbSymbolTable
70
0
0
ENDTAB
0
TABLE
2
APPID
5
9
100
AcDbSymbolTable
70
2
0
APPID
5
12
100
AcDbSymbolTableRecord
100
AcDbRegAppTableRecord
2
ACAD
70
0
0
ENDTAB
0
TABLE
2
DIMSTYLE
5
A
100
AcDbSymbolTable
70
1
0
ENDTAB
0
TABLE
2
BLOCK_RECORD
5
1
100
AcDbSymbolTable
70
1
0
BLOCK_RECORD
5
1F
100
AcDbSymbolTableRecord
100
AcDbBlockTableRecord
2
*MODEL_SPACE
0
BLOCK_RECORD
5
1B
100
AcDbSymbolTableRecord
100
AcDbBlockTableRecord
2
*PAPER_SPACE
0
ENDTAB
0
ENDSEC
0
SECTION
2
BLOCKS
0
BLOCK
5
20
100
AcDbEntity
100
AcDbBlockBegin
2
*MODEL_SPACE
0
ENDBLK
5
21
100
AcDbEntity
100
AcDbBlockEnd
0
BLOCK
5
1C
100
AcDbEntity
100
AcDbBlockBegin
2
*PAPER_SPACE
0
ENDBLK
5
1D
100
AcDbEntity
100
AcDbBlockEnd
0
ENDSEC
0
SECTION
2
ENTITIES
0
LWPOLYLINE
5
100
100
AcDbEntity
8
0
100
AcDbPolyline
90
16
70
1
43
0.0
10
37.63499999999997
20
-0.9060000000000068
10
37.635000000000041
20
-20.906000000000006
10
23.398851663588616
20
-20.906000000000006
10
23.398851663588616
20
-23.446000000000005
10
6.7321849969220082
20
-23.446000000000002
10
6.7321849969220082
20
-20.906000000000002
10
-9.9344816697446703
20
-20.906000000000006
10
-9.9344816697446703
20
-23.446000000000005
10
-26.601148336411313
20
-23.446000000000005
10
-26.601148336411313
20
-20.906000000000006
10
-40.174999999999983
20
-20.906000000000002
10
-40.174999999999983
20
23.445999999999998
10
-38.048846492913469
20
23.446000000000002
42
0.92198822573900707
10
38.398846492913421
20
23.445999999999998
10
40.175000000000018
20
23.445999999999998
10
40.174999999999983
20
-0.9060000000000068
0
LWPOLYLINE
5
101
100
AcDbEntity
8
0
100
AcDbPolyline
90
16
70
1
43
0.0
10
40.429000000000023
20
23.699999999999996
10
40.428999999999988
20
-1.1600000000000068
10
37.888999999999967
20
-1.1600000000000077
10
37.889000000000038
20
-21.160000000000004
10
23.652851663588613
20
-21.160000000000004
10
23.652851663588613
20
-23.700000000000006
10
6.4781849969220087
20
-23.700000000000003
10
6.4781849969220104
20
-21.16
10
-9.6804816697446707
20
-21.160000000000004
10
-9.6804816697446725
20
-23.700000000000006
10
-26.855148336411311
20
-23.700000000000006
10
-26.855148336411311
20
-21.160000000000004
10
-40.428999999999988
20
-21.16
10
-40.428999999999988
20
23.699999999999996
10
-37.813939666935717
20
23.700000000000003
42
0.92768939375254089
10
38.163939666935669
20
23.700000000000003
0
ENDSEC
0
SECTION
2
OBJECTS
0
DICTIONARY
5
C
100
AcDbDictionary
3
ACAD_GROUP
350
D
3
ACAD_MLINESTYLE
350
17
0
DICTIONARY
5
D
100
AcDbDictionary
0
DICTIONARY
5
1A
330
C
100
AcDbDictionary
0
DICTIONARY
5
17
100
AcDbDictionary
0
ENDSEC
0
EOF
