0
SECTION
2
HEADER
9
$INSUNITS
70
4
9
$ACADVER
1
AC1014
9
$HANDSEED
5
FFFF
0
ENDSEC
0
SECTION
2
TABLES
0
TABLE
2
VPORT
5
8
100
AcDbSymbolTable
0
ENDTAB
0
TABLE
2
LTYPE
5
5
100
AcDbSymbolTable
0
LTYPE
5
14
100
AcDbSymbolTableRecord
100
AcDbLinetypeTableRecord
2
BYBLOCK
70
0
0
LTYPE
5
15
100
AcDbSymbolTableRecord
100
AcDbLinetypeTableRecord
2
BYLAYER
70
0
0
ENDTAB
0
TABLE
2
LAYER
5
2
100
AcDbSymbolTable
70
2
0
LAYER
5
50
100
AcDbSymbolTableRecord
100
AcDbLayerTableRecord
2
0
70
0
6
CONTINUOUS
0
ENDTAB
0
TABLE
2
STYLE
5
3
100
AcDbSymbolTable
70
1
0
STYLE
5
11
100
AcDbSymbolTableRecord
100
AcDbTextStyleTableRecord
2
STANDARD
70
0
0
ENDTAB
0
TABLE
2
VIEW
5
6
100
AcDbSymbolTable
70
0
0
ENDTAB
0
TABLE
2
UCS
5
7
100
AcDbSymbolTable
70
0
0
ENDTAB
0
TABLE
2
APPID
5
9
100
AcDbSymbolTable
70
2
0
APPID
5
12
100
AcDbSymbolTableRecord
100
AcDbRegAppTableRecord
2
ACAD
70
0
0
ENDTAB
0
TABLE
2
DIMSTYLE
5
A
100
AcDbSymbolTable
70
1
0
ENDTAB
0
TABLE
2
BLOCK_RECORD
5
1
100
AcDbSymbolTable
70
1
0
BLOCK_RECORD
5
1F
100
AcDbSymbolTableRecord
100
AcDbBlockTableRecord
2
*MODEL_SPACE
0
BLOCK_RECORD
5
1B
100
AcDbSymbolTableRecord
100
AcDbBlockTableRecord
2
*PAPER_SPACE
0
ENDTAB
0
ENDSEC
0
SECTION
2
BLOCKS
0
BLOCK
5
20
100
AcDbEntity
100
AcDbBlockBegin
2
*MODEL_SPACE
0
ENDBLK
5
21
100
AcDbEntity
100
AcDbBlockEnd
0
BLOCK
5
1C
100
AcDbEntity
100
AcDbBlockBegin
2
*PAPER_SPACE
0
ENDBLK
5
1D
100
AcDbEntity
100
AcDbBlockEnd
0
ENDSEC
0
SECTION
2
ENTITIES
0
LWPOLYLINE
5
100
100
AcDbEntity
8
0
100
AcDbPolyline
90
46
70
1
43
0.0
10
-22.270000000000813
20
18.77
10
-22.270000000000813
20
16.23
10
-0.35000000000062315
20
16.23
10
-0.35000000000062315
20
18.77
10
24.729999999999208
20
18.77
10
24.729999999999208
20
16.23
10
42.189999999999515
20
16.23
10
42.189999999999515
20
18.77
10
64.729999999999208
20
18.77
10
64.729999999999208
20
16.23
10
72.73000000000053
20
16.23
10
72.73000000000053
20
-1.27
10
77.810000000000514
20
-1.27
10
77.810000000000514
20
-18.77
10
64.729999999999364
20
-18.77
10
64.729999999999364
20
-3.7699999999999911
10
62.189999999999372
20
-3.7699999999999911
10
62.189999999999372
20
-18.77
10
44.729999999999364
20
-18.77
10
44.729999999999364
20
-3.7699999999999978
10
42.189999999999372
20
-3.7699999999999978
10
42.189999999999372
20
-18.77
10
24.729999999999368
20
-18.77
10
24.729999999999368
20
-3.77
10
22.189999999999372
20
-3.77
10
22.189999999999372
20
-18.77
10
2.1899999999993724
20
-18.77
10
2.1899999999993724
20
-1.27
10
-0.35000000000062315
20
-1.27
10
-0.35000000000062315
20
-18.77
10
-22.270000000000636
20
-18.769999999999996
10
-22.270000000000636
20
-3.7700000000000076
10
-24.810000000000628
20
-3.7700000000000089
10
-24.810000000000624
20
-18.77
10
-43.652000000000598
20
-18.77
10
-43.652000000000598
20
-3.7700000000000133
10
-46.192000000000625
20
-3.7700000000000133
10
-46.192000000000625
20
-18.77
10
-77.810000000000514
20
-18.77
10
-77.810000000000514
20
16.23
10
-72.810000000000514
20
16.23
10
-72.810000000000514
20
18.77
10
-57.810000000000521
20
18.77
10
-57.810000000000521
20
16.23
10
-46.192000000000498
20
16.23
10
-46.192000000000498
20
18.77
0
LWPOLYLINE
5
101
100
AcDbEntity
8
0
100
AcDbPolyline
90
46
70
1
43
0.0
10
-46.065000000000623
20
-3.8970000000000127
10
-46.065000000000623
20
-18.896999999999998
10
-77.937000000000523
20
-18.896999999999998
10
-77.937000000000523
20
16.356999999999999
10
-72.937000000000523
20
16.356999999999999
10
-72.937000000000523
20
18.896999999999998
10
-57.683000000000526
20
18.896999999999998
10
-57.683000000000526
20
16.356999999999999
10
-46.3190000000005
20
16.356999999999999
10
-46.3190000000005
20
18.896999999999998
10
-22.143000000000811
20
18.896999999999998
10
-22.143000000000811
20
16.356999999999999
10
-0.47700000000062315
20
16.356999999999999
10
-0.4770000000006247
20
18.896999999999998
10
24.856999999999211
20
18.896999999999998
10
24.856999999999211
20
16.356999999999999
10
42.062999999999519
20
16.356999999999999
10
42.062999999999519
20
18.896999999999998
10
64.856999999999204
20
18.896999999999998
10
64.856999999999204
20
16.356999999999999
10
72.857000000000525
20
16.356999999999999
10
72.857000000000525
20
-1.143
10
77.937000000000523
20
-1.1430000000000007
10
77.937000000000523
20
-18.896999999999998
10
64.602999999999369
20
-18.896999999999998
10
64.602999999999369
20
-3.8969999999999909
10
62.316999999999368
20
-3.8969999999999905
10
62.316999999999368
20
-18.896999999999998
10
44.602999999999369
20
-18.896999999999998
10
44.602999999999369
20
-3.8969999999999976
10
42.316999999999368
20
-3.8969999999999971
10
42.316999999999368
20
-18.896999999999998
10
24.602999999999366
20
-18.896999999999998
10
24.602999999999366
20
-3.8969999999999998
10
22.316999999999375
20
-3.8969999999999994
10
22.316999999999375
20
-18.896999999999998
10
2.0629999999993727
20
-18.896999999999998
10
2.0629999999993727
20
-1.3969999999999998
10
-0.22300000000062312
20
-1.3969999999999994
10
-0.22300000000062159
20
-18.896999999999998
10
-22.397000000000634
20
-18.896999999999998
10
-22.397000000000634
20
-3.8970000000000078
10
-24.683000000000629
20
-3.8970000000000082
10
-24.683000000000625
20
-18.896999999999998
10
-43.7790000000006
20
-18.896999999999998
10
-43.7790000000006
20
-3.8970000000000131
0
ENDSEC
0
SECTION
2
OBJECTS
0
DICTIONARY
5
C
100
AcDbDictionary
3
ACAD_GROUP
350
D
3
ACAD_MLINESTYLE
350
17
0
DICTIONARY
5
D
100
AcDbDictionary
0
DICTIONARY
5
1A
330
C
100
AcDbDictionary
0
DICTIONARY
5
17
100
AcDbDictionary
0
ENDSEC
0
EOF
