0
SECTION
2
HEADER
9
$INSUNITS
70
4
9
$ACADVER
1
AC1014
9
$HANDSEED
5
FFFF
0
ENDSEC
0
SECTION
2
TABLES
0
TABLE
2
VPORT
5
8
100
AcDbSymbolTable
0
ENDTAB
0
TABLE
2
LTYPE
5
5
100
AcDbSymbolTable
0
LTYPE
5
14
100
AcDbSymbolTableRecord
100
AcDbLinetypeTableRecord
2
BYBLOCK
70
0
0
LTYPE
5
15
100
AcDbSymbolTableRecord
100
AcDbLinetypeTableRecord
2
BYLAYER
70
0
0
ENDTAB
0
TABLE
2
LAYER
5
2
100
AcDbSymbolTable
70
2
0
LAYER
5
50
100
AcDbSymbolTableRecord
100
AcDbLayerTableRecord
2
0
70
0
6
CONTINUOUS
0
ENDTAB
0
TABLE
2
STYLE
5
3
100
AcDbSymbolTable
70
1
0
STYLE
5
11
100
AcDbSymbolTableRecord
100
AcDbTextStyleTableRecord
2
STANDARD
70
0
0
ENDTAB
0
TABLE
2
VIEW
5
6
100
AcDbSymbolTable
70
0
0
ENDTAB
0
TABLE
2
UCS
5
7
100
AcDbSymbolTable
70
0
0
ENDTAB
0
TABLE
2
APPID
5
9
100
AcDbSymbolTable
70
2
0
APPID
5
12
100
AcDbSymbolTableRecord
100
AcDbRegAppTableRecord
2
ACAD
70
0
0
ENDTAB
0
TABLE
2
DIMSTYLE
5
A
100
AcDbSymbolTable
70
1
0
ENDTAB
0
TABLE
2
BLOCK_RECORD
5
1
100
AcDbSymbolTable
70
1
0
BLOCK_RECORD
5
1F
100
AcDbSymbolTableRecord
100
AcDbBlockTableRecord
2
*MODEL_SPACE
0
BLOCK_RECORD
5
1B
100
AcDbSymbolTableRecord
100
AcDbBlockTableRecord
2
*PAPER_SPACE
0
ENDTAB
0
ENDSEC
0
SECTION
2
BLOCKS
0
BLOCK
5
20
100
AcDbEntity
100
AcDbBlockBegin
2
*MODEL_SPACE
0
ENDBLK
5
21
100
AcDbEntity
100
AcDbBlockEnd
0
BLOCK
5
1C
100
AcDbEntity
100
AcDbBlockBegin
2
*PAPER_SPACE
0
ENDBLK
5
1D
100
AcDbEntity
100
AcDbBlockEnd
0
ENDSEC
0
SECTION
2
ENTITIES
0
LWPOLYLINE
5
100
100
AcDbEntity
8
0
100
AcDbPolyline
90
16
70
1
43
0.0
10
-40.674999999999741
20
-0.9060000000000068
10
-40.674999999999777
20
23.445999999999998
10
-38.898851663588367
20
23.445999999999994
42
0.92198976466757332
10
37.548851663588174
20
23.445999999999998
10
40.674999999999777
20
23.445999999999994
10
40.674999999999777
20
-20.906000000000006
10
26.101148336411573
20
-20.906000000000006
10
26.101148336411573
20
-23.446000000000005
10
9.4344816697449119
20
-23.446000000000005
10
9.4344816697449119
20
-20.906000000000002
10
-7.2321849969217666
20
-20.906000000000006
10
-7.2321849969217666
20
-23.446000000000005
10
-23.89885166358841
20
-23.446000000000002
10
-23.89885166358841
20
-20.906000000000002
10
-38.134999999999835
20
-20.906000000000006
10
-38.134999999999749
20
-0.9060000000000068
0
LWPOLYLINE
5
101
100
AcDbEntity
8
0
100
AcDbPolyline
90
16
70
1
43
0.0
10
37.431579064513159
20
23.573000000000054
42
-0.92482717853881335
10
-38.781579064513352
20
23.572999999999993
10
-40.801999999999772
20
23.573
10
-40.801999999999737
20
-1.0330000000000084
10
-38.261999999999745
20
-1.0330000000000084
10
-38.261999999999837
20
-21.033000000000008
10
-24.025851663588412
20
-21.033000000000005
10
-24.025851663588412
20
-23.573000000000004
10
-7.1051849969217651
20
-23.573000000000008
10
-7.105184996921766
20
-21.033000000000008
10
9.3074816697449112
20
-21.033000000000005
10
9.3074816697449094
20
-23.573000000000008
10
26.228148336411575
20
-23.573000000000008
10
26.228148336411575
20
-21.033000000000008
10
40.801999999999772
20
-21.033000000000008
10
40.801999999999772
20
23.573
0
ENDSEC
0
SECTION
2
OBJECTS
0
DICTIONARY
5
C
100
AcDbDictionary
3
ACAD_GROUP
350
D
3
ACAD_MLINESTYLE
350
17
0
DICTIONARY
5
D
100
AcDbDictionary
0
DICTIONARY
5
1A
330
C
100
AcDbDictionary
0
DICTIONARY
5
17
100
AcDbDictionary
0
ENDSEC
0
EOF
