0
SECTION
2
HEADER
9
$INSUNITS
70
4
9
$ACADVER
1
AC1014
9
$HANDSEED
5
FFFF
0
ENDSEC
0
SECTION
2
TABLES
0
TABLE
2
VPORT
5
8
100
AcDbSymbolTable
0
ENDTAB
0
TABLE
2
LTYPE
5
5
100
AcDbSymbolTable
0
LTYPE
5
14
100
AcDbSymbolTableRecord
100
AcDbLinetypeTableRecord
2
BYBLOCK
70
0
0
LTYPE
5
15
100
AcDbSymbolTableRecord
100
AcDbLinetypeTableRecord
2
BYLAYER
70
0
0
ENDTAB
0
TABLE
2
LAYER
5
2
100
AcDbSymbolTable
70
2
0
LAYER
5
50
100
AcDbSymbolTableRecord
100
AcDbLayerTableRecord
2
0
70
0
6
CONTINUOUS
0
ENDTAB
0
TABLE
2
STYLE
5
3
100
AcDbSymbolTable
70
1
0
STYLE
5
11
100
AcDbSymbolTableRecord
100
AcDbTextStyleTableRecord
2
STANDARD
70
0
0
ENDTAB
0
TABLE
2
VIEW
5
6
100
AcDbSymbolTable
70
0
0
ENDTAB
0
TABLE
2
UCS
5
7
100
AcDbSymbolTable
70
0
0
ENDTAB
0
TABLE
2
APPID
5
9
100
AcDbSymbolTable
70
2
0
APPID
5
12
100
AcDbSymbolTableRecord
100
AcDbRegAppTableRecord
2
ACAD
70
0
0
ENDTAB
0
TABLE
2
DIMSTYLE
5
A
100
AcDbSymbolTable
70
1
0
ENDTAB
0
TABLE
2
BLOCK_RECORD
5
1
100
AcDbSymbolTable
70
1
0
BLOCK_RECORD
5
1F
100
AcDbSymbolTableRecord
100
AcDbBlockTableRecord
2
*MODEL_SPACE
0
BLOCK_RECORD
5
1B
100
AcDbSymbolTableRecord
100
AcDbBlockTableRecord
2
*PAPER_SPACE
0
ENDTAB
0
ENDSEC
0
SECTION
2
BLOCKS
0
BLOCK
5
20
100
AcDbEntity
100
AcDbBlockBegin
2
*MODEL_SPACE
0
ENDBLK
5
21
100
AcDbEntity
100
AcDbBlockEnd
0
BLOCK
5
1C
100
AcDbEntity
100
AcDbBlockBegin
2
*PAPER_SPACE
0
ENDBLK
5
1D
100
AcDbEntity
100
AcDbBlockEnd
0
ENDSEC
0
SECTION
2
ENTITIES
0
LWPOLYLINE
5
100
100
AcDbEntity
8
0
100
AcDbPolyline
90
18
70
1
43
0.0
10
21.650800000000068
20
-22.607885327153568
10
-1.2701999999999281
20
-22.607885327153568
10
-1.2701999999999281
20
-25.147885327153571
10
21.650800000000068
20
-25.147885327153574
10
21.650800000000068
20
-44.960000000000008
10
9.9997999999999188
20
-44.960000000000008
10
9.9997999999999223
20
-47.5
10
-10.000200000000072
20
-47.5
10
-10.000200000000072
20
-44.960000000000008
10
-21.651199999999932
20
-44.960000000000008
10
-21.651199999999939
20
-35.147885327153567
10
-24.190800000000063
20
-35.147885327153574
10
-24.190800000000063
20
47.5
10
21.650800000000068
20
47.5
10
21.650800000000068
20
42.5
10
24.190800000000063
20
42.5
10
24.190800000000063
20
32.500000000000007
10
21.650800000000068
20
32.500000000000007
0
LWPOLYLINE
5
101
100
AcDbEntity
8
0
100
AcDbPolyline
90
18
70
1
43
0.0
10
-21.778199999999938
20
-35.274885327153569
10
-24.317800000000066
20
-35.274885327153569
10
-24.317800000000066
20
47.626999999999995
10
21.77780000000007
20
47.626999999999995
10
21.77780000000007
20
42.626999999999995
10
24.317800000000066
20
42.626999999999995
10
24.317800000000066
20
32.373000000000005
10
21.77780000000007
20
32.373000000000005
10
21.77780000000007
20
-22.73488532715357
10
-1.1431999999999281
20
-22.73488532715357
10
-1.1431999999999265
20
-25.020885327153568
10
21.77780000000007
20
-25.020885327153572
10
21.77780000000007
20
-45.087000000000003
10
10.126799999999918
20
-45.087000000000003
10
10.126799999999923
20
-47.626999999999995
10
-10.127200000000071
20
-47.626999999999995
10
-10.127200000000071
20
-45.087000000000003
10
-21.778199999999934
20
-45.087000000000003
0
ENDSEC
0
SECTION
2
OBJECTS
0
DICTIONARY
5
C
100
AcDbDictionary
3
ACAD_GROUP
350
D
3
ACAD_MLINESTYLE
350
17
0
DICTIONARY
5
D
100
AcDbDictionary
0
DICTIONARY
5
1A
330
C
100
AcDbDictionary
0
DICTIONARY
5
17
100
AcDbDictionary
0
ENDSEC
0
EOF
