0
SECTION
2
HEADER
9
$INSUNITS
70
4
9
$ACADVER
1
AC1014
9
$HANDSEED
5
FFFF
0
ENDSEC
0
SECTION
2
TABLES
0
TABLE
2
VPORT
5
8
100
AcDbSymbolTable
0
ENDTAB
0
TABLE
2
LTYPE
5
5
100
AcDbSymbolTable
0
LTYPE
5
14
100
AcDbSymbolTableRecord
100
AcDbLinetypeTableRecord
2
BYBLOCK
70
0
0
LTYPE
5
15
100
AcDbSymbolTableRecord
100
AcDbLinetypeTableRecord
2
BYLAYER
70
0
0
ENDTAB
0
TABLE
2
LAYER
5
2
100
AcDbSymbolTable
70
2
0
LAYER
5
50
100
AcDbSymbolTableRecord
100
AcDbLayerTableRecord
2
0
70
0
6
CONTINUOUS
0
ENDTAB
0
TABLE
2
STYLE
5
3
100
AcDbSymbolTable
70
1
0
STYLE
5
11
100
AcDbSymbolTableRecord
100
AcDbTextStyleTableRecord
2
STANDARD
70
0
0
ENDTAB
0
TABLE
2
VIEW
5
6
100
AcDbSymbolTable
70
0
0
ENDTAB
0
TABLE
2
UCS
5
7
100
AcDbSymbolTable
70
0
0
ENDTAB
0
TABLE
2
APPID
5
9
100
AcDbSymbolTable
70
2
0
APPID
5
12
100
AcDbSymbolTableRecord
100
AcDbRegAppTableRecord
2
ACAD
70
0
0
ENDTAB
0
TABLE
2
DIMSTYLE
5
A
100
AcDbSymbolTable
70
1
0
ENDTAB
0
TABLE
2
BLOCK_RECORD
5
1
100
AcDbSymbolTable
70
1
0
BLOCK_RECORD
5
1F
100
AcDbSymbolTableRecord
100
AcDbBlockTableRecord
2
*MODEL_SPACE
0
BLOCK_RECORD
5
1B
100
AcDbSymbolTableRecord
100
AcDbBlockTableRecord
2
*PAPER_SPACE
0
ENDTAB
0
ENDSEC
0
SECTION
2
BLOCKS
0
BLOCK
5
20
100
AcDbEntity
100
AcDbBlockBegin
2
*MODEL_SPACE
0
ENDBLK
5
21
100
AcDbEntity
100
AcDbBlockEnd
0
BLOCK
5
1C
100
AcDbEntity
100
AcDbBlockBegin
2
*PAPER_SPACE
0
ENDBLK
5
1D
100
AcDbEntity
100
AcDbBlockEnd
0
ENDSEC
0
SECTION
2
ENTITIES
0
LWPOLYLINE
5
100
100
AcDbEntity
8
0
100
AcDbPolyline
90
18
70
1
43
0.0
10
21.650800000000068
20
-22.607885327153568
10
-1.2701999999999281
20
-22.607885327153568
10
-1.2701999999999281
20
-25.147885327153571
10
21.650800000000068
20
-25.147885327153574
10
21.650800000000068
20
-44.960000000000008
10
9.9997999999999188
20
-44.960000000000008
10
9.9997999999999223
20
-47.5
10
-10.000200000000072
20
-47.5
10
-10.000200000000072
20
-44.960000000000008
10
-21.651199999999932
20
-44.960000000000008
10
-21.651199999999939
20
-35.147885327153567
10
-24.190800000000063
20
-35.147885327153574
10
-24.190800000000063
20
47.5
10
21.650800000000068
20
47.5
10
21.650800000000068
20
42.5
10
24.190800000000063
20
42.5
10
24.190800000000063
20
32.500000000000007
10
21.650800000000068
20
32.500000000000007
0
LWPOLYLINE
5
101
100
AcDbEntity
8
0
100
AcDbPolyline
90
18
70
1
43
0.0
10
-21.905199999999937
20
-35.401885327153565
10
-24.444800000000061
20
-35.401885327153579
10
-24.444800000000061
20
47.754000000000005
10
21.904800000000066
20
47.754000000000005
10
21.904800000000066
20
42.754000000000005
10
24.444800000000061
20
42.754000000000005
10
24.444800000000061
20
32.246000000000009
10
21.904800000000066
20
32.246000000000009
10
21.904800000000066
20
-22.861885327153569
10
-1.016199999999928
20
-22.861885327153569
10
-1.0161999999999294
20
-24.893885327153569
10
21.904800000000066
20
-24.893885327153576
10
21.904800000000066
20
-45.214000000000006
10
10.25379999999992
20
-45.214000000000006
10
10.253799999999924
20
-47.754000000000005
10
-10.254200000000074
20
-47.754000000000005
10
-10.254200000000074
20
-45.214000000000006
10
-21.90519999999993
20
-45.214000000000006
0
ENDSEC
0
SECTION
2
OBJECTS
0
DICTIONARY
5
C
100
AcDbDictionary
3
ACAD_GROUP
350
D
3
ACAD_MLINESTYLE
350
17
0
DICTIONARY
5
D
100
AcDbDictionary
0
DICTIONARY
5
1A
330
C
100
AcDbDictionary
0
DICTIONARY
5
17
100
AcDbDictionary
0
ENDSEC
0
EOF
