0
SECTION
2
HEADER
9
$INSUNITS
70
4
9
$ACADVER
1
AC1014
9
$HANDSEED
5
FFFF
0
ENDSEC
0
SECTION
2
TABLES
0
TABLE
2
VPORT
5
8
100
AcDbSymbolTable
0
ENDTAB
0
TABLE
2
LTYPE
5
5
100
AcDbSymbolTable
0
LTYPE
5
14
100
AcDbSymbolTableRecord
100
AcDbLinetypeTableRecord
2
BYBLOCK
70
0
0
LTYPE
5
15
100
AcDbSymbolTableRecord
100
AcDbLinetypeTableRecord
2
BYLAYER
70
0
0
ENDTAB
0
TABLE
2
LAYER
5
2
100
AcDbSymbolTable
70
2
0
LAYER
5
50
100
AcDbSymbolTableRecord
100
AcDbLayerTableRecord
2
0
70
0
6
CONTINUOUS
0
ENDTAB
0
TABLE
2
STYLE
5
3
100
AcDbSymbolTable
70
1
0
STYLE
5
11
100
AcDbSymbolTableRecord
100
AcDbTextStyleTableRecord
2
STANDARD
70
0
0
ENDTAB
0
TABLE
2
VIEW
5
6
100
AcDbSymbolTable
70
0
0
ENDTAB
0
TABLE
2
UCS
5
7
100
AcDbSymbolTable
70
0
0
ENDTAB
0
TABLE
2
APPID
5
9
100
AcDbSymbolTable
70
2
0
APPID
5
12
100
AcDbSymbolTableRecord
100
AcDbRegAppTableRecord
2
ACAD
70
0
0
ENDTAB
0
TABLE
2
DIMSTYLE
5
A
100
AcDbSymbolTable
70
1
0
ENDTAB
0
TABLE
2
BLOCK_RECORD
5
1
100
AcDbSymbolTable
70
1
0
BLOCK_RECORD
5
1F
100
AcDbSymbolTableRecord
100
AcDbBlockTableRecord
2
*MODEL_SPACE
0
BLOCK_RECORD
5
1B
100
AcDbSymbolTableRecord
100
AcDbBlockTableRecord
2
*PAPER_SPACE
0
ENDTAB
0
ENDSEC
0
SECTION
2
BLOCKS
0
BLOCK
5
20
100
AcDbEntity
100
AcDbBlockBegin
2
*MODEL_SPACE
0
ENDBLK
5
21
100
AcDbEntity
100
AcDbBlockEnd
0
BLOCK
5
1C
100
AcDbEntity
100
AcDbBlockBegin
2
*PAPER_SPACE
0
ENDBLK
5
1D
100
AcDbEntity
100
AcDbBlockEnd
0
ENDSEC
0
SECTION
2
ENTITIES
0
LWPOLYLINE
5
100
100
AcDbEntity
8
0
100
AcDbPolyline
90
52
70
1
43
0.0
10
-53.730218505859341
20
-22.921000000000006
10
-53.730218505859341
20
0
10
-56.270218505859333
20
0
10
-56.270218505859333
20
-22.921000000000006
10
-62.711218505859335
20
-22.921000000000006
10
-62.711218505859335
20
-20.381000000000004
10
-77.711218505859335
20
-20.381000000000004
10
-77.711218505859335
20
-22.921000000000006
10
-87.711218505859335
20
-22.921000000000006
10
-87.711218505859335
20
-20.381000000000004
10
-102.71121850585934
20
-20.381000000000004
10
-102.71121850585934
20
-22.921000000000006
10
-109.15221850585934
20
-22.921000000000006
10
-109.15221850585934
20
0
10
-111.69221850585934
20
0
10
-111.69221850585934
20
22.920999999999996
10
111.69221850585934
20
22.920999999999996
10
111.69221850585934
20
0
10
109.15221850585934
20
0
10
109.15221850585934
20
-22.921000000000006
10
102.71124414523544
20
-22.921000000000006
10
102.71121850062866
20
-20.379963419562035
10
87.711218501392551
20
-20.380114802310636
10
87.711244144471578
20
-22.921000000000006
10
77.71124414396229
20
-22.921000000000006
10
77.711218501901811
20
-20.380215724143032
10
62.711218502665709
20
-20.380367106891633
10
62.711244143198392
20
-22.921000000000006
10
56.270218505859333
20
-22.921000000000006
10
56.270218505859333
20
0
10
53.730218505859355
20
0
10
53.730218505859355
20
-22.921000000000006
10
47.500244142423789
20
-22.921000000000006
10
47.500218503440372
20
-20.380520619090898
10
32.500218504204256
20
-20.3806720018395
10
32.50024414165992
20
-22.921000000000006
10
22.500244141150656
20
-22.921000000000006
10
22.500218504713523
20
-20.380772923671895
10
7.5002185054774095
20
-20.380924306420496
10
7.5002441403867515
20
-22.921000000000006
10
1.2697814941406627
20
-22.921000000000006
10
1.2697814941406804
20
0
10
-1.2702185058593329
20
0
10
-1.2702185058593152
20
-22.921000000000006
10
-7.5002185058593618
20
-22.921000000000006
10
-7.5002185058593618
20
-20.381000000000004
10
-22.500218505859362
20
-20.381000000000004
10
-22.500218505859362
20
-22.921000000000006
10
-32.500218505859365
20
-22.921000000000006
10
-32.500218505859365
20
-20.381000000000004
10
-47.500218505859365
20
-20.381000000000004
10
-47.500218505859365
20
-22.921000000000006
0
LWPOLYLINE
5
101
100
AcDbEntity
8
0
100
AcDbPolyline
90
52
70
1
43
0.0
10
-77.457218505859331
20
-23.175000000000004
10
-87.965218505859326
20
-23.175000000000004
10
-87.965218505859326
20
-20.635000000000005
10
-102.45721850585934
20
-20.635000000000005
10
-102.45721850585934
20
-23.175000000000004
10
-109.40621850585933
20
-23.175000000000004
10
-109.40621850585933
20
-0.254
10
-111.94621850585933
20
-0.25399999999999867
10
-111.94621850585933
20
23.174999999999994
10
111.94621850585933
20
23.174999999999994
10
111.94621850585933
20
-0.254
10
109.40621850585933
20
-0.25399999999999867
10
109.40621850585933
20
-23.175000000000004
10
102.45724670863706
20
-23.175000000000004
10
102.45722106405614
20
-20.633965982963645
10
87.965221064794164
20
-20.634112238883162
10
87.965246707899055
20
-23.175000000000004
10
77.457246707363907
20
-23.175000000000004
10
77.457221065329293
20
-20.634218287544641
10
62.965221066067308
20
-20.634364543464159
10
62.965246706625862
20
-23.175000000000004
10
56.016218505859328
20
-23.175000000000004
10
56.016218505859328
20
-0.254
10
53.98421850585936
20
-0.25399999999999867
10
53.98421850585936
20
-23.175000000000004
10
47.246246705825399
20
-23.175000000000004
10
47.246221066867847
20
-20.634523182492508
10
32.754221067605869
20
-20.634669438412025
10
32.754246705087404
20
-23.175000000000004
10
22.246246704552263
20
-23.175000000000004
10
22.246221068140997
20
-20.634775487073505
10
7.7542210688790174
20
-20.634921742993022
10
7.7542467038142293
20
-23.175000000000004
10
1.0157814941406624
20
-23.175000000000004
10
1.01578149414068
20
-0.254
10
-1.0162185058593327
20
-0.25399999999999867
10
-1.0162185058593154
20
-23.175000000000004
10
-7.7542185058593613
20
-23.175000000000004
10
-7.7542185058593605
20
-20.635000000000005
10
-22.246218505859364
20
-20.635000000000005
10
-22.246218505859364
20
-23.175000000000004
10
-32.754218505859363
20
-23.175000000000004
10
-32.754218505859363
20
-20.635000000000005
10
-47.24621850585936
20
-20.635000000000005
10
-47.24621850585936
20
-23.175000000000004
10
-53.984218505859339
20
-23.175000000000004
10
-53.984218505859339
20
-0.254
10
-56.016218505859328
20
-0.25399999999999867
10
-56.016218505859328
20
-23.175000000000004
10
-62.965218505859333
20
-23.175000000000004
10
-62.965218505859333
20
-20.635000000000005
10
-77.457218505859331
20
-20.635000000000005
0
ENDSEC
0
SECTION
2
OBJECTS
0
DICTIONARY
5
C
100
AcDbDictionary
3
ACAD_GROUP
350
D
3
ACAD_MLINESTYLE
350
17
0
DICTIONARY
5
D
100
AcDbDictionary
0
DICTIONARY
5
1A
330
C
100
AcDbDictionary
0
DICTIONARY
5
17
100
AcDbDictionary
0
ENDSEC
0
EOF
