0
SECTION
2
HEADER
9
$INSUNITS
70
4
9
$ACADVER
1
AC1014
9
$HANDSEED
5
FFFF
0
ENDSEC
0
SECTION
2
TABLES
0
TABLE
2
VPORT
5
8
100
AcDbSymbolTable
0
ENDTAB
0
TABLE
2
LTYPE
5
5
100
AcDbSymbolTable
0
LTYPE
5
14
100
AcDbSymbolTableRecord
100
AcDbLinetypeTableRecord
2
BYBLOCK
70
0
0
LTYPE
5
15
100
AcDbSymbolTableRecord
100
AcDbLinetypeTableRecord
2
BYLAYER
70
0
0
ENDTAB
0
TABLE
2
LAYER
5
2
100
AcDbSymbolTable
70
2
0
LAYER
5
50
100
AcDbSymbolTableRecord
100
AcDbLayerTableRecord
2
0
70
0
6
CONTINUOUS
0
ENDTAB
0
TABLE
2
STYLE
5
3
100
AcDbSymbolTable
70
1
0
STYLE
5
11
100
AcDbSymbolTableRecord
100
AcDbTextStyleTableRecord
2
STANDARD
70
0
0
ENDTAB
0
TABLE
2
VIEW
5
6
100
AcDbSymbolTable
70
0
0
ENDTAB
0
TABLE
2
UCS
5
7
100
AcDbSymbolTable
70
0
0
ENDTAB
0
TABLE
2
APPID
5
9
100
AcDbSymbolTable
70
2
0
APPID
5
12
100
AcDbSymbolTableRecord
100
AcDbRegAppTableRecord
2
ACAD
70
0
0
ENDTAB
0
TABLE
2
DIMSTYLE
5
A
100
AcDbSymbolTable
70
1
0
ENDTAB
0
TABLE
2
BLOCK_RECORD
5
1
100
AcDbSymbolTable
70
1
0
BLOCK_RECORD
5
1F
100
AcDbSymbolTableRecord
100
AcDbBlockTableRecord
2
*MODEL_SPACE
0
BLOCK_RECORD
5
1B
100
AcDbSymbolTableRecord
100
AcDbBlockTableRecord
2
*PAPER_SPACE
0
ENDTAB
0
ENDSEC
0
SECTION
2
BLOCKS
0
BLOCK
5
20
100
AcDbEntity
100
AcDbBlockBegin
2
*MODEL_SPACE
0
ENDBLK
5
21
100
AcDbEntity
100
AcDbBlockEnd
0
BLOCK
5
1C
100
AcDbEntity
100
AcDbBlockBegin
2
*PAPER_SPACE
0
ENDBLK
5
1D
100
AcDbEntity
100
AcDbBlockEnd
0
ENDSEC
0
SECTION
2
ENTITIES
0
LWPOLYLINE
5
100
100
AcDbEntity
8
0
100
AcDbPolyline
90
18
70
1
43
0.0
10
38.383890747070417
20
-0.90599999999999348
10
38.383890747070488
20
-20.906000000000006
10
24.147742410659028
20
-20.906000000000006
10
24.147742410659028
20
-23.446000000000005
10
7.4810757439924203
20
-23.446000000000005
10
7.4810757439924203
20
-20.906000000000006
10
-9.1855909226742938
20
-20.906000000000006
10
-9.1855909226742938
20
-23.446000000000005
10
-25.852257589340937
20
-23.446000000000005
10
-25.852257589340937
20
-20.906000000000006
10
-38.383890747070488
20
-20.906000000000002
10
-38.383890747070488
20
3.4461146728464231
10
-40.923890747070502
20
3.4461146728464231
10
-40.923890747070502
20
23.445999999999994
10
-37.299955745843086
20
23.446000000000016
42
0.92198822573902128
10
39.14773723998394
20
23.445999999999998
10
40.923890747070502
20
23.445999999999998
10
40.923890747070431
20
-0.90599999999999348
0
LWPOLYLINE
5
101
100
AcDbEntity
8
0
100
AcDbPolyline
90
18
70
1
43
0.0
10
38.91283041400618
20
23.699999999999992
10
41.177890747070506
20
23.699999999999996
10
41.177890747070435
20
-1.1599999999999935
10
38.637890747070415
20
-1.1599999999999921
10
38.637890747070486
20
-21.160000000000004
10
24.401742410659025
20
-21.160000000000004
10
24.401742410659025
20
-23.700000000000006
10
7.2270757439924207
20
-23.700000000000006
10
7.2270757439924225
20
-21.160000000000004
10
-8.9315909226742942
20
-21.160000000000004
10
-8.931590922674296
20
-23.700000000000006
10
-26.106257589340935
20
-23.700000000000006
10
-26.106257589340935
20
-21.160000000000004
10
-38.637890747070486
20
-21.16
10
-38.637890747070486
20
3.1921146728464231
10
-41.177890747070506
20
3.1921146728464223
10
-41.177890747070506
20
23.699999999999992
10
-37.065048919865326
20
23.700000000000014
42
0.92768939375255555
0
ENDSEC
0
SECTION
2
OBJECTS
0
DICTIONARY
5
C
100
AcDbDictionary
3
ACAD_GROUP
350
D
3
ACAD_MLINESTYLE
350
17
0
DICTIONARY
5
D
100
AcDbDictionary
0
DICTIONARY
5
1A
330
C
100
AcDbDictionary
0
DICTIONARY
5
17
100
AcDbDictionary
0
ENDSEC
0
EOF
