0
SECTION
2
HEADER
9
$INSUNITS
70
4
9
$ACADVER
1
AC1014
9
$HANDSEED
5
FFFF
0
ENDSEC
0
SECTION
2
TABLES
0
TABLE
2
VPORT
5
8
100
AcDbSymbolTable
0
ENDTAB
0
TABLE
2
LTYPE
5
5
100
AcDbSymbolTable
0
LTYPE
5
14
100
AcDbSymbolTableRecord
100
AcDbLinetypeTableRecord
2
BYBLOCK
70
0
0
LTYPE
5
15
100
AcDbSymbolTableRecord
100
AcDbLinetypeTableRecord
2
BYLAYER
70
0
0
ENDTAB
0
TABLE
2
LAYER
5
2
100
AcDbSymbolTable
70
2
0
LAYER
5
50
100
AcDbSymbolTableRecord
100
AcDbLayerTableRecord
2
0
70
0
6
CONTINUOUS
0
ENDTAB
0
TABLE
2
STYLE
5
3
100
AcDbSymbolTable
70
1
0
STYLE
5
11
100
AcDbSymbolTableRecord
100
AcDbTextStyleTableRecord
2
STANDARD
70
0
0
ENDTAB
0
TABLE
2
VIEW
5
6
100
AcDbSymbolTable
70
0
0
ENDTAB
0
TABLE
2
UCS
5
7
100
AcDbSymbolTable
70
0
0
ENDTAB
0
TABLE
2
APPID
5
9
100
AcDbSymbolTable
70
2
0
APPID
5
12
100
AcDbSymbolTableRecord
100
AcDbRegAppTableRecord
2
ACAD
70
0
0
ENDTAB
0
TABLE
2
DIMSTYLE
5
A
100
AcDbSymbolTable
70
1
0
ENDTAB
0
TABLE
2
BLOCK_RECORD
5
1
100
AcDbSymbolTable
70
1
0
BLOCK_RECORD
5
1F
100
AcDbSymbolTableRecord
100
AcDbBlockTableRecord
2
*MODEL_SPACE
0
BLOCK_RECORD
5
1B
100
AcDbSymbolTableRecord
100
AcDbBlockTableRecord
2
*PAPER_SPACE
0
ENDTAB
0
ENDSEC
0
SECTION
2
BLOCKS
0
BLOCK
5
20
100
AcDbEntity
100
AcDbBlockBegin
2
*MODEL_SPACE
0
ENDBLK
5
21
100
AcDbEntity
100
AcDbBlockEnd
0
BLOCK
5
1C
100
AcDbEntity
100
AcDbBlockBegin
2
*PAPER_SPACE
0
ENDBLK
5
1D
100
AcDbEntity
100
AcDbBlockEnd
0
ENDSEC
0
SECTION
2
ENTITIES
0
LWPOLYLINE
5
100
100
AcDbEntity
8
0
100
AcDbPolyline
90
4
70
1
43
0.0
10
15.539999999999981
20
-20.607885327153568
10
15.539999999999981
20
-0.60799999999999521
10
12.999999999999986
20
-0.60799999999999965
10
12.999999999999986
20
-20.607885327153568
0
LWPOLYLINE
5
101
100
AcDbEntity
8
0
100
AcDbPolyline
90
4
70
1
43
0.0
10
-5.8420000000000138
20
-0.60799999999999965
10
-8.3820000000000121
20
-0.60799999999999965
10
-8.3820000000000086
20
-20.607885327153568
10
-5.8420000000000138
20
-20.607885327153568
0
LWPOLYLINE
5
102
100
AcDbEntity
8
0
100
AcDbPolyline
90
24
70
1
43
0.0
10
-39.999999999999936
20
-44.959999999999994
10
-39.999999999999936
20
-31.719478857427074
10
-28.800000000000153
20
-31.71947885742707
10
-28.800000000000161
20
-22.21947885742707
10
-39.999999999999936
20
-22.219478857427077
10
-39.999999999999936
20
47.5
10
37.459999999999944
20
47.5
10
37.459999999999944
20
42.5
10
39.999999999999943
20
42.5
10
39.999999999999943
20
32.500000000000007
10
37.459999999999944
20
32.500000000000007
10
37.459999999999944
20
-22.607885327153568
10
14.538999999999952
20
-22.607885327153564
10
14.538999999999952
20
-25.147885327153571
10
37.459999999999944
20
-25.147885327153574
10
37.459999999999944
20
-44.959999999999994
10
25.808999999999788
20
-44.960000000000008
10
25.808999999999788
20
-47.5
10
5.8089999999998021
20
-47.5
10
5.8089999999998021
20
-44.959999999999994
10
-19.99999999999995
20
-44.960000000000008
10
-19.99999999999995
20
-47.5
10
-34.99999999999995
20
-47.5
10
-34.99999999999995
20
-44.959999999999994
0
LWPOLYLINE
5
103
100
AcDbEntity
8
0
100
AcDbPolyline
90
24
70
1
43
0.0
10
40.253999999999941
20
42.754000000000005
10
40.253999999999941
20
32.246000000000009
10
37.713999999999942
20
32.246000000000009
10
37.713999999999942
20
-22.861885327153569
10
14.792999999999951
20
-22.861885327153566
10
14.79299999999995
20
-24.893885327153569
10
37.713999999999942
20
-24.893885327153576
10
37.713999999999942
20
-45.213999999999999
10
26.062999999999789
20
-45.214000000000006
10
26.062999999999789
20
-47.754000000000005
10
5.5549999999998025
20
-47.754000000000005
10
5.5549999999998008
20
-45.213999999999999
10
-19.745999999999949
20
-45.214000000000006
10
-19.745999999999949
20
-47.754000000000005
10
-35.253999999999948
20
-47.754000000000005
10
-35.253999999999948
20
-45.213999999999999
10
-40.253999999999941
20
-45.213999999999999
10
-40.253999999999941
20
-31.465478857427076
10
-29.054000000000151
20
-31.465478857427073
10
-29.054000000000158
20
-22.473478857427068
10
-40.253999999999941
20
-22.473478857427082
10
-40.253999999999934
20
47.754000000000005
10
37.713999999999942
20
47.754000000000005
10
37.713999999999942
20
42.754000000000005
0
LWPOLYLINE
5
104
100
AcDbEntity
8
0
100
AcDbPolyline
90
4
70
1
43
0.0
10
-8.1280000000000125
20
-0.86200000000000054
10
-8.128000000000009
20
-20.35388532715357
10
-6.0960000000000134
20
-20.35388532715357
10
-6.0960000000000134
20
-0.86199999999999966
0
LWPOLYLINE
5
105
100
AcDbEntity
8
0
100
AcDbPolyline
90
4
70
1
43
0.0
10
15.28599999999998
20
-20.35388532715357
10
15.28599999999998
20
-0.86199999999999566
10
13.253999999999985
20
-0.86200000000000054
10
13.253999999999985
20
-20.35388532715357
0
ENDSEC
0
SECTION
2
OBJECTS
0
DICTIONARY
5
C
100
AcDbDictionary
3
ACAD_GROUP
350
D
3
ACAD_MLINESTYLE
350
17
0
DICTIONARY
5
D
100
AcDbDictionary
0
DICTIONARY
5
1A
330
C
100
AcDbDictionary
0
DICTIONARY
5
17
100
AcDbDictionary
0
ENDSEC
0
EOF
