0
SECTION
2
HEADER
9
$INSUNITS
70
4
9
$ACADVER
1
AC1014
9
$HANDSEED
5
FFFF
0
ENDSEC
0
SECTION
2
TABLES
0
TABLE
2
VPORT
5
8
100
AcDbSymbolTable
0
ENDTAB
0
TABLE
2
LTYPE
5
5
100
AcDbSymbolTable
0
LTYPE
5
14
100
AcDbSymbolTableRecord
100
AcDbLinetypeTableRecord
2
BYBLOCK
70
0
0
LTYPE
5
15
100
AcDbSymbolTableRecord
100
AcDbLinetypeTableRecord
2
BYLAYER
70
0
0
ENDTAB
0
TABLE
2
LAYER
5
2
100
AcDbSymbolTable
70
2
0
LAYER
5
50
100
AcDbSymbolTableRecord
100
AcDbLayerTableRecord
2
0
70
0
6
CONTINUOUS
0
ENDTAB
0
TABLE
2
STYLE
5
3
100
AcDbSymbolTable
70
1
0
STYLE
5
11
100
AcDbSymbolTableRecord
100
AcDbTextStyleTableRecord
2
STANDARD
70
0
0
ENDTAB
0
TABLE
2
VIEW
5
6
100
AcDbSymbolTable
70
0
0
ENDTAB
0
TABLE
2
UCS
5
7
100
AcDbSymbolTable
70
0
0
ENDTAB
0
TABLE
2
APPID
5
9
100
AcDbSymbolTable
70
2
0
APPID
5
12
100
AcDbSymbolTableRecord
100
AcDbRegAppTableRecord
2
ACAD
70
0
0
ENDTAB
0
TABLE
2
DIMSTYLE
5
A
100
AcDbSymbolTable
70
1
0
ENDTAB
0
TABLE
2
BLOCK_RECORD
5
1
100
AcDbSymbolTable
70
1
0
BLOCK_RECORD
5
1F
100
AcDbSymbolTableRecord
100
AcDbBlockTableRecord
2
*MODEL_SPACE
0
BLOCK_RECORD
5
1B
100
AcDbSymbolTableRecord
100
AcDbBlockTableRecord
2
*PAPER_SPACE
0
ENDTAB
0
ENDSEC
0
SECTION
2
BLOCKS
0
BLOCK
5
20
100
AcDbEntity
100
AcDbBlockBegin
2
*MODEL_SPACE
0
ENDBLK
5
21
100
AcDbEntity
100
AcDbBlockEnd
0
BLOCK
5
1C
100
AcDbEntity
100
AcDbBlockBegin
2
*PAPER_SPACE
0
ENDBLK
5
1D
100
AcDbEntity
100
AcDbBlockEnd
0
ENDSEC
0
SECTION
2
ENTITIES
0
LINE
5
100
100
AcDbEntity
8
0
100
AcDbLine
10
-68.198101754799154
20
10.000000000000004
30
0
11
-68.19810175479914
21
-55.763999999999996
31
0
0
LINE
5
101
100
AcDbEntity
8
0
100
AcDbLine
10
-57.944101754799149
20
-5.4609999999999994
30
0
11
-57.944101754799149
21
-0.12700000000000045
31
0
0
LINE
5
102
100
AcDbEntity
8
0
100
AcDbLine
10
-57.944101754799149
20
-0.12700000000000045
30
0
11
-41.606358396285088
21
-0.127
31
0
0
LINE
5
103
100
AcDbEntity
8
0
100
AcDbLine
10
-41.606358396285088
20
-0.127
30
0
11
-41.606358396285088
21
-5.4609999999999994
31
0
0
LINE
5
104
100
AcDbEntity
8
0
100
AcDbLine
10
-41.606358396285088
20
-5.4609999999999994
30
0
11
-57.944101754799149
21
-5.4609999999999994
31
0
0
LINE
5
105
100
AcDbEntity
8
0
100
AcDbLine
10
-57.944101754799149
20
-25.548999999999996
30
0
11
-57.944101754799149
21
-20.215
31
0
0
LINE
5
106
100
AcDbEntity
8
0
100
AcDbLine
10
-57.944101754799149
20
-20.215
30
0
11
-41.606358396285088
21
-20.215
31
0
0
LINE
5
107
100
AcDbEntity
8
0
100
AcDbLine
10
-41.606358396285088
20
-25.548999999999996
30
0
11
-57.944101754799149
21
-25.548999999999996
31
0
0
LINE
5
108
100
AcDbEntity
8
0
100
AcDbLine
10
-41.606358396285088
20
-20.215
30
0
11
-41.606358396285088
21
-25.548999999999996
31
0
0
LINE
5
109
100
AcDbEntity
8
0
100
AcDbLine
10
-24.76061503777105
20
-25.548999999999996
30
0
11
-24.76061503777105
21
-20.215
31
0
0
LINE
5
110
100
AcDbEntity
8
0
100
AcDbLine
10
-24.76061503777105
20
-20.215
30
0
11
-8.4228716792570104
21
-20.215
31
0
0
LINE
5
111
100
AcDbEntity
8
0
100
AcDbLine
10
-8.4228716792570122
20
-25.548999999999996
30
0
11
-24.76061503777105
21
-25.548999999999996
31
0
0
LINE
5
112
100
AcDbEntity
8
0
100
AcDbLine
10
-8.4228716792570104
20
-20.215
30
0
11
-8.4228716792570122
21
-25.548999999999996
31
0
0
LINE
5
113
100
AcDbEntity
8
0
100
AcDbLine
10
-8.4228716792570122
20
-5.4609999999999994
30
0
11
-24.76061503777105
21
-5.4609999999999994
31
0
0
LINE
5
114
100
AcDbEntity
8
0
100
AcDbLine
10
-8.4228716792570104
20
-0.127
30
0
11
-8.4228716792570122
21
-5.4609999999999994
31
0
0
LINE
5
115
100
AcDbEntity
8
0
100
AcDbLine
10
-24.76061503777105
20
-0.12700000000000045
30
0
11
-8.4228716792570104
21
-0.127
31
0
0
LINE
5
116
100
AcDbEntity
8
0
100
AcDbLine
10
-24.76061503777105
20
-5.4609999999999994
30
0
11
-24.76061503777105
21
-0.12700000000000045
31
0
0
ARC
5
117
100
AcDbEntity
8
0
100
AcDbCircle
10
-58.071101754799145
20
10
30
0
40
10.126999999999999
100
AcDbArc
50
19.471220634490635
51
180
0
ARC
5
118
100
AcDbEntity
8
0
100
AcDbCircle
10
-43.928966131068208
20
14.999999999999984
30
0
40
4.8729999999999842
100
AcDbArc
50
199.47122063449066
51
270.00000000000034
0
LINE
5
119
100
AcDbEntity
8
0
100
AcDbLine
10
43.928966131068201
20
10.127000000000002
30
0
11
-43.928966131068179
21
10.126999999999999
31
0
0
ARC
5
120
100
AcDbEntity
8
0
100
AcDbCircle
10
43.928966131068215
20
14.999999999999975
30
0
40
4.8729999999999745
100
AcDbArc
50
269.99999999999983
51
340.52877936550937
0
ARC
5
121
100
AcDbEntity
8
0
100
AcDbCircle
10
58.071101754799145
20
10
30
0
40
10.126999999999997
100
AcDbArc
50
0
51
160.52877936550931
0
CIRCLE
5
122
100
AcDbEntity
8
0
100
AcDbCircle
10
58.071101754799145
20
10
30
0
40
2.3730000000000002
0
CIRCLE
5
123
100
AcDbEntity
8
0
100
AcDbCircle
10
-58.071101754799145
20
10
30
0
40
2.3730000000000002
0
LINE
5
124
100
AcDbEntity
8
0
100
AcDbLine
10
68.19810175479914
20
-55.763999999999989
30
0
11
68.19810175479914
21
10
31
0
0
ARC
5
125
100
AcDbEntity
8
0
100
AcDbCircle
10
58.071101754799145
20
-55.763999999999996
30
0
40
10.126999999999995
100
AcDbArc
50
-160.52877936550931
51
0
0
ARC
5
126
100
AcDbEntity
8
0
100
AcDbCircle
10
43.928966131068222
20
-60.763999999999967
30
0
40
4.8729999999999709
100
AcDbArc
50
19.471220634490447
51
90.000000000000341
0
LINE
5
127
100
AcDbEntity
8
0
100
AcDbLine
10
-43.928966131068208
20
-55.890999999999991
30
0
11
43.928966131068194
21
-55.890999999999991
31
0
0
ARC
5
128
100
AcDbEntity
8
0
100
AcDbCircle
10
-43.928966131068208
20
-60.763999999999982
30
0
40
4.8729999999999851
100
AcDbArc
50
90
51
160.52877936550942
0
ARC
5
129
100
AcDbEntity
8
0
100
AcDbCircle
10
-58.071101754799145
20
-55.763999999999996
30
0
40
10.126999999999997
100
AcDbArc
50
180
51
340.52877936550925
0
CIRCLE
5
130
100
AcDbEntity
8
0
100
AcDbCircle
10
-58.071101754799145
20
-55.763999999999996
30
0
40
2.3730000000000002
0
CIRCLE
5
131
100
AcDbEntity
8
0
100
AcDbCircle
10
58.071101754799145
20
-55.763999999999996
30
0
40
2.3730000000000002
0
LINE
5
132
100
AcDbEntity
8
0
100
AcDbLine
10
8.4228716792570317
20
-5.4609999999999994
30
0
11
8.4228716792570317
21
-0.12700000000000045
31
0
0
LINE
5
133
100
AcDbEntity
8
0
100
AcDbLine
10
8.4228716792570317
20
-0.12700000000000045
30
0
11
24.760615037771068
21
-0.127
31
0
0
LINE
5
134
100
AcDbEntity
8
0
100
AcDbLine
10
24.760615037771068
20
-5.4609999999999994
30
0
11
8.4228716792570317
21
-5.4609999999999994
31
0
0
LINE
5
135
100
AcDbEntity
8
0
100
AcDbLine
10
24.760615037771068
20
-0.127
30
0
11
24.760615037771068
21
-5.4609999999999994
31
0
0
LINE
5
136
100
AcDbEntity
8
0
100
AcDbLine
10
8.4228716792570317
20
-20.215
30
0
11
24.760615037771068
21
-20.215
31
0
0
LINE
5
137
100
AcDbEntity
8
0
100
AcDbLine
10
8.4228716792570317
20
-25.548999999999996
30
0
11
8.4228716792570317
21
-20.215
31
0
0
LINE
5
138
100
AcDbEntity
8
0
100
AcDbLine
10
24.760615037771068
20
-20.215
30
0
11
24.760615037771068
21
-25.548999999999996
31
0
0
LINE
5
139
100
AcDbEntity
8
0
100
AcDbLine
10
24.760615037771068
20
-25.548999999999996
30
0
11
8.4228716792570317
21
-25.548999999999996
31
0
0
LINE
5
140
100
AcDbEntity
8
0
100
AcDbLine
10
57.944101754799149
20
-25.548999999999996
30
0
11
41.60635839628511
21
-25.548999999999996
31
0
0
LINE
5
141
100
AcDbEntity
8
0
100
AcDbLine
10
41.60635839628511
20
-25.548999999999996
30
0
11
41.60635839628511
21
-20.215
31
0
0
LINE
5
142
100
AcDbEntity
8
0
100
AcDbLine
10
41.60635839628511
20
-20.215
30
0
11
57.944101754799149
21
-20.215
31
0
0
LINE
5
143
100
AcDbEntity
8
0
100
AcDbLine
10
57.944101754799149
20
-20.215
30
0
11
57.944101754799149
21
-25.548999999999996
31
0
0
LINE
5
144
100
AcDbEntity
8
0
100
AcDbLine
10
41.60635839628511
20
-0.12700000000000045
30
0
11
57.944101754799149
21
-0.127
31
0
0
LINE
5
145
100
AcDbEntity
8
0
100
AcDbLine
10
41.60635839628511
20
-5.4609999999999994
30
0
11
41.60635839628511
21
-0.12700000000000045
31
0
0
LINE
5
146
100
AcDbEntity
8
0
100
AcDbLine
10
57.944101754799149
20
-5.4609999999999994
30
0
11
41.60635839628511
21
-5.4609999999999994
31
0
0
LINE
5
147
100
AcDbEntity
8
0
100
AcDbLine
10
57.944101754799149
20
-0.127
30
0
11
57.944101754799149
21
-5.4609999999999994
31
0
0
LINE
5
148
100
AcDbEntity
8
0
100
AcDbLine
10
41.60635839628511
20
-40.302999999999997
30
0
11
57.944101754799149
21
-40.302999999999997
31
0
0
LINE
5
149
100
AcDbEntity
8
0
100
AcDbLine
10
41.60635839628511
20
-45.637
30
0
11
41.60635839628511
21
-40.302999999999997
31
0
0
LINE
5
150
100
AcDbEntity
8
0
100
AcDbLine
10
57.944101754799149
20
-45.637
30
0
11
41.60635839628511
21
-45.637
31
0
0
LINE
5
151
100
AcDbEntity
8
0
100
AcDbLine
10
57.944101754799149
20
-40.302999999999997
30
0
11
57.944101754799149
21
-45.637
31
0
0
LINE
5
152
100
AcDbEntity
8
0
100
AcDbLine
10
24.760615037771068
20
-40.302999999999997
30
0
11
24.760615037771068
21
-45.637
31
0
0
LINE
5
153
100
AcDbEntity
8
0
100
AcDbLine
10
24.760615037771068
20
-45.637
30
0
11
8.4228716792570317
21
-45.637
31
0
0
LINE
5
154
100
AcDbEntity
8
0
100
AcDbLine
10
8.4228716792570317
20
-45.637
30
0
11
8.4228716792570317
21
-40.302999999999997
31
0
0
LINE
5
155
100
AcDbEntity
8
0
100
AcDbLine
10
8.4228716792570317
20
-40.302999999999997
30
0
11
24.760615037771068
21
-40.302999999999997
31
0
0
LINE
5
156
100
AcDbEntity
8
0
100
AcDbLine
10
-8.4228716792570104
20
-40.302999999999997
30
0
11
-8.4228716792570122
21
-45.637
31
0
0
LINE
5
157
100
AcDbEntity
8
0
100
AcDbLine
10
-24.76061503777105
20
-40.302999999999997
30
0
11
-8.4228716792570104
21
-40.302999999999997
31
0
0
LINE
5
158
100
AcDbEntity
8
0
100
AcDbLine
10
-24.76061503777105
20
-45.637
30
0
11
-24.76061503777105
21
-40.302999999999997
31
0
0
LINE
5
159
100
AcDbEntity
8
0
100
AcDbLine
10
-8.4228716792570122
20
-45.637
30
0
11
-24.76061503777105
21
-45.637
31
0
0
LINE
5
160
100
AcDbEntity
8
0
100
AcDbLine
10
-41.606358396285088
20
-40.302999999999997
30
0
11
-41.606358396285088
21
-45.637
31
0
0
LINE
5
161
100
AcDbEntity
8
0
100
AcDbLine
10
-57.944101754799149
20
-40.302999999999997
30
0
11
-41.606358396285088
21
-40.302999999999997
31
0
0
LINE
5
162
100
AcDbEntity
8
0
100
AcDbLine
10
-57.944101754799149
20
-45.637
30
0
11
-57.944101754799149
21
-40.302999999999997
31
0
0
LINE
5
163
100
AcDbEntity
8
0
100
AcDbLine
10
-41.606358396285088
20
-45.637
30
0
11
-57.944101754799149
21
-45.637
31
0
0
ENDSEC
0
SECTION
2
OBJECTS
0
DICTIONARY
5
C
100
AcDbDictionary
3
ACAD_GROUP
350
D
3
ACAD_MLINESTYLE
350
17
0
DICTIONARY
5
D
100
AcDbDictionary
0
DICTIONARY
5
1A
330
C
100
AcDbDictionary
0
DICTIONARY
5
17
100
AcDbDictionary
0
ENDSEC
0
EOF
