0
SECTION
2
HEADER
9
$INSUNITS
70
4
9
$ACADVER
1
AC1014
9
$HANDSEED
5
FFFF
0
ENDSEC
0
SECTION
2
TABLES
0
TABLE
2
VPORT
5
8
100
AcDbSymbolTable
0
ENDTAB
0
TABLE
2
LTYPE
5
5
100
AcDbSymbolTable
0
LTYPE
5
14
100
AcDbSymbolTableRecord
100
AcDbLinetypeTableRecord
2
BYBLOCK
70
0
0
LTYPE
5
15
100
AcDbSymbolTableRecord
100
AcDbLinetypeTableRecord
2
BYLAYER
70
0
0
ENDTAB
0
TABLE
2
LAYER
5
2
100
AcDbSymbolTable
70
2
0
LAYER
5
50
100
AcDbSymbolTableRecord
100
AcDbLayerTableRecord
2
0
70
0
6
CONTINUOUS
0
ENDTAB
0
TABLE
2
STYLE
5
3
100
AcDbSymbolTable
70
1
0
STYLE
5
11
100
AcDbSymbolTableRecord
100
AcDbTextStyleTableRecord
2
STANDARD
70
0
0
ENDTAB
0
TABLE
2
VIEW
5
6
100
AcDbSymbolTable
70
0
0
ENDTAB
0
TABLE
2
UCS
5
7
100
AcDbSymbolTable
70
0
0
ENDTAB
0
TABLE
2
APPID
5
9
100
AcDbSymbolTable
70
2
0
APPID
5
12
100
AcDbSymbolTableRecord
100
AcDbRegAppTableRecord
2
ACAD
70
0
0
ENDTAB
0
TABLE
2
DIMSTYLE
5
A
100
AcDbSymbolTable
70
1
0
ENDTAB
0
TABLE
2
BLOCK_RECORD
5
1
100
AcDbSymbolTable
70
1
0
BLOCK_RECORD
5
1F
100
AcDbSymbolTableRecord
100
AcDbBlockTableRecord
2
*MODEL_SPACE
0
BLOCK_RECORD
5
1B
100
AcDbSymbolTableRecord
100
AcDbBlockTableRecord
2
*PAPER_SPACE
0
ENDTAB
0
ENDSEC
0
SECTION
2
BLOCKS
0
BLOCK
5
20
100
AcDbEntity
100
AcDbBlockBegin
2
*MODEL_SPACE
0
ENDBLK
5
21
100
AcDbEntity
100
AcDbBlockEnd
0
BLOCK
5
1C
100
AcDbEntity
100
AcDbBlockBegin
2
*PAPER_SPACE
0
ENDBLK
5
1D
100
AcDbEntity
100
AcDbBlockEnd
0
ENDSEC
0
SECTION
2
ENTITIES
0
LWPOLYLINE
5
100
100
AcDbEntity
8
OUTER_PROFILES
100
AcDbPolyline
90
44
70
1
43
0.0
10
118.1619743878931
20
0
10
118.1619743878931
20
10.166336161221313
10
119.59831054911439
20
10.16633616122132
10
119.59831054911436
20
9.896336161221333
10
128.32831054911435
20
9.8963361612213152
10
128.32831054911435
20
43.62633616122131
10
116.70598719394656
20
43.62633616122131
10
116.70598719394656
20
45.062672322442552
10
118.14232335516779
20
45.062672322442552
10
118.14232335516779
20
44.876685128495986
10
161.76865951638911
20
44.876685128496021
10
161.76865951638911
20
163.03865951638912
10
151.60232335516778
20
163.03865951638912
10
151.60232335516778
20
164.47499567761039
10
151.87232335516782
20
164.47499567761039
10
151.87232335516779
20
173.20499567761036
10
118.14232335516779
20
173.20499567761033
10
118.14232335516779
20
161.58267232244256
10
116.70598719394656
20
161.58267232244256
10
116.70598719394656
20
163.01900848366381
10
116.89197438789314
20
163.01900848366381
10
116.89197438789309
20
206.64534464488511
10
-1.2699999999999889
20
206.64534464488511
10
-1.2699999999999889
20
196.47900848366385
10
-2.7063361612212535
20
196.47900848366385
10
-2.7063361612212535
20
196.74900848366383
10
-11.436336161221249
20
196.7490084836638
10
-11.436336161221231
20
163.01900848366381
10
0.1859871939465485
20
163.01900848366381
10
0.1859871939465485
20
161.58267232244256
10
-1.250348967274677
20
161.58267232244256
10
-1.250348967274677
20
161.76865951638911
10
-44.876685128495978
20
161.76865951638911
10
-44.876685128495978
20
43.606685128495997
10
-34.710348967274676
20
43.606685128495997
10
-34.710348967274669
20
42.170348967274634
10
-34.980348967274651
20
42.170348967274656
10
-34.980348967274672
20
33.440348967274701
10
-1.2503489672746753
20
33.44034896727468
10
-1.250348967274677
20
45.062672322442552
10
0.1859871939465485
20
45.062672322442552
10
0.1859871939465485
20
43.62633616122131
10
3.5527136788005009e-14
20
43.62633616122131
10
0
20
0
0
LWPOLYLINE
5
101
100
AcDbEntity
8
INTERIOR_PROFILES
100
AcDbPolyline
90
4
70
1
43
0.0
10
36.455987193946541
20
13.486336161221185
10
36.455987193946541
20
17.486336161221182
10
52.4654202994153
20
17.486336161221182
10
52.4654202994153
20
13.486336161221185
0
CIRCLE
5
102
100
AcDbEntity
8
INTERIOR_PROFILES
100
AcDbCircle
10
102.89598719394655
20
58.872672322442554
30
0
40
2.0000000000000018
0
CIRCLE
5
103
100
AcDbEntity
8
INTERIOR_PROFILES
100
AcDbCircle
10
102.89598719394655
20
147.77267232244256
30
0
40
1.9999999999999929
0
CIRCLE
5
104
100
AcDbEntity
8
INTERIOR_PROFILES
100
AcDbCircle
10
13.995987193946533
20
147.77267232244256
30
0
40
1.9999999999999929
0
CIRCLE
5
105
100
AcDbEntity
8
INTERIOR_PROFILES
100
AcDbCircle
10
13.995987193946533
20
58.872672322442554
30
0
40
2.0000000000000018
0
LWPOLYLINE
5
106
100
AcDbEntity
8
INTERIOR_PROFILES
100
AcDbPolyline
90
4
70
1
43
0.0
10
-27.390348967274818
20
60.39467232244256
10
-27.390348967274818
20
74.114672322442559
10
-23.390348967274818
20
74.114672322442559
10
-23.390348967274818
20
60.39467232244256
0
CIRCLE
5
107
100
AcDbEntity
8
INTERIOR_PROFILES
100
AcDbCircle
10
46.976745075236543
20
186.97900848366385
30
0
40
1.5000000000000036
0
CIRCLE
5
108
100
AcDbEntity
8
INTERIOR_PROFILES
100
AcDbCircle
10
46.976745075236543
20
178.97900848366385
30
0
40
2.5
0
CIRCLE
5
109
100
AcDbEntity
8
INTERIOR_PROFILES
100
AcDbCircle
10
-25.210348967274804
20
103.28343020373256
30
0
40
1.4999999999999991
0
CIRCLE
5
110
100
AcDbEntity
8
INTERIOR_PROFILES
100
AcDbCircle
10
69.836745075236536
20
186.97900848366385
30
0
40
1.5000000000000036
0
CIRCLE
5
111
100
AcDbEntity
8
INTERIOR_PROFILES
100
AcDbCircle
10
92.696745075236535
20
178.97900848366385
30
0
40
2.5
0
CIRCLE
5
112
100
AcDbEntity
8
INTERIOR_PROFILES
100
AcDbCircle
10
24.116745075236548
20
186.97900848366385
30
0
40
1.4999999999999991
0
CIRCLE
5
113
100
AcDbEntity
8
INTERIOR_PROFILES
100
AcDbCircle
10
92.696745075236535
20
186.97900848366385
30
0
40
1.5000000000000036
0
LWPOLYLINE
5
114
100
AcDbEntity
8
INTERIOR_PROFILES
100
AcDbPolyline
90
4
70
1
43
0.0
10
98.945987193946536
20
35.326336161221256
10
98.945987193946536
20
26.246336161221254
10
58.585987193946551
20
26.246336161221254
10
58.585987193946551
20
35.326336161221256
0
CIRCLE
5
115
100
AcDbEntity
8
INTERIOR_PROFILES
100
AcDbCircle
10
69.836745075236536
20
178.97900848366385
30
0
40
2.5
0
CIRCLE
5
116
100
AcDbEntity
8
INTERIOR_PROFILES
100
AcDbCircle
10
24.116745075236548
20
178.97900848366385
30
0
40
2.5
0
CIRCLE
5
117
100
AcDbEntity
8
INTERIOR_PROFILES
100
AcDbCircle
10
-17.210348967274808
20
103.28343020373256
30
0
40
2.5
0
CIRCLE
5
118
100
AcDbEntity
8
INTERIOR_PROFILES
100
AcDbCircle
10
142.50732335516776
20
49.427672322442731
30
0
40
1.5000000000000036
0
CIRCLE
5
119
100
AcDbEntity
8
INTERIOR_PROFILES
100
AcDbCircle
10
127.50732335516776
20
49.427672322442717
30
0
40
1.5000000000000036
0
CIRCLE
5
120
100
AcDbEntity
8
INTERIOR_PROFILES
100
AcDbCircle
10
-10.615348967274667
20
37.805348967274611
30
0
40
1.4999999999999991
0
CIRCLE
5
121
100
AcDbEntity
8
INTERIOR_PROFILES
100
AcDbCircle
10
156.76865951638911
20
78.322672322442713
30
0
40
1.5000000000000036
0
CIRCLE
5
122
100
AcDbEntity
8
INTERIOR_PROFILES
100
AcDbCircle
10
-25.615348967274691
20
157.21767232244258
30
0
40
1.4999999999999991
0
CIRCLE
5
123
100
AcDbEntity
8
INTERIOR_PROFILES
100
AcDbCircle
10
58.445987193946678
20
5.0000000000000355
30
0
40
1.5000000000000002
0
CIRCLE
5
124
100
AcDbEntity
8
INTERIOR_PROFILES
100
AcDbCircle
10
-39.876685128495993
20
128.32267232244274
30
0
40
1.5000000000000036
0
CIRCLE
5
125
100
AcDbEntity
8
INTERIOR_PROFILES
100
AcDbCircle
10
4.5509871939467494
20
34.261336161221372
30
0
40
1.5000000000000002
0
CIRCLE
5
126
100
AcDbEntity
8
INTERIOR_PROFILES
100
AcDbCircle
10
123.96331054911431
20
19.261336161221323
30
0
40
1.4999999999999991
0
CIRCLE
5
127
100
AcDbEntity
8
INTERIOR_PROFILES
100
AcDbCircle
10
108.44598719394668
20
5.0000000000000355
30
0
40
1.5000000000000002
0
CIRCLE
5
128
100
AcDbEntity
8
INTERIOR_PROFILES
100
AcDbCircle
10
8.445987193946678
20
5.0000000000000355
30
0
40
1.5000000000000002
0
CIRCLE
5
129
100
AcDbEntity
8
INTERIOR_PROFILES
100
AcDbCircle
10
112.34098719394657
20
187.38400848366382
30
0
40
1.5000000000000036
0
CIRCLE
5
130
100
AcDbEntity
8
INTERIOR_PROFILES
100
AcDbCircle
10
-10.615348967274688
20
157.21767232244258
30
0
40
1.5000000000000002
0
CIRCLE
5
131
100
AcDbEntity
8
INTERIOR_PROFILES
100
AcDbCircle
10
-39.876685128496014
20
78.322672322442713
30
0
40
1.5000000000000036
0
CIRCLE
5
132
100
AcDbEntity
8
INTERIOR_PROFILES
100
AcDbCircle
10
156.76865951638911
20
128.32267232244271
30
0
40
1.5000000000000036
0
CIRCLE
5
133
100
AcDbEntity
8
INTERIOR_PROFILES
100
AcDbCircle
10
-7.0713361612212395
20
172.38400848366382
30
0
40
1.4999999999999858
0
CIRCLE
5
134
100
AcDbEntity
8
INTERIOR_PROFILES
100
AcDbCircle
10
123.96331054911441
20
34.261336161221323
30
0
40
1.4999999999999991
0
CIRCLE
5
135
100
AcDbEntity
8
INTERIOR_PROFILES
100
AcDbCircle
10
-25.615348967274674
20
37.805348967274725
30
0
40
1.4999999999999991
0
CIRCLE
5
136
100
AcDbEntity
8
INTERIOR_PROFILES
100
AcDbCircle
10
8.4459871939466602
20
201.64534464488511
30
0
40
1.4999999999999858
0
CIRCLE
5
137
100
AcDbEntity
8
INTERIOR_PROFILES
100
AcDbCircle
10
58.445987193946664
20
201.64534464488511
30
0
40
1.4999999999999858
0
CIRCLE
5
138
100
AcDbEntity
8
INTERIOR_PROFILES
100
AcDbCircle
10
112.34098719394659
20
172.38400848366382
30
0
40
1.5000000000000036
0
CIRCLE
5
139
100
AcDbEntity
8
INTERIOR_PROFILES
100
AcDbCircle
10
108.44598719394666
20
201.64534464488511
30
0
40
1.4999999999999858
0
CIRCLE
5
140
100
AcDbEntity
8
INTERIOR_PROFILES
100
AcDbCircle
10
83.445987193946664
20
201.64534464488511
30
0
40
1.4999999999999858
0
CIRCLE
5
141
100
AcDbEntity
8
INTERIOR_PROFILES
100
AcDbCircle
10
142.50732335516781
20
168.83999567761037
30
0
40
1.4999999999999858
0
CIRCLE
5
142
100
AcDbEntity
8
INTERIOR_PROFILES
100
AcDbCircle
10
127.5073233551678
20
168.83999567761037
30
0
40
1.4999999999999858
0
CIRCLE
5
143
100
AcDbEntity
8
INTERIOR_PROFILES
100
AcDbCircle
10
-7.0713361612212395
20
187.38400848366382
30
0
40
1.4999999999999858
0
CIRCLE
5
144
100
AcDbEntity
8
INTERIOR_PROFILES
100
AcDbCircle
10
4.5509871939467494
20
19.261336161221369
30
0
40
1.5000000000000002
0
CIRCLE
5
145
100
AcDbEntity
8
INTERIOR_PROFILES
100
AcDbCircle
10
33.445987193946664
20
201.64534464488511
30
0
40
1.4999999999999858
0
CIRCLE
5
146
100
AcDbEntity
8
INTERIOR_PROFILES
100
AcDbCircle
10
156.76865951638911
20
153.32267232244271
30
0
40
1.5000000000000036
0
CIRCLE
5
147
100
AcDbEntity
8
INTERIOR_PROFILES
100
AcDbCircle
10
33.445987193946678
20
5.0000000000000355
30
0
40
1.5000000000000002
0
CIRCLE
5
148
100
AcDbEntity
8
INTERIOR_PROFILES
100
AcDbCircle
10
-39.876685128495993
20
103.3226723224427
30
0
40
1.5000000000000036
0
CIRCLE
5
149
100
AcDbEntity
8
INTERIOR_PROFILES
100
AcDbCircle
10
156.76865951638911
20
53.322672322442713
30
0
40
1.5000000000000036
0
CIRCLE
5
150
100
AcDbEntity
8
INTERIOR_PROFILES
100
AcDbCircle
10
83.445987193946678
20
5.0000000000000355
30
0
40
1.5000000000000002
0
CIRCLE
5
151
100
AcDbEntity
8
INTERIOR_PROFILES
100
AcDbCircle
10
156.76865951638911
20
103.3226723224427
30
0
40
1.5000000000000036
0
CIRCLE
5
152
100
AcDbEntity
8
INTERIOR_PROFILES
100
AcDbCircle
10
-39.876685128495993
20
153.32267232244271
30
0
40
1.5000000000000036
0
CIRCLE
5
153
100
AcDbEntity
8
INTERIOR_PROFILES
100
AcDbCircle
10
-39.876685128496014
20
53.322672322442713
30
0
40
1.5000000000000036
0
LINE
5
154
100
AcDbEntity
8
BEND
100
AcDbLine
10
-1.2700000000000422
20
197.19717656427446
30
4.0474031157260636e-13
11
116.89197438789313
21
197.19717656427446
31
4.0474031157260636e-13
0
LINE
5
155
100
AcDbEntity
8
BEND
100
AcDbLine
10
-34.710348967274662
20
42.888517047885308
30
2.5374933124527801e-13
11
-1.2503489672746726
21
42.888517047885308
31
3.5076710566312038e-13
0
LINE
5
156
100
AcDbEntity
8
BEND
100
AcDbLine
10
-35.428517047885364
20
43.606685128495982
30
2.0142798821901862e-13
11
-35.428517047885364
21
161.76865951638916
31
2.0142798821901862e-13
0
LINE
5
157
100
AcDbEntity
8
BEND
100
AcDbLine
10
151.60232335516778
20
163.7568275969997
30
5.2581243054237036e-13
11
118.14232335516779
21
163.7568275969997
31
3.9706045867728889e-13
0
LINE
5
158
100
AcDbEntity
8
BEND
100
AcDbLine
10
118.16197438789315
20
9.448168080610678
30
2.0563823921421586e-13
11
-1.7763568394002505e-14
21
9.448168080610678
31
2.0563823921421586e-13
0
LINE
5
159
100
AcDbEntity
8
BEND
100
AcDbLine
10
-1.9881680806105946
20
196.47900848366385
30
5.3775223991158963e-13
11
-1.9881680806105946
21
163.01900848366381
31
4.1343133643601127e-13
0
LINE
5
160
100
AcDbEntity
8
BEND
100
AcDbLine
10
152.32049143577845
20
163.0386595163892
30
4.0474031157260641e-13
11
152.32049143577845
21
44.876685128496007
31
4.0474031157260641e-13
0
LINE
5
161
100
AcDbEntity
8
BEND
100
AcDbLine
10
0.1859871939465485
20
44.344504241831928
30
3.4972025275692431e-13
11
116.70598719394656
21
44.344504241831928
31
3.4416913763379853e-13
0
LINE
5
162
100
AcDbEntity
8
BEND
100
AcDbLine
10
117.42415527455718
20
45.062672322442552
30
3.4972025275692431e-13
11
117.42415527455718
21
161.58267232244256
31
3.4861002973229915e-13
0
LINE
5
163
100
AcDbEntity
8
BEND
100
AcDbLine
10
118.88014246850369
20
10.166336161221325
30
2.5824868160770794e-13
11
118.88014246850369
21
43.626336161221317
31
3.5161500085187861e-13
0
LINE
5
164
100
AcDbEntity
8
BEND
100
AcDbLine
10
116.70598719394656
20
162.3008404030532
30
3.4972025275692431e-13
11
0.1859871939465485
21
162.3008404030532
31
3.4861002973229915e-13
0
LINE
5
165
100
AcDbEntity
8
BEND
100
AcDbLine
10
-0.53218088666404195
20
161.58267232244256
30
3.4972025275692431e-13
11
-0.53218088666404195
21
45.062672322442552
31
3.4416913763379853e-13
0
LINE
5
166
100
AcDbEntity
8
BEND_EXTENT
100
AcDbLine
10
118.16197438789315
20
8.7300000000000111
30
1.9539925233402755e-13
11
-1.7763568394002505e-14
21
8.7300000000000111
31
1.9539925233402755e-13
0
LINE
5
167
100
AcDbEntity
8
BEND_EXTENT
100
AcDbLine
10
0
20
10.166336161221313
30
2.1316282072803006e-13
11
118.1619743878931
21
10.166336161221313
31
2.1316282072803006e-13
0
LINE
5
168
100
AcDbEntity
8
BEND_EXTENT
100
AcDbLine
10
118.1619743878931
20
10.166336161221313
30
2.1316282072803006e-13
11
118.1619743878931
21
43.62633616122131
31
3.3750779948604759e-13
0
LINE
5
169
100
AcDbEntity
8
BEND_EXTENT
100
AcDbLine
10
-1.2700000000000422
20
197.91534464488507
30
4.0856207306205761e-13
11
116.89197438789313
21
197.91534464488507
31
4.0856207306205761e-13
0
LINE
5
170
100
AcDbEntity
8
BEND_EXTENT
100
AcDbLine
10
116.89197438789309
20
196.47900848366385
30
4.0412118096355698e-13
11
-1.2699999999999889
21
196.47900848366385
31
4.0412118096355698e-13
0
LINE
5
171
100
AcDbEntity
8
BEND_EXTENT
100
AcDbLine
10
-1.2699999999999889
20
196.47900848366385
30
4.0412118096355698e-13
11
-1.2699999999999889
21
163.01900848366381
31
3.730349362740526e-13
0
LINE
5
172
100
AcDbEntity
8
BEND_EXTENT
100
AcDbLine
10
-36.146685128495967
20
43.606685128495982
30
1.865174681370263e-13
11
-36.146685128495967
21
161.76865951638916
31
1.865174681370263e-13
0
LINE
5
173
100
AcDbEntity
8
BEND_EXTENT
100
AcDbLine
10
-34.710348967274676
20
161.76865951638911
30
2.1316282072803006e-13
11
-34.710348967274676
21
43.606685128495997
31
2.1316282072803006e-13
0
LINE
5
174
100
AcDbEntity
8
BEND_EXTENT
100
AcDbLine
10
-34.710348967274676
20
43.606685128495997
30
2.1316282072803006e-13
11
-1.250348967274677
21
43.606685128495997
31
3.3750779948604759e-13
0
LINE
5
175
100
AcDbEntity
8
BEND_EXTENT
100
AcDbLine
10
153.03865951638909
20
163.0386595163892
30
4.0856207306205761e-13
11
153.03865951638909
21
44.876685128496007
31
4.0856207306205761e-13
0
LINE
5
176
100
AcDbEntity
8
BEND_EXTENT
100
AcDbLine
10
151.60232335516778
20
44.876685128496021
30
4.0412118096355698e-13
11
151.60232335516778
21
163.03865951638912
31
4.0412118096355698e-13
0
LINE
5
177
100
AcDbEntity
8
BEND_EXTENT
100
AcDbLine
10
151.60232335516778
20
163.03865951638912
30
4.0412118096355698e-13
11
118.14232335516779
21
163.03865951638912
31
3.730349362740526e-13
0
LINE
5
178
100
AcDbEntity
8
BEND_EXTENT
100
AcDbLine
10
118.14232335516779
20
161.58267232244256
30
3.5083047578154947e-13
11
118.14232335516779
21
45.062672322442552
31
3.5083047578154947e-13
0
LINE
5
179
100
AcDbEntity
8
BEND_EXTENT
100
AcDbLine
10
-1.250348967274677
20
45.062672322442552
30
3.3750779948604759e-13
11
-1.250348967274677
21
161.58267232244256
31
3.3750779948604759e-13
0
LINE
5
180
100
AcDbEntity
8
BEND_EXTENT
100
AcDbLine
10
116.70598719394656
20
43.62633616122131
30
3.3750779948604759e-13
11
0.1859871939465485
21
43.62633616122131
31
3.3750779948604759e-13
0
LINE
5
181
100
AcDbEntity
8
BEND_EXTENT
100
AcDbLine
10
0.1859871939465485
20
163.01900848366381
30
3.5083047578154947e-13
11
116.70598719394656
21
163.01900848366381
31
3.5083047578154947e-13
0
LINE
5
182
100
AcDbEntity
8
BEND_EXTENT
100
AcDbLine
10
118.14232335516779
20
164.47499567761039
30
4.1078251911130792e-13
11
151.60232335516778
21
164.47499567761039
31
5.3956838996782608e-13
0
LINE
5
183
100
AcDbEntity
8
BEND_EXTENT
100
AcDbLine
10
-1.2503489672746753
20
42.170348967274634
30
3.730349362740526e-13
11
-34.710348967274669
21
42.170348967274634
31
2.6645352591003757e-13
0
LINE
5
184
100
AcDbEntity
8
BEND_EXTENT
100
AcDbLine
10
119.59831054911436
20
43.62633616122131
30
3.5305092183079978e-13
11
119.59831054911439
21
10.16633616122132
31
2.7311486405778851e-13
0
LINE
5
185
100
AcDbEntity
8
BEND_EXTENT
100
AcDbLine
10
-2.7063361612212535
20
163.01900848366384
30
4.2632564145606011e-13
11
-2.7063361612212535
21
196.47900848366385
31
5.6843418860808015e-13
0
LWPOLYLINE
5
186
100
AcDbEntity
8
BEND_EXTENT
100
AcDbPolyline
90
4
70
1
43
0.0
10
116.70598719394656
20
45.062672322442552
10
0.1859871939465485
20
45.062672322442552
10
0.1859871939465485
20
161.58267232244256
10
116.70598719394656
20
161.58267232244256
0
ENDSEC
0
SECTION
2
OBJECTS
0
DICTIONARY
5
C
100
AcDbDictionary
3
ACAD_GROUP
350
D
3
ACAD_MLINESTYLE
350
17
0
DICTIONARY
5
D
100
AcDbDictionary
0
DICTIONARY
5
1A
330
C
100
AcDbDictionary
0
DICTIONARY
5
17
100
AcDbDictionary
0
ENDSEC
0
EOF
