0
SECTION
2
HEADER
9
$INSUNITS
70
4
9
$ACADVER
1
AC1014
9
$HANDSEED
5
FFFF
0
ENDSEC
0
SECTION
2
TABLES
0
TABLE
2
VPORT
5
8
100
AcDbSymbolTable
0
ENDTAB
0
TABLE
2
LTYPE
5
5
100
AcDbSymbolTable
0
LTYPE
5
14
100
AcDbSymbolTableRecord
100
AcDbLinetypeTableRecord
2
BYBLOCK
70
0
0
LTYPE
5
15
100
AcDbSymbolTableRecord
100
AcDbLinetypeTableRecord
2
BYLAYER
70
0
0
ENDTAB
0
TABLE
2
LAYER
5
2
100
AcDbSymbolTable
70
2
0
LAYER
5
50
100
AcDbSymbolTableRecord
100
AcDbLayerTableRecord
2
0
70
0
6
CONTINUOUS
0
ENDTAB
0
TABLE
2
STYLE
5
3
100
AcDbSymbolTable
70
1
0
STYLE
5
11
100
AcDbSymbolTableRecord
100
AcDbTextStyleTableRecord
2
STANDARD
70
0
0
ENDTAB
0
TABLE
2
VIEW
5
6
100
AcDbSymbolTable
70
0
0
ENDTAB
0
TABLE
2
UCS
5
7
100
AcDbSymbolTable
70
0
0
ENDTAB
0
TABLE
2
APPID
5
9
100
AcDbSymbolTable
70
2
0
APPID
5
12
100
AcDbSymbolTableRecord
100
AcDbRegAppTableRecord
2
ACAD
70
0
0
ENDTAB
0
TABLE
2
DIMSTYLE
5
A
100
AcDbSymbolTable
70
1
0
ENDTAB
0
TABLE
2
BLOCK_RECORD
5
1
100
AcDbSymbolTable
70
1
0
BLOCK_RECORD
5
1F
100
AcDbSymbolTableRecord
100
AcDbBlockTableRecord
2
*MODEL_SPACE
0
BLOCK_RECORD
5
1B
100
AcDbSymbolTableRecord
100
AcDbBlockTableRecord
2
*PAPER_SPACE
0
ENDTAB
0
ENDSEC
0
SECTION
2
BLOCKS
0
BLOCK
5
20
100
AcDbEntity
100
AcDbBlockBegin
2
*MODEL_SPACE
0
ENDBLK
5
21
100
AcDbEntity
100
AcDbBlockEnd
0
BLOCK
5
1C
100
AcDbEntity
100
AcDbBlockBegin
2
*PAPER_SPACE
0
ENDBLK
5
1D
100
AcDbEntity
100
AcDbBlockEnd
0
ENDSEC
0
SECTION
2
ENTITIES
0
LINE
5
100
100
AcDbEntity
8
0
100
AcDbLine
10
-23.698045936460677
20
53.467259343806418
30
0
11
-23.698045936460655
21
38.152545058092116
31
0
0
LINE
5
101
100
AcDbEntity
8
0
100
AcDbLine
10
-6.6819202505051631
20
53.467259343806404
30
0
11
-23.698045936460677
21
53.467259343806418
31
0
0
LINE
5
102
100
AcDbEntity
8
0
100
AcDbLine
10
-23.698045936460655
20
38.152545058092116
30
0
11
-20.198045936460659
21
38.152545058092116
31
0
0
LINE
5
103
100
AcDbEntity
8
0
100
AcDbLine
10
-20.198045936460659
20
38.152545058092116
30
0
11
-20.198045936460659
21
23.345830772377841
31
0
0
LINE
5
104
100
AcDbEntity
8
0
100
AcDbLine
10
-20.198045936460659
20
23.345830772377841
30
0
11
-23.698045936460655
21
23.345830772377841
31
0
0
LINE
5
105
100
AcDbEntity
8
0
100
AcDbLine
10
-23.698045936460655
20
23.345830772377841
30
0
11
-23.698045936460655
21
8.0311164866635423
31
0
0
LINE
5
106
100
AcDbEntity
8
0
100
AcDbLine
10
-23.698045936460655
20
8.0311164866635423
30
0
11
-20.198045936460659
21
8.0311164866635441
31
0
0
LINE
5
107
100
AcDbEntity
8
0
100
AcDbLine
10
-20.198045936460659
20
8.0311164866635441
30
0
11
-20.198045936460659
21
-6.775597799050729
31
0
0
LINE
5
108
100
AcDbEntity
8
0
100
AcDbLine
10
-20.198045936460659
20
-6.775597799050729
30
0
11
-23.698045936460655
21
-6.7755977990507308
31
0
0
LINE
5
109
100
AcDbEntity
8
0
100
AcDbLine
10
-23.698045936460655
20
-6.7755977990507308
30
0
11
-23.698045936460655
21
-22.090312084765028
31
0
0
LINE
5
110
100
AcDbEntity
8
0
100
AcDbLine
10
-23.698045936460655
20
-22.090312084765028
30
0
11
-20.198045936460659
21
-22.090312084765028
31
0
0
LINE
5
111
100
AcDbEntity
8
0
100
AcDbLine
10
-20.198045936460659
20
-22.090312084765028
30
0
11
-20.198045936460659
21
-36.89702637047931
31
0
0
LINE
5
112
100
AcDbEntity
8
0
100
AcDbLine
10
-23.698045936460655
20
-36.89702637047931
30
0
11
-23.698045936460673
21
-52.211740656193591
31
0
0
LINE
5
113
100
AcDbEntity
8
0
100
AcDbLine
10
-20.198045936460659
20
-36.89702637047931
30
0
11
-23.698045936460655
21
-36.89702637047931
31
0
0
LINE
5
114
100
AcDbEntity
8
0
100
AcDbLine
10
-23.698045936460673
20
-52.211740656193591
30
0
11
-6.6819202505051623
21
-52.211740656193591
31
0
0
LINE
5
115
100
AcDbEntity
8
0
100
AcDbLine
10
-6.6819202505051623
20
-52.211740656193591
30
0
11
-6.6819202505051614
21
-48.711740656193598
31
0
0
LINE
5
116
100
AcDbEntity
8
0
100
AcDbLine
10
-6.6819202505051614
20
-48.711740656193598
30
0
11
9.8262054354503423
21
-48.711740656193598
31
0
0
LINE
5
117
100
AcDbEntity
8
0
100
AcDbLine
10
9.8262054354503423
20
-48.711740656193598
30
0
11
9.8262054354503423
21
-52.211740656193591
31
0
0
LINE
5
118
100
AcDbEntity
8
0
100
AcDbLine
10
9.8262054354503423
20
-52.211740656193591
30
0
11
26.842331121405852
21
-52.211740656193591
31
0
0
LINE
5
119
100
AcDbEntity
8
0
100
AcDbLine
10
26.842331121405852
20
-52.211740656193591
30
0
11
26.842331121405852
21
-48.711740656193598
31
0
0
LINE
5
120
100
AcDbEntity
8
0
100
AcDbLine
10
26.842331121405852
20
-48.711740656193598
30
0
11
43.350456807361361
21
-48.711740656193598
31
0
0
LINE
5
121
100
AcDbEntity
8
0
100
AcDbLine
10
43.350456807361361
20
-48.711740656193598
30
0
11
43.350456807361361
21
-52.211740656193591
31
0
0
LINE
5
122
100
AcDbEntity
8
0
100
AcDbLine
10
43.350456807361361
20
-52.211740656193591
30
0
11
60.366582493316862
21
-52.211740656193591
31
0
0
LINE
5
123
100
AcDbEntity
8
0
100
AcDbLine
10
60.366582493316862
20
-52.211740656193591
30
0
11
60.366582493316862
21
-48.711740656193598
31
0
0
LINE
5
124
100
AcDbEntity
8
0
100
AcDbLine
10
60.366582493316862
20
-48.711740656193598
30
0
11
76.874708179272375
21
-48.711740656193598
31
0
0
LINE
5
125
100
AcDbEntity
8
0
100
AcDbLine
10
76.874708179272375
20
-48.711740656193598
30
0
11
76.874708179272375
21
-52.211740656193591
31
0
0
LINE
5
126
100
AcDbEntity
8
0
100
AcDbLine
10
76.874708179272375
20
-52.211740656193591
30
0
11
93.890833865227876
21
-52.21174065619303
31
0
0
LINE
5
127
100
AcDbEntity
8
0
100
AcDbLine
10
93.890833865227876
20
-52.21174065619303
30
0
11
93.890833865227876
21
-48.711740656193598
31
0
0
LINE
5
128
100
AcDbEntity
8
0
100
AcDbLine
10
93.890833865227876
20
-48.711740656193598
30
0
11
110.39895955118338
21
-48.711740656193598
31
0
0
LINE
5
129
100
AcDbEntity
8
0
100
AcDbLine
10
110.39895955118338
20
-48.711740656193598
30
0
11
110.39895955118338
21
-52.211740656193591
31
0
0
LINE
5
130
100
AcDbEntity
8
0
100
AcDbLine
10
110.39895955118338
20
-52.211740656193591
30
0
11
127.4150852371389
21
-52.211740656193591
31
0
0
LINE
5
131
100
AcDbEntity
8
0
100
AcDbLine
10
127.4150852371389
20
-52.211740656193591
30
0
11
127.4150852371389
21
-36.89702637047931
31
0
0
LINE
5
132
100
AcDbEntity
8
0
100
AcDbLine
10
127.4150852371389
20
-36.89702637047931
30
0
11
123.9150852371389
21
-36.89702637047931
31
0
0
LINE
5
133
100
AcDbEntity
8
0
100
AcDbLine
10
123.9150852371389
20
-36.89702637047931
30
0
11
123.9150852371389
21
-22.090312084765028
31
0
0
LINE
5
134
100
AcDbEntity
8
0
100
AcDbLine
10
123.9150852371389
20
-22.090312084765028
30
0
11
127.4150852371389
21
-22.090312084765028
31
0
0
LINE
5
135
100
AcDbEntity
8
0
100
AcDbLine
10
127.4150852371389
20
-22.090312084765028
30
0
11
127.4150852371389
21
-6.7755977990507343
31
0
0
LINE
5
136
100
AcDbEntity
8
0
100
AcDbLine
10
127.4150852371389
20
-6.7755977990507343
30
0
11
123.9150852371389
21
-6.7755977990507352
31
0
0
LINE
5
137
100
AcDbEntity
8
0
100
AcDbLine
10
123.9150852371389
20
-6.7755977990507352
30
0
11
123.9150852371389
21
8.0311164866635458
31
0
0
LINE
5
138
100
AcDbEntity
8
0
100
AcDbLine
10
123.9150852371389
20
8.0311164866635458
30
0
11
127.4150852371389
21
8.0311164866635494
31
0
0
LINE
5
139
100
AcDbEntity
8
0
100
AcDbLine
10
127.4150852371389
20
8.0311164866635494
30
0
11
127.4150852371389
21
23.345830772377841
31
0
0
LINE
5
140
100
AcDbEntity
8
0
100
AcDbLine
10
127.4150852371389
20
23.345830772377841
30
0
11
123.9150852371389
21
23.345830772377841
31
0
0
LINE
5
141
100
AcDbEntity
8
0
100
AcDbLine
10
123.9150852371389
20
23.345830772377841
30
0
11
123.9150852371389
21
38.152545058092123
31
0
0
LINE
5
142
100
AcDbEntity
8
0
100
AcDbLine
10
123.9150852371389
20
38.152545058092123
30
0
11
127.4150852371389
21
38.152545058092123
31
0
0
LINE
5
143
100
AcDbEntity
8
0
100
AcDbLine
10
127.4150852371389
20
38.152545058092123
30
0
11
127.4150852371389
21
53.467259343806418
31
0
0
LINE
5
144
100
AcDbEntity
8
0
100
AcDbLine
10
127.4150852371389
20
53.467259343806418
30
0
11
110.39895955118338
21
53.467259343806404
31
0
0
LINE
5
145
100
AcDbEntity
8
0
100
AcDbLine
10
110.39895955118338
20
53.467259343806404
30
0
11
110.39895955118338
21
49.967259343806411
31
0
0
LINE
5
146
100
AcDbEntity
8
0
100
AcDbLine
10
110.39895955118338
20
49.967259343806411
30
0
11
93.890833865227876
21
49.967259343806411
31
0
0
LINE
5
147
100
AcDbEntity
8
0
100
AcDbLine
10
93.890833865227876
20
49.967259343806411
30
0
11
93.890833865227876
21
53.46725934380585
31
0
0
LINE
5
148
100
AcDbEntity
8
0
100
AcDbLine
10
93.890833865227876
20
53.46725934380585
30
0
11
76.874708179272375
21
53.467259343806404
31
0
0
LINE
5
149
100
AcDbEntity
8
0
100
AcDbLine
10
76.874708179272375
20
53.467259343806404
30
0
11
76.874708179272375
21
49.967259343806411
31
0
0
LINE
5
150
100
AcDbEntity
8
0
100
AcDbLine
10
76.874708179272375
20
49.967259343806411
30
0
11
60.366582493316862
21
49.967259343806411
31
0
0
LINE
5
151
100
AcDbEntity
8
0
100
AcDbLine
10
60.366582493316862
20
49.967259343806411
30
0
11
60.366582493316862
21
53.467259343806404
31
0
0
LINE
5
152
100
AcDbEntity
8
0
100
AcDbLine
10
60.366582493316862
20
53.467259343806404
30
0
11
43.350456807361361
21
53.467259343806404
31
0
0
LINE
5
153
100
AcDbEntity
8
0
100
AcDbLine
10
43.350456807361361
20
53.467259343806404
30
0
11
43.350456807361361
21
49.967259343806411
31
0
0
LINE
5
154
100
AcDbEntity
8
0
100
AcDbLine
10
43.350456807361361
20
49.967259343806411
30
0
11
26.842331121405852
21
49.967259343806411
31
0
0
LINE
5
155
100
AcDbEntity
8
0
100
AcDbLine
10
26.842331121405852
20
49.967259343806411
30
0
11
26.842331121405852
21
53.467259343806404
31
0
0
LINE
5
156
100
AcDbEntity
8
0
100
AcDbLine
10
26.842331121405852
20
53.467259343806404
30
0
11
9.8262054354503405
21
53.467259343806404
31
0
0
LINE
5
157
100
AcDbEntity
8
0
100
AcDbLine
10
-6.6819202505051614
20
49.967259343806411
30
0
11
-6.6819202505051631
21
53.467259343806404
31
0
0
LINE
5
158
100
AcDbEntity
8
0
100
AcDbLine
10
9.8262054354503423
20
49.967259343806411
30
0
11
-6.6819202505051614
21
49.967259343806411
31
0
0
LINE
5
159
100
AcDbEntity
8
0
100
AcDbLine
10
9.8262054354503405
20
53.467259343806404
30
0
11
9.8262054354503423
21
49.967259343806411
31
0
0
LINE
5
160
100
AcDbEntity
8
0
100
AcDbLine
10
4.7880852371389153
20
11.153292963479133
30
0
11
4.7880852371389153
21
-9.897774275866329
31
0
0
LINE
5
161
100
AcDbEntity
8
0
100
AcDbLine
10
-5.0710459364606724
20
11.153292963479133
30
0
11
4.7880852371389153
21
11.153292963479133
31
0
0
LINE
5
162
100
AcDbEntity
8
0
100
AcDbLine
10
-5.0710459364606724
20
-9.8977742758663307
30
0
11
-5.0710459364606724
21
11.153292963479132
31
0
0
LINE
5
163
100
AcDbEntity
8
0
100
AcDbLine
10
4.7880852371389153
20
-9.897774275866329
30
0
11
-5.0710459364606724
21
-9.8977742758663307
31
0
0
CIRCLE
5
164
100
AcDbEntity
8
0
100
AcDbCircle
10
51.788085237138901
20
-7.5764073228602644
30
0
40
24.5
0
CIRCLE
5
165
100
AcDbEntity
8
0
100
AcDbCircle
10
25.788085237138908
20
4.4235926771397356
30
0
40
2.0000000000000018
0
CIRCLE
5
166
100
AcDbEntity
8
0
100
AcDbCircle
10
77.788085237138915
20
4.4235926771397374
30
0
40
2.0000000000000018
0
CIRCLE
5
167
100
AcDbEntity
8
0
100
AcDbCircle
10
-0.14148034966087852
20
-29.534740656193598
30
0
40
1.8414999999999999
0
CIRCLE
5
168
100
AcDbEntity
8
0
100
AcDbCircle
10
-0.14148034966087852
20
30.790259343806401
30
0
40
1.8414999999999999
0
LINE
5
169
100
AcDbEntity
8
0
100
AcDbLine
10
24.547820515404318
20
29.736504436561546
30
0
11
24.547820515404318
21
38.0273475843846
31
0
0
LINE
5
170
100
AcDbEntity
8
0
100
AcDbLine
10
24.547820515404318
20
38.0273475843846
30
0
11
27.793820515404292
21
38.0273475843846
31
0
0
LINE
5
171
100
AcDbEntity
8
0
100
AcDbLine
10
27.793820515404292
20
38.0273475843846
30
0
11
27.793820515404292
21
29.736504436561546
31
0
0
LINE
5
172
100
AcDbEntity
8
0
100
AcDbLine
10
27.793820515404292
20
29.736504436561546
30
0
11
24.547820515404318
21
29.736504436561546
31
0
0
LINE
5
173
100
AcDbEntity
8
0
100
AcDbLine
10
30.788085222237736
20
27.431925995571909
30
0
11
30.788085222237733
21
40.331926025374244
31
0
0
LINE
5
174
100
AcDbEntity
8
0
100
AcDbLine
10
72.788085252040077
20
27.431925995571909
30
0
11
30.78808522223774
21
27.431925995571909
31
0
0
LINE
5
175
100
AcDbEntity
8
0
100
AcDbLine
10
30.788085222237733
20
40.331926025374244
30
0
11
72.788085252040077
21
40.331926025374244
31
0
0
LINE
5
176
100
AcDbEntity
8
0
100
AcDbLine
10
60.78350681105043
20
43.326190732207664
30
0
11
42.792663663227373
21
43.326190732207664
31
0
0
LINE
5
177
100
AcDbEntity
8
0
100
AcDbLine
10
60.78350681105043
20
46.572190732207666
30
0
11
60.78350681105043
21
43.326190732207664
31
0
0
LINE
5
178
100
AcDbEntity
8
0
100
AcDbLine
10
42.792663663227373
20
46.572190732207666
30
0
11
60.78350681105043
21
46.572190732207666
31
0
0
LINE
5
179
100
AcDbEntity
8
0
100
AcDbLine
10
42.792663663227373
20
43.326190732207664
30
0
11
42.792663663227373
21
46.572190732207666
31
0
0
LINE
5
180
100
AcDbEntity
8
0
100
AcDbLine
10
42.792663663227373
20
24.437661288738472
30
0
11
60.78350681105043
21
24.437661288738472
31
0
0
LINE
5
181
100
AcDbEntity
8
0
100
AcDbLine
10
42.792663663227373
20
21.19166128873848
30
0
11
42.792663663227373
21
24.437661288738472
31
0
0
LINE
5
182
100
AcDbEntity
8
0
100
AcDbLine
10
60.78350681105043
20
21.19166128873848
30
0
11
42.792663663227373
21
21.19166128873848
31
0
0
LINE
5
183
100
AcDbEntity
8
0
100
AcDbLine
10
60.78350681105043
20
24.437661288738472
30
0
11
60.78350681105043
21
21.19166128873848
31
0
0
LINE
5
184
100
AcDbEntity
8
0
100
AcDbLine
10
75.78234995887351
20
29.736504436561546
30
0
11
75.78234995887351
21
38.0273475843846
31
0
0
LINE
5
185
100
AcDbEntity
8
0
100
AcDbLine
10
75.78234995887351
20
38.0273475843846
30
0
11
79.028349958873491
21
38.0273475843846
31
0
0
LINE
5
186
100
AcDbEntity
8
0
100
AcDbLine
10
79.028349958873491
20
38.0273475843846
30
0
11
79.028349958873491
21
29.736504436561546
31
0
0
LINE
5
187
100
AcDbEntity
8
0
100
AcDbLine
10
79.028349958873491
20
29.736504436561546
30
0
11
75.78234995887351
21
29.736504436561546
31
0
0
CIRCLE
5
188
100
AcDbEntity
8
0
100
AcDbCircle
10
103.78808523713889
20
0.62775934380640497
30
0
40
6.3499999999999979
0
LINE
5
189
100
AcDbEntity
8
0
100
AcDbLine
10
72.788085252040077
20
40.331926025374244
30
0
11
72.788085252040077
21
27.431925995571909
31
0
0
ENDSEC
0
SECTION
2
OBJECTS
0
DICTIONARY
5
C
100
AcDbDictionary
3
ACAD_GROUP
350
D
3
ACAD_MLINESTYLE
350
17
0
DICTIONARY
5
D
100
AcDbDictionary
0
DICTIONARY
5
1A
330
C
100
AcDbDictionary
0
DICTIONARY
5
17
100
AcDbDictionary
0
ENDSEC
0
EOF
