0
SECTION
2
HEADER
9
$INSUNITS
70
4
9
$ACADVER
1
AC1014
9
$HANDSEED
5
FFFF
0
ENDSEC
0
SECTION
2
TABLES
0
TABLE
2
VPORT
5
8
100
AcDbSymbolTable
0
ENDTAB
0
TABLE
2
LTYPE
5
5
100
AcDbSymbolTable
0
LTYPE
5
14
100
AcDbSymbolTableRecord
100
AcDbLinetypeTableRecord
2
BYBLOCK
70
0
0
LTYPE
5
15
100
AcDbSymbolTableRecord
100
AcDbLinetypeTableRecord
2
BYLAYER
70
0
0
ENDTAB
0
TABLE
2
LAYER
5
2
100
AcDbSymbolTable
70
2
0
LAYER
5
50
100
AcDbSymbolTableRecord
100
AcDbLayerTableRecord
2
0
70
0
6
CONTINUOUS
0
ENDTAB
0
TABLE
2
STYLE
5
3
100
AcDbSymbolTable
70
1
0
STYLE
5
11
100
AcDbSymbolTableRecord
100
AcDbTextStyleTableRecord
2
STANDARD
70
0
0
ENDTAB
0
TABLE
2
VIEW
5
6
100
AcDbSymbolTable
70
0
0
ENDTAB
0
TABLE
2
UCS
5
7
100
AcDbSymbolTable
70
0
0
ENDTAB
0
TABLE
2
APPID
5
9
100
AcDbSymbolTable
70
2
0
APPID
5
12
100
AcDbSymbolTableRecord
100
AcDbRegAppTableRecord
2
ACAD
70
0
0
ENDTAB
0
TABLE
2
DIMSTYLE
5
A
100
AcDbSymbolTable
70
1
0
ENDTAB
0
TABLE
2
BLOCK_RECORD
5
1
100
AcDbSymbolTable
70
1
0
BLOCK_RECORD
5
1F
100
AcDbSymbolTableRecord
100
AcDbBlockTableRecord
2
*MODEL_SPACE
0
BLOCK_RECORD
5
1B
100
AcDbSymbolTableRecord
100
AcDbBlockTableRecord
2
*PAPER_SPACE
0
ENDTAB
0
ENDSEC
0
SECTION
2
BLOCKS
0
BLOCK
5
20
100
AcDbEntity
100
AcDbBlockBegin
2
*MODEL_SPACE
0
ENDBLK
5
21
100
AcDbEntity
100
AcDbBlockEnd
0
BLOCK
5
1C
100
AcDbEntity
100
AcDbBlockBegin
2
*PAPER_SPACE
0
ENDBLK
5
1D
100
AcDbEntity
100
AcDbBlockEnd
0
ENDSEC
0
SECTION
2
ENTITIES
0
LINE
5
100
100
AcDbEntity
8
0
100
AcDbLine
10
-52.839499999999987
20
28.377000000000002
30
0
11
-52.839499999999987
21
16.823000000000011
31
7.9685119438994236e-48
0
LINE
5
101
100
AcDbEntity
8
0
100
AcDbLine
10
-52.839499999999987
20
16.823000000000011
30
0
11
-49.339499999999994
21
16.823000000000011
31
0
0
LINE
5
102
100
AcDbEntity
8
0
100
AcDbLine
10
-49.339499999999994
20
16.823000000000011
30
0
11
-49.339499999999994
21
5.7770000000000099
31
-7.7913874113230252e-48
0
LINE
5
103
100
AcDbEntity
8
0
100
AcDbLine
10
-49.339499999999994
20
5.7770000000000099
30
0
11
-52.839500000000001
21
5.7770000000000135
31
0
0
LINE
5
104
100
AcDbEntity
8
0
100
AcDbLine
10
-52.839500000000001
20
5.7770000000000143
30
0
11
-52.839500000000001
21
-5.7769999999999904
31
7.9685119438994211e-48
0
LINE
5
105
100
AcDbEntity
8
0
100
AcDbLine
10
-52.839500000000001
20
-5.7769999999999921
30
0
11
-49.339499999999994
21
-5.7769999999999966
31
0
0
LINE
5
106
100
AcDbEntity
8
0
100
AcDbLine
10
-49.339499999999994
20
-5.7769999999999966
30
0
11
-49.339500000000015
21
-16.822999999999997
31
2.3780873269201121e-31
0
LINE
5
107
100
AcDbEntity
8
0
100
AcDbLine
10
-37.778785714285704
20
28.377000000000002
30
0
11
-52.839499999999987
21
28.377000000000002
31
0
0
LINE
5
108
100
AcDbEntity
8
0
100
AcDbLine
10
-37.778785714285704
20
31.877000000000002
30
0
11
-37.778785714285704
21
28.377000000000002
31
0
0
LINE
5
109
100
AcDbEntity
8
0
100
AcDbLine
10
-22.464071428571422
20
31.877000000000002
30
0
11
-37.778785714285704
21
31.877000000000002
31
0
0
LINE
5
110
100
AcDbEntity
8
0
100
AcDbLine
10
-22.464071428571422
20
28.377000000000002
30
0
11
-22.464071428571422
21
31.877000000000002
31
0
0
LINE
5
111
100
AcDbEntity
8
0
100
AcDbLine
10
-7.6573571428571299
20
28.377000000000002
30
0
11
-22.464071428571422
21
28.377000000000002
31
0
0
LINE
5
112
100
AcDbEntity
8
0
100
AcDbLine
10
-7.6573571428571299
20
31.877000000000002
30
0
11
-7.6573571428571299
21
28.377000000000002
31
0
0
LINE
5
113
100
AcDbEntity
8
0
100
AcDbLine
10
7.6573571428571476
20
31.877000000000002
30
0
11
-7.6573571428571299
21
31.877000000000002
31
0
0
LINE
5
114
100
AcDbEntity
8
0
100
AcDbLine
10
7.6573571428571485
20
28.377000000000002
30
0
11
7.6573571428571476
21
31.877000000000002
31
0
0
LINE
5
115
100
AcDbEntity
8
0
100
AcDbLine
10
22.46407142857144
20
28.377000000000002
30
0
11
7.6573571428571485
21
28.377000000000002
31
0
0
LINE
5
116
100
AcDbEntity
8
0
100
AcDbLine
10
22.46407142857144
20
31.877000000000002
30
0
11
22.46407142857144
21
28.377000000000002
31
0
0
LINE
5
117
100
AcDbEntity
8
0
100
AcDbLine
10
37.778785714285725
20
31.877000000000002
30
0
11
22.46407142857144
21
31.877000000000002
31
0
0
LINE
5
118
100
AcDbEntity
8
0
100
AcDbLine
10
37.778785714285725
20
28.377000000000002
30
0
11
37.778785714285725
21
31.877000000000002
31
-3.258621638245452e-63
0
LINE
5
119
100
AcDbEntity
8
0
100
AcDbLine
10
52.839500000000001
20
28.377000000000002
30
-4.4408920985006262e-15
11
37.778785714285725
21
28.377000000000002
31
-4.4408920985006262e-15
0
LINE
5
120
100
AcDbEntity
8
0
100
AcDbLine
10
52.839500000000008
20
16.823
30
-4.4408920985006262e-15
11
52.839500000000001
21
28.377000000000002
31
-4.4408920985006262e-15
0
LINE
5
121
100
AcDbEntity
8
0
100
AcDbLine
10
49.339500000000015
20
16.823
30
0
11
52.839500000000008
21
16.823
31
0
0
LINE
5
122
100
AcDbEntity
8
0
100
AcDbLine
10
49.339500000000015
20
5.777000000000001
30
0
11
49.339500000000015
21
16.823
31
-7.7913874113230288e-48
0
LINE
5
123
100
AcDbEntity
8
0
100
AcDbLine
10
52.839500000000015
20
5.777000000000001
30
-4.4408920985006262e-15
11
49.339500000000015
21
5.777000000000001
31
-4.4408920985006262e-15
0
LINE
5
124
100
AcDbEntity
8
0
100
AcDbLine
10
52.839500000000015
20
-5.7770000000000055
30
-4.4408920985006262e-15
11
52.839500000000015
21
5.7769999999999992
31
-4.4408920985006262e-15
0
LINE
5
125
100
AcDbEntity
8
0
100
AcDbLine
10
49.339500000000015
20
-5.777000000000001
30
0
11
52.839500000000015
21
-5.7770000000000019
31
-3.0814879110195774e-32
0
LINE
5
126
100
AcDbEntity
8
0
100
AcDbLine
10
49.339500000000015
20
-16.823000000000008
30
0
11
49.339500000000015
21
-5.7770000000000055
31
-7.7913874113230276e-48
0
LINE
5
127
100
AcDbEntity
8
0
100
AcDbLine
10
52.839500000000015
20
-16.823000000000008
30
-4.4408920985006262e-15
11
49.339500000000015
21
-16.823000000000008
31
-4.4408920985006262e-15
0
LINE
5
128
100
AcDbEntity
8
0
100
AcDbLine
10
52.839500000000001
20
-28.37700000000001
30
-4.4408920985006262e-15
11
52.839500000000015
21
-16.823000000000008
31
-4.4408920985006262e-15
0
LINE
5
129
100
AcDbEntity
8
0
100
AcDbLine
10
17.697833333333339
20
-28.37700000000001
30
0
11
52.839500000000001
21
-28.37700000000001
31
0
0
LINE
5
130
100
AcDbEntity
8
0
100
AcDbLine
10
17.697833333333339
20
-31.877000000000002
30
0
11
17.697833333333339
21
-28.37700000000001
31
0
0
LINE
5
131
100
AcDbEntity
8
0
100
AcDbLine
10
-17.697833333333325
20
-31.877000000000002
30
0
11
17.697833333333339
21
-31.877000000000002
31
0
0
LINE
5
132
100
AcDbEntity
8
0
100
AcDbLine
10
-17.697833333333328
20
-28.37700000000001
30
0
11
-17.697833333333325
21
-31.877000000000002
31
9.3533424854281682e-32
0
LINE
5
133
100
AcDbEntity
8
0
100
AcDbLine
10
-52.839499999999987
20
-28.37700000000001
30
0
11
-17.697833333333328
21
-28.37700000000001
31
0
0
LINE
5
134
100
AcDbEntity
8
0
100
AcDbLine
10
-52.839500000000015
20
-16.822999999999997
30
0
11
-52.839499999999987
21
-28.37700000000001
31
-4.1605932637827402e-34
0
LINE
5
135
100
AcDbEntity
8
0
100
AcDbLine
10
-49.339500000000015
20
-16.822999999999997
30
0
11
-52.839500000000015
21
-16.822999999999993
31
0
0
CIRCLE
5
136
100
AcDbEntity
8
0
100
AcDbCircle
10
9.8532293435482643e-15
20
-11.749999999999998
30
0
40
5
0
ENDSEC
0
SECTION
2
OBJECTS
0
DICTIONARY
5
C
100
AcDbDictionary
3
ACAD_GROUP
350
D
3
ACAD_MLINESTYLE
350
17
0
DICTIONARY
5
D
100
AcDbDictionary
0
DICTIONARY
5
1A
330
C
100
AcDbDictionary
0
DICTIONARY
5
17
100
AcDbDictionary
0
ENDSEC
0
EOF
