0
SECTION
2
HEADER
9
$INSUNITS
70
4
9
$ACADVER
1
AC1014
9
$HANDSEED
5
FFFF
0
ENDSEC
0
SECTION
2
TABLES
0
TABLE
2
VPORT
5
8
100
AcDbSymbolTable
0
ENDTAB
0
TABLE
2
LTYPE
5
5
100
AcDbSymbolTable
0
LTYPE
5
14
100
AcDbSymbolTableRecord
100
AcDbLinetypeTableRecord
2
BYBLOCK
70
0
0
LTYPE
5
15
100
AcDbSymbolTableRecord
100
AcDbLinetypeTableRecord
2
BYLAYER
70
0
0
ENDTAB
0
TABLE
2
LAYER
5
2
100
AcDbSymbolTable
70
2
0
LAYER
5
50
100
AcDbSymbolTableRecord
100
AcDbLayerTableRecord
2
0
70
0
6
CONTINUOUS
0
ENDTAB
0
TABLE
2
STYLE
5
3
100
AcDbSymbolTable
70
1
0
STYLE
5
11
100
AcDbSymbolTableRecord
100
AcDbTextStyleTableRecord
2
STANDARD
70
0
0
ENDTAB
0
TABLE
2
VIEW
5
6
100
AcDbSymbolTable
70
0
0
ENDTAB
0
TABLE
2
UCS
5
7
100
AcDbSymbolTable
70
0
0
ENDTAB
0
TABLE
2
APPID
5
9
100
AcDbSymbolTable
70
2
0
APPID
5
12
100
AcDbSymbolTableRecord
100
AcDbRegAppTableRecord
2
ACAD
70
0
0
ENDTAB
0
TABLE
2
DIMSTYLE
5
A
100
AcDbSymbolTable
70
1
0
ENDTAB
0
TABLE
2
BLOCK_RECORD
5
1
100
AcDbSymbolTable
70
1
0
BLOCK_RECORD
5
1F
100
AcDbSymbolTableRecord
100
AcDbBlockTableRecord
2
*MODEL_SPACE
0
BLOCK_RECORD
5
1B
100
AcDbSymbolTableRecord
100
AcDbBlockTableRecord
2
*PAPER_SPACE
0
ENDTAB
0
ENDSEC
0
SECTION
2
BLOCKS
0
BLOCK
5
20
100
AcDbEntity
100
AcDbBlockBegin
2
*MODEL_SPACE
0
ENDBLK
5
21
100
AcDbEntity
100
AcDbBlockEnd
0
BLOCK
5
1C
100
AcDbEntity
100
AcDbBlockBegin
2
*PAPER_SPACE
0
ENDBLK
5
1D
100
AcDbEntity
100
AcDbBlockEnd
0
ENDSEC
0
SECTION
2
ENTITIES
0
LINE
5
100
100
AcDbEntity
8
0
100
AcDbLine
10
58.794439900844282
20
31.877000000000002
30
0
11
41.778314214888766
21
31.877000000000002
31
0
0
LINE
5
101
100
AcDbEntity
8
0
100
AcDbLine
10
41.77831421488878
20
31.877000000000002
30
0
11
41.77831421488878
21
28.377000000000002
31
0
0
LINE
5
102
100
AcDbEntity
8
0
100
AcDbLine
10
41.77831421488878
20
28.377000000000002
30
0
11
25.270188528933275
21
28.377000000000002
31
0
0
LINE
5
103
100
AcDbEntity
8
0
100
AcDbLine
10
25.270188528933271
20
28.377000000000002
30
0
11
25.270188528933271
21
31.877000000000002
31
0
0
LINE
5
104
100
AcDbEntity
8
0
100
AcDbLine
10
25.270188528933271
20
31.877000000000002
30
0
11
8.2540628429777652
21
31.877000000000002
31
0
0
LINE
5
105
100
AcDbEntity
8
0
100
AcDbLine
10
8.2540628429777652
20
31.877000000000002
30
0
11
8.2540628429777652
21
28.377000000000002
31
0
0
LINE
5
106
100
AcDbEntity
8
0
100
AcDbLine
10
8.2540628429777652
20
28.377000000000002
30
0
11
-8.2540628429777474
21
28.377000000000002
31
0
0
LINE
5
107
100
AcDbEntity
8
0
100
AcDbLine
10
-8.2540628429777474
20
28.377000000000002
30
0
11
-8.2540628429777474
21
31.877000000000002
31
0
0
LINE
5
108
100
AcDbEntity
8
0
100
AcDbLine
10
-8.2540628429777474
20
31.877000000000002
30
0
11
-25.270188528933247
21
31.877000000000002
31
0
0
LINE
5
109
100
AcDbEntity
8
0
100
AcDbLine
10
-25.270188528933247
20
31.877000000000002
30
0
11
-25.270188528933247
21
28.377000000000002
31
0
0
LINE
5
110
100
AcDbEntity
8
0
100
AcDbLine
10
-25.270188528933247
20
28.377000000000002
30
0
11
-41.778314214888752
21
28.377000000000002
31
0
0
LINE
5
111
100
AcDbEntity
8
0
100
AcDbLine
10
-41.778314214888752
20
28.377000000000002
30
0
11
-41.778314214888752
21
31.877000000000002
31
0
0
LINE
5
112
100
AcDbEntity
8
0
100
AcDbLine
10
-41.778314214888752
20
31.877000000000002
30
0
11
-58.794439900844267
21
31.877000000000002
31
0
0
LINE
5
113
100
AcDbEntity
8
0
100
AcDbLine
10
-58.794439900844267
20
31.877000000000002
30
0
11
-58.794439900844267
21
28.377000000000002
31
0
0
LINE
5
114
100
AcDbEntity
8
0
100
AcDbLine
10
-58.794439900844267
20
28.377000000000002
30
0
11
-72.056565586799792
21
28.377000000000002
31
0
0
LINE
5
115
100
AcDbEntity
8
0
100
AcDbLine
10
-72.056565586799792
20
28.377000000000002
30
0
11
-72.056565586799792
21
17.077000000000012
31
0
0
LINE
5
116
100
AcDbEntity
8
0
100
AcDbLine
10
-72.056565586799792
20
17.077000000000009
30
0
11
-75.556565586799792
21
17.077000000000009
31
0
0
LINE
5
117
100
AcDbEntity
8
0
100
AcDbLine
10
-75.556565586799792
20
17.077000000000009
30
0
11
-75.556565586799792
21
5.5230000000000112
31
0
0
LINE
5
118
100
AcDbEntity
8
0
100
AcDbLine
10
-75.556565586799792
20
5.5230000000000112
30
0
11
-72.056565586799792
21
5.5230000000000112
31
0
0
LINE
5
119
100
AcDbEntity
8
0
100
AcDbLine
10
-72.056565586799792
20
5.5230000000000112
30
0
11
-72.056565586799792
21
-5.522999999999989
31
0
0
LINE
5
120
100
AcDbEntity
8
0
100
AcDbLine
10
-72.056565586799792
20
-5.522999999999989
30
0
11
-75.556565586799792
21
-5.522999999999989
31
0
0
LINE
5
121
100
AcDbEntity
8
0
100
AcDbLine
10
-75.556565586799792
20
-5.522999999999989
30
0
11
-75.556565586799792
21
-17.076999999999991
31
0
0
LINE
5
122
100
AcDbEntity
8
0
100
AcDbLine
10
-75.556565586799792
20
-17.076999999999991
30
0
11
-72.056565586799792
21
-17.076999999999991
31
0
0
LINE
5
123
100
AcDbEntity
8
0
100
AcDbLine
10
-72.056565586799792
20
-17.076999999999991
30
0
11
-72.056565586799792
21
-28.376999999999999
31
0
0
LINE
5
124
100
AcDbEntity
8
0
100
AcDbLine
10
-72.056565586799792
20
-28.376999999999999
30
0
11
-36.091782793399915
21
-28.376999999999999
31
0
0
LINE
5
125
100
AcDbEntity
8
0
100
AcDbLine
10
-36.091782793399915
20
-28.376999999999999
30
0
11
-36.091782793399915
21
-31.876999999999995
31
0
0
LINE
5
126
100
AcDbEntity
8
0
100
AcDbLine
10
-36.091782793399915
20
-31.876999999999995
30
0
11
36.091782793399901
21
-31.876999999999995
31
0
0
LINE
5
127
100
AcDbEntity
8
0
100
AcDbLine
10
36.091782793399901
20
-31.876999999999995
30
0
11
36.091782793399901
21
-28.376999999999999
31
0
0
LINE
5
128
100
AcDbEntity
8
0
100
AcDbLine
10
36.091782793399901
20
-28.376999999999999
30
0
11
72.056565586799792
21
-28.376999999999999
31
0
0
LINE
5
129
100
AcDbEntity
8
0
100
AcDbLine
10
72.056565586799792
20
-28.376999999999999
30
0
11
72.056565586799792
21
-17.076999999999991
31
0
0
LINE
5
130
100
AcDbEntity
8
0
100
AcDbLine
10
72.056565586799792
20
-17.076999999999991
30
0
11
75.556565586799792
21
-17.076999999999991
31
0
0
LINE
5
131
100
AcDbEntity
8
0
100
AcDbLine
10
75.556565586799792
20
-17.076999999999991
30
0
11
75.556565586799792
21
-5.522999999999989
31
0
0
LINE
5
132
100
AcDbEntity
8
0
100
AcDbLine
10
75.556565586799792
20
-5.522999999999989
30
0
11
72.056565586799792
21
-5.522999999999989
31
0
0
LINE
5
133
100
AcDbEntity
8
0
100
AcDbLine
10
72.056565586799792
20
-5.522999999999989
30
0
11
72.056565586799792
21
5.5230000000000112
31
0
0
LINE
5
134
100
AcDbEntity
8
0
100
AcDbLine
10
72.056565586799792
20
5.5230000000000112
30
0
11
75.556565586799792
21
5.5230000000000112
31
0
0
LINE
5
135
100
AcDbEntity
8
0
100
AcDbLine
10
75.556565586799792
20
5.5230000000000112
30
0
11
75.556565586799792
21
17.077000000000009
31
0
0
LINE
5
136
100
AcDbEntity
8
0
100
AcDbLine
10
75.556565586799792
20
17.077000000000009
30
0
11
72.056565586799792
21
17.077000000000009
31
0
0
LINE
5
137
100
AcDbEntity
8
0
100
AcDbLine
10
72.056565586799792
20
17.077000000000009
30
0
11
72.056565586799792
21
28.376999999999999
31
0
0
LINE
5
138
100
AcDbEntity
8
0
100
AcDbLine
10
72.056565586799792
20
28.376999999999999
30
0
11
58.794439900844289
21
28.376999999999999
31
0
0
LINE
5
139
100
AcDbEntity
8
0
100
AcDbLine
10
58.794439900844289
20
28.377000000000002
30
0
11
58.794439900844289
21
31.877000000000002
31
0
0
ENDSEC
0
SECTION
2
OBJECTS
0
DICTIONARY
5
C
100
AcDbDictionary
3
ACAD_GROUP
350
D
3
ACAD_MLINESTYLE
350
17
0
DICTIONARY
5
D
100
AcDbDictionary
0
DICTIONARY
5
1A
330
C
100
AcDbDictionary
0
DICTIONARY
5
17
100
AcDbDictionary
0
ENDSEC
0
EOF
