0
SECTION
2
HEADER
9
$INSUNITS
70
4
9
$ACADVER
1
AC1014
9
$HANDSEED
5
FFFF
0
ENDSEC
0
SECTION
2
TABLES
0
TABLE
2
VPORT
5
8
100
AcDbSymbolTable
0
ENDTAB
0
TABLE
2
LTYPE
5
5
100
AcDbSymbolTable
0
LTYPE
5
14
100
AcDbSymbolTableRecord
100
AcDbLinetypeTableRecord
2
BYBLOCK
70
0
0
LTYPE
5
15
100
AcDbSymbolTableRecord
100
AcDbLinetypeTableRecord
2
BYLAYER
70
0
0
ENDTAB
0
TABLE
2
LAYER
5
2
100
AcDbSymbolTable
70
2
0
LAYER
5
50
100
AcDbSymbolTableRecord
100
AcDbLayerTableRecord
2
0
70
0
6
CONTINUOUS
0
ENDTAB
0
TABLE
2
STYLE
5
3
100
AcDbSymbolTable
70
1
0
STYLE
5
11
100
AcDbSymbolTableRecord
100
AcDbTextStyleTableRecord
2
STANDARD
70
0
0
ENDTAB
0
TABLE
2
VIEW
5
6
100
AcDbSymbolTable
70
0
0
ENDTAB
0
TABLE
2
UCS
5
7
100
AcDbSymbolTable
70
0
0
ENDTAB
0
TABLE
2
APPID
5
9
100
AcDbSymbolTable
70
2
0
APPID
5
12
100
AcDbSymbolTableRecord
100
AcDbRegAppTableRecord
2
ACAD
70
0
0
ENDTAB
0
TABLE
2
DIMSTYLE
5
A
100
AcDbSymbolTable
70
1
0
ENDTAB
0
TABLE
2
BLOCK_RECORD
5
1
100
AcDbSymbolTable
70
1
0
BLOCK_RECORD
5
1F
100
AcDbSymbolTableRecord
100
AcDbBlockTableRecord
2
*MODEL_SPACE
0
BLOCK_RECORD
5
1B
100
AcDbSymbolTableRecord
100
AcDbBlockTableRecord
2
*PAPER_SPACE
0
ENDTAB
0
ENDSEC
0
SECTION
2
BLOCKS
0
BLOCK
5
20
100
AcDbEntity
100
AcDbBlockBegin
2
*MODEL_SPACE
0
ENDBLK
5
21
100
AcDbEntity
100
AcDbBlockEnd
0
BLOCK
5
1C
100
AcDbEntity
100
AcDbBlockBegin
2
*PAPER_SPACE
0
ENDBLK
5
1D
100
AcDbEntity
100
AcDbBlockEnd
0
ENDSEC
0
SECTION
2
ENTITIES
0
LINE
5
100
100
AcDbEntity
8
0
100
AcDbLine
10
-26.198045936460677
20
62.317259343806406
30
0
11
-26.198045936460673
21
44.473973629520685
31
0
0
LINE
5
101
100
AcDbEntity
8
0
100
AcDbLine
10
-8.6263646949496131
20
62.317259343806406
30
0
11
-26.198045936460677
21
62.317259343806406
31
0
0
LINE
5
102
100
AcDbEntity
8
0
100
AcDbLine
10
-26.198045936460673
20
44.473973629520685
30
0
11
-20.198045936460677
21
44.473973629520685
31
0
0
LINE
5
103
100
AcDbEntity
8
0
100
AcDbLine
10
-20.198045936460677
20
44.473973629520685
30
0
11
-20.198045936460677
21
27.138687915234971
31
0
0
LINE
5
104
100
AcDbEntity
8
0
100
AcDbLine
10
-20.198045936460677
20
27.138687915234971
30
0
11
-26.198045936460673
21
27.138687915234971
31
0
0
LINE
5
105
100
AcDbEntity
8
0
100
AcDbLine
10
-26.198045936460673
20
27.138687915234971
30
0
11
-26.198045936460673
21
9.2954022009492512
31
0
0
LINE
5
106
100
AcDbEntity
8
0
100
AcDbLine
10
-26.198045936460673
20
9.2954022009492512
30
0
11
-20.198045936460677
21
9.2954022009492547
31
0
0
LINE
5
107
100
AcDbEntity
8
0
100
AcDbLine
10
-20.198045936460677
20
9.2954022009492547
30
0
11
-20.198045936460677
21
-8.0398835133364575
31
0
0
LINE
5
108
100
AcDbEntity
8
0
100
AcDbLine
10
-20.198045936460677
20
-8.0398835133364575
30
0
11
-26.198045936460673
21
-8.0398835133364592
31
0
0
LINE
5
109
100
AcDbEntity
8
0
100
AcDbLine
10
-26.198045936460673
20
-8.0398835133364592
30
0
11
-26.198045936460673
21
-25.883169227622176
31
0
0
LINE
5
110
100
AcDbEntity
8
0
100
AcDbLine
10
-26.198045936460673
20
-25.883169227622176
30
0
11
-20.198045936460677
21
-25.883169227622176
31
0
0
LINE
5
111
100
AcDbEntity
8
0
100
AcDbLine
10
-20.198045936460677
20
-25.883169227622176
30
0
11
-20.198045936460677
21
-43.218454941907893
31
0
0
LINE
5
112
100
AcDbEntity
8
0
100
AcDbLine
10
-26.198045936460673
20
-43.218454941907893
30
0
11
-26.198045936460673
21
-61.061740656193592
31
0
0
LINE
5
113
100
AcDbEntity
8
0
100
AcDbLine
10
-20.198045936460677
20
-43.218454941907893
30
0
11
-26.198045936460673
21
-43.218454941907893
31
0
0
LINE
5
114
100
AcDbEntity
8
0
100
AcDbLine
10
-26.198045936460673
20
-61.061740656193592
30
0
11
-8.6263646949496078
21
-61.061740656193592
31
0
0
LINE
5
115
100
AcDbEntity
8
0
100
AcDbLine
10
-8.6263646949496078
20
-61.061740656193592
30
0
11
-8.6263646949496078
21
-55.061740656193592
31
0
0
LINE
5
116
100
AcDbEntity
8
0
100
AcDbLine
10
-8.6263646949496078
20
-55.061740656193592
30
0
11
8.4373165465614495
21
-55.061740656193592
31
0
0
LINE
5
117
100
AcDbEntity
8
0
100
AcDbLine
10
8.4373165465614495
20
-55.061740656193592
30
0
11
8.4373165465614512
21
-61.061740656193592
31
0
0
LINE
5
118
100
AcDbEntity
8
0
100
AcDbLine
10
8.4373165465614512
20
-61.061740656193592
30
0
11
26.00899778807252
21
-61.061740656193592
31
0
0
LINE
5
119
100
AcDbEntity
8
0
100
AcDbLine
10
26.00899778807252
20
-61.061740656193592
30
0
11
26.00899778807252
21
-55.061740656193592
31
0
0
LINE
5
120
100
AcDbEntity
8
0
100
AcDbLine
10
26.00899778807252
20
-55.061740656193592
30
0
11
43.072679029583583
21
-55.061740656193592
31
0
0
LINE
5
121
100
AcDbEntity
8
0
100
AcDbLine
10
43.072679029583583
20
-55.061740656193592
30
0
11
43.072679029583583
21
-61.061740656193592
31
0
0
LINE
5
122
100
AcDbEntity
8
0
100
AcDbLine
10
43.072679029583583
20
-61.061740656193592
30
0
11
60.644360271094641
21
-61.061740656193592
31
0
0
LINE
5
123
100
AcDbEntity
8
0
100
AcDbLine
10
60.644360271094641
20
-61.061740656193592
30
0
11
60.644360271094641
21
-55.061740656193592
31
0
0
LINE
5
124
100
AcDbEntity
8
0
100
AcDbLine
10
60.644360271094641
20
-55.061740656193592
30
0
11
77.708041512605703
21
-55.061740656193592
31
0
0
LINE
5
125
100
AcDbEntity
8
0
100
AcDbLine
10
77.708041512605703
20
-55.061740656193592
30
0
11
77.708041512605703
21
-61.061740656193606
31
0
0
LINE
5
126
100
AcDbEntity
8
0
100
AcDbLine
10
77.708041512605703
20
-61.061740656193606
30
0
11
95.27972275411679
21
-61.061740656191972
31
0
0
LINE
5
127
100
AcDbEntity
8
0
100
AcDbLine
10
95.27972275411679
20
-61.061740656191972
30
0
11
95.27972275411679
21
-55.061740656193592
31
0
0
LINE
5
128
100
AcDbEntity
8
0
100
AcDbLine
10
95.27972275411679
20
-55.061740656193592
30
0
11
112.34340399562784
21
-55.061740656193592
31
0
0
LINE
5
129
100
AcDbEntity
8
0
100
AcDbLine
10
112.34340399562784
20
-55.061740656193592
30
0
11
112.34340399562784
21
-61.061740656193592
31
0
0
LINE
5
130
100
AcDbEntity
8
0
100
AcDbLine
10
112.34340399562784
20
-61.061740656193592
30
0
11
129.91508523713892
21
-61.061740656193592
31
0
0
LINE
5
131
100
AcDbEntity
8
0
100
AcDbLine
10
129.91508523713892
20
-61.061740656193592
30
0
11
129.91508523713892
21
-43.218454941907886
31
0
0
LINE
5
132
100
AcDbEntity
8
0
100
AcDbLine
10
129.91508523713892
20
-43.218454941907886
30
0
11
123.91508523713892
21
-43.218454941907886
31
0
0
LINE
5
133
100
AcDbEntity
8
0
100
AcDbLine
10
123.91508523713892
20
-43.218454941907886
30
0
11
123.91508523713892
21
-25.883169227622169
31
0
0
LINE
5
134
100
AcDbEntity
8
0
100
AcDbLine
10
123.91508523713892
20
-25.883169227622169
30
0
11
129.91508523713892
21
-25.883169227622169
31
0
0
LINE
5
135
100
AcDbEntity
8
0
100
AcDbLine
10
129.91508523713892
20
-25.883169227622169
30
0
11
129.91508523713892
21
-8.0398835133364486
31
0
0
LINE
5
136
100
AcDbEntity
8
0
100
AcDbLine
10
129.91508523713892
20
-8.0398835133364486
30
0
11
123.91508523713892
21
-8.0398835133364503
31
0
0
LINE
5
137
100
AcDbEntity
8
0
100
AcDbLine
10
123.91508523713892
20
-8.0398835133364503
30
0
11
123.91508523713892
21
9.2954022009492636
31
0
0
LINE
5
138
100
AcDbEntity
8
0
100
AcDbLine
10
123.91508523713892
20
9.2954022009492636
30
0
11
129.91508523713892
21
9.2954022009492636
31
0
0
LINE
5
139
100
AcDbEntity
8
0
100
AcDbLine
10
129.91508523713892
20
9.2954022009492636
30
0
11
129.91508523713892
21
27.138687915234982
31
0
0
LINE
5
140
100
AcDbEntity
8
0
100
AcDbLine
10
129.91508523713892
20
27.138687915234982
30
0
11
123.91508523713892
21
27.138687915234982
31
0
0
LINE
5
141
100
AcDbEntity
8
0
100
AcDbLine
10
123.91508523713892
20
27.138687915234982
30
0
11
123.91508523713892
21
44.4739736295207
31
0
0
LINE
5
142
100
AcDbEntity
8
0
100
AcDbLine
10
123.91508523713892
20
44.4739736295207
30
0
11
129.91508523713892
21
44.4739736295207
31
0
0
LINE
5
143
100
AcDbEntity
8
0
100
AcDbLine
10
129.91508523713892
20
44.4739736295207
30
0
11
129.91508523713892
21
62.317259343806406
31
0
0
LINE
5
144
100
AcDbEntity
8
0
100
AcDbLine
10
129.91508523713892
20
62.317259343806406
30
0
11
112.34340399562782
21
62.317259343806406
31
0
0
LINE
5
145
100
AcDbEntity
8
0
100
AcDbLine
10
112.34340399562782
20
62.317259343806406
30
0
11
112.34340399562782
21
56.317259343806406
31
0
0
LINE
5
146
100
AcDbEntity
8
0
100
AcDbLine
10
112.34340399562782
20
56.317259343806406
30
0
11
95.279722754116776
21
56.317259343806406
31
0
0
LINE
5
147
100
AcDbEntity
8
0
100
AcDbLine
10
95.279722754116776
20
56.317259343806406
30
0
11
95.279722754116776
21
62.317259343804785
31
0
0
LINE
5
148
100
AcDbEntity
8
0
100
AcDbLine
10
95.279722754116776
20
62.317259343804785
30
0
11
77.708041512605689
21
62.31725934380642
31
0
0
LINE
5
149
100
AcDbEntity
8
0
100
AcDbLine
10
77.708041512605689
20
62.31725934380642
30
0
11
77.708041512605689
21
56.317259343806406
31
0
0
LINE
5
150
100
AcDbEntity
8
0
100
AcDbLine
10
77.708041512605689
20
56.317259343806406
30
0
11
60.644360271094627
21
56.317259343806406
31
0
0
LINE
5
151
100
AcDbEntity
8
0
100
AcDbLine
10
60.644360271094627
20
56.317259343806406
30
0
11
60.644360271094627
21
62.317259343806406
31
0
0
LINE
5
152
100
AcDbEntity
8
0
100
AcDbLine
10
60.644360271094627
20
62.317259343806406
30
0
11
43.072679029583576
21
62.317259343806406
31
0
0
LINE
5
153
100
AcDbEntity
8
0
100
AcDbLine
10
43.072679029583576
20
62.317259343806406
30
0
11
43.072679029583576
21
56.317259343806406
31
0
0
LINE
5
154
100
AcDbEntity
8
0
100
AcDbLine
10
43.072679029583576
20
56.317259343806406
30
0
11
26.008997788072513
21
56.317259343806406
31
0
0
LINE
5
155
100
AcDbEntity
8
0
100
AcDbLine
10
26.008997788072513
20
56.317259343806406
30
0
11
26.008997788072513
21
62.317259343806406
31
0
0
LINE
5
156
100
AcDbEntity
8
0
100
AcDbLine
10
26.008997788072513
20
62.317259343806406
30
0
11
8.4373165465614441
21
62.317259343806406
31
0
0
LINE
5
157
100
AcDbEntity
8
0
100
AcDbLine
10
-8.6263646949496113
20
56.317259343806406
30
0
11
-8.6263646949496131
21
62.317259343806406
31
0
0
LINE
5
158
100
AcDbEntity
8
0
100
AcDbLine
10
8.4373165465614459
20
56.317259343806406
30
0
11
-8.6263646949496113
21
56.317259343806406
31
0
0
LINE
5
159
100
AcDbEntity
8
0
100
AcDbLine
10
8.4373165465614441
20
62.317259343806406
30
0
11
8.4373165465614459
21
56.317259343806406
31
0
0
CIRCLE
5
160
100
AcDbEntity
8
0
100
AcDbCircle
10
51.788085237138915
20
-9.6930739895269298
30
0
40
24.5
0
CIRCLE
5
161
100
AcDbEntity
8
0
100
AcDbCircle
10
25.788085237138915
20
2.3069260104730738
30
0
40
2.0000000000000018
0
CIRCLE
5
162
100
AcDbEntity
8
0
100
AcDbCircle
10
77.788085237138915
20
2.3069260104730738
30
0
40
2.0000000000000018
0
LINE
5
163
100
AcDbEntity
8
0
100
AcDbLine
10
60.994418575439326
20
43.575592692040914
30
0
11
42.581751898838569
21
43.575592692040914
31
0
0
LINE
5
164
100
AcDbEntity
8
0
100
AcDbLine
10
60.994418575439326
20
49.321592692040916
30
0
11
60.994418575439326
21
43.575592692040914
31
0
0
LINE
5
165
100
AcDbEntity
8
0
100
AcDbLine
10
42.581751898838569
20
49.321592692040916
30
0
11
60.994418575439326
21
49.321592692040916
31
0
0
LINE
5
166
100
AcDbEntity
8
0
100
AcDbLine
10
42.581751898838569
20
43.575592692040914
30
0
11
42.581751898838569
21
49.321592692040916
31
0
0
LINE
5
167
100
AcDbEntity
8
0
100
AcDbLine
10
42.581751898838569
20
28.421592662238556
30
0
11
60.994418575439326
21
28.421592662238556
31
0
0
LINE
5
168
100
AcDbEntity
8
0
100
AcDbLine
10
42.581751898838569
20
22.675592662238561
30
0
11
42.581751898838569
21
28.421592662238556
31
0
0
LINE
5
169
100
AcDbEntity
8
0
100
AcDbLine
10
60.994418575439326
20
22.675592662238561
30
0
11
42.581751898838569
21
22.675592662238561
31
0
0
LINE
5
170
100
AcDbEntity
8
0
100
AcDbLine
10
60.994418575439326
20
28.421592662238556
30
0
11
60.994418575439326
21
22.675592662238561
31
0
0
CIRCLE
5
171
100
AcDbEntity
8
0
100
AcDbCircle
10
103.78808523713889
20
0.62775934380640497
30
0
40
6.3499999999999979
0
CIRCLE
5
172
100
AcDbEntity
8
0
100
AcDbCircle
10
-0.14148034966088277
20
-40.825040656193607
30
0
40
2.0954999999999999
0
CIRCLE
5
173
100
AcDbEntity
8
0
100
AcDbCircle
10
-0.14148034966087139
20
42.080559343806399
30
0
40
2.0954999999999999
0
LINE
5
174
100
AcDbEntity
8
0
100
AcDbLine
10
-5.1484803496608764
20
-10.999240656193599
30
0
11
4.865519650339122
21
-10.999240656193599
31
0
0
LINE
5
175
100
AcDbEntity
8
0
100
AcDbLine
10
4.865519650339122
20
-10.999240656193599
30
0
11
4.8655196503391229
21
12.254759343806402
31
0
0
LINE
5
176
100
AcDbEntity
8
0
100
AcDbLine
10
-5.1484803496608764
20
12.254759343806402
30
0
11
-5.1484803496608764
21
-10.999240656193599
31
0
0
LINE
5
177
100
AcDbEntity
8
0
100
AcDbLine
10
4.8655196503391229
20
12.254759343806402
30
0
11
-5.1484803496608755
21
12.254759343806402
31
0
0
ENDSEC
0
SECTION
2
OBJECTS
0
DICTIONARY
5
C
100
AcDbDictionary
3
ACAD_GROUP
350
D
3
ACAD_MLINESTYLE
350
17
0
DICTIONARY
5
D
100
AcDbDictionary
0
DICTIONARY
5
1A
330
C
100
AcDbDictionary
0
DICTIONARY
5
17
100
AcDbDictionary
0
ENDSEC
0
EOF
